<mxfile host="app.diagrams.net" modified="2023-09-12T09:08:13.983Z" agent="Mozilla/5.0 (X11; Linux x86_64) AppleWebKit/537.36 (KHTML, like Gecko) Chrome/116.0.0.0 Safari/537.36" etag="DIDNVCzkT02YAN-klE0H" version="21.7.4" type="device">
  <diagram name="Page-1" id="WT_PBfm3hB3Zm6HCD0LT">
    <mxGraphModel dx="1169" dy="1079" grid="1" gridSize="10" guides="1" tooltips="1" connect="1" arrows="1" fold="1" page="1" pageScale="1" pageWidth="827" pageHeight="1169" math="0" shadow="0">
      <root>
        <mxCell id="0" />
        <mxCell id="1" parent="0" />
        <mxCell id="YsVByBDXMGtculNdtcNv-63" value="" style="rounded=0;whiteSpace=wrap;html=1;fillColor=#f5f5f5;strokeColor=#666666;fontColor=#333333;shadow=1;" vertex="1" parent="1">
          <mxGeometry x="610" y="250" width="160" height="140" as="geometry" />
        </mxCell>
        <mxCell id="YsVByBDXMGtculNdtcNv-47" value="" style="rounded=0;whiteSpace=wrap;html=1;fillColor=#F5F5F5;strokeColor=#666666;fontColor=#333333;shadow=1;" vertex="1" parent="1">
          <mxGeometry x="40" y="450" width="730" height="120" as="geometry" />
        </mxCell>
        <mxCell id="YsVByBDXMGtculNdtcNv-39" value="" style="rounded=0;whiteSpace=wrap;html=1;fillColor=#f5f5f5;strokeColor=#666666;fontColor=#333333;shadow=1;" vertex="1" parent="1">
          <mxGeometry x="40" y="250" width="540" height="140" as="geometry" />
        </mxCell>
        <mxCell id="YsVByBDXMGtculNdtcNv-32" value="" style="rounded=0;whiteSpace=wrap;html=1;fillColor=#e1d5e7;strokeColor=#9673a6;shadow=1;" vertex="1" parent="1">
          <mxGeometry x="610" y="40" width="160" height="170" as="geometry" />
        </mxCell>
        <mxCell id="YsVByBDXMGtculNdtcNv-27" value="" style="rounded=0;whiteSpace=wrap;html=1;fillColor=#d5e8d4;strokeColor=#82b366;shadow=1;" vertex="1" parent="1">
          <mxGeometry x="410" y="40" width="170" height="170" as="geometry" />
        </mxCell>
        <mxCell id="YsVByBDXMGtculNdtcNv-21" value="" style="rounded=0;whiteSpace=wrap;html=1;fillColor=#dae8fc;strokeColor=#6c8ebf;shadow=1;" vertex="1" parent="1">
          <mxGeometry x="40" y="40" width="350" height="170" as="geometry" />
        </mxCell>
        <mxCell id="YsVByBDXMGtculNdtcNv-22" value="Hospital A" style="text;html=1;strokeColor=none;fillColor=none;align=left;verticalAlign=middle;whiteSpace=wrap;rounded=0;" vertex="1" parent="1">
          <mxGeometry x="70" y="45" width="110" height="30" as="geometry" />
        </mxCell>
        <mxCell id="YsVByBDXMGtculNdtcNv-25" value="" style="shape=mxgraph.signs.healthcare.hospital_2;html=1;pointerEvents=1;fillColor=#7EA6E0;strokeColor=#6c8ebf;verticalLabelPosition=bottom;verticalAlign=top;align=center;" vertex="1" parent="1">
          <mxGeometry x="50" y="50" width="17" height="20" as="geometry" />
        </mxCell>
        <mxCell id="YsVByBDXMGtculNdtcNv-10" value="" style="edgeStyle=orthogonalEdgeStyle;rounded=0;orthogonalLoop=1;jettySize=auto;html=1;strokeColor=#666666;" edge="1" parent="1" source="YsVByBDXMGtculNdtcNv-1" target="YsVByBDXMGtculNdtcNv-2">
          <mxGeometry relative="1" as="geometry" />
        </mxCell>
        <mxCell id="YsVByBDXMGtculNdtcNv-55" style="rounded=0;orthogonalLoop=1;jettySize=auto;html=1;exitX=0.5;exitY=1;exitDx=0;exitDy=0;entryX=0.25;entryY=0;entryDx=0;entryDy=0;strokeWidth=1;" edge="1" parent="1" source="YsVByBDXMGtculNdtcNv-1" target="YsVByBDXMGtculNdtcNv-51">
          <mxGeometry relative="1" as="geometry" />
        </mxCell>
        <mxCell id="YsVByBDXMGtculNdtcNv-56" value="OAUTH&lt;br&gt;(Authorization Code Flow)" style="edgeLabel;html=1;align=center;verticalAlign=middle;resizable=0;points=[];fontStyle=1" vertex="1" connectable="0" parent="YsVByBDXMGtculNdtcNv-55">
          <mxGeometry x="-0.0167" relative="1" as="geometry">
            <mxPoint as="offset" />
          </mxGeometry>
        </mxCell>
        <mxCell id="YsVByBDXMGtculNdtcNv-57" style="rounded=0;orthogonalLoop=1;jettySize=auto;html=1;exitX=0.5;exitY=1;exitDx=0;exitDy=0;entryX=0.5;entryY=0;entryDx=0;entryDy=0;strokeColor=#666666;fontColor=#808080;" edge="1" parent="1" source="YsVByBDXMGtculNdtcNv-1" target="YsVByBDXMGtculNdtcNv-53">
          <mxGeometry relative="1" as="geometry" />
        </mxCell>
        <mxCell id="YsVByBDXMGtculNdtcNv-58" value="API Calls" style="edgeLabel;html=1;align=center;verticalAlign=middle;resizable=0;points=[];fontColor=#808080;" vertex="1" connectable="0" parent="YsVByBDXMGtculNdtcNv-57">
          <mxGeometry x="0.0896" y="1" relative="1" as="geometry">
            <mxPoint as="offset" />
          </mxGeometry>
        </mxCell>
        <mxCell id="YsVByBDXMGtculNdtcNv-1" value="Multi-Tenant Application" style="rounded=0;whiteSpace=wrap;html=1;fontStyle=1" vertex="1" parent="1">
          <mxGeometry x="280" y="300" width="120" height="60" as="geometry" />
        </mxCell>
        <mxCell id="YsVByBDXMGtculNdtcNv-2" value="DB" style="shape=cylinder3;whiteSpace=wrap;html=1;boundedLbl=1;backgroundOutline=1;size=15;strokeColor=#666666;" vertex="1" parent="1">
          <mxGeometry x="470" y="290" width="60" height="80" as="geometry" />
        </mxCell>
        <mxCell id="YsVByBDXMGtculNdtcNv-11" style="edgeStyle=orthogonalEdgeStyle;rounded=0;orthogonalLoop=1;jettySize=auto;html=1;exitX=0.5;exitY=1;exitDx=0;exitDy=0;entryX=0.5;entryY=0;entryDx=0;entryDy=0;" edge="1" parent="1" source="YsVByBDXMGtculNdtcNv-4" target="YsVByBDXMGtculNdtcNv-1">
          <mxGeometry relative="1" as="geometry">
            <Array as="points">
              <mxPoint x="100" y="230" />
              <mxPoint x="340" y="230" />
            </Array>
          </mxGeometry>
        </mxCell>
        <mxCell id="YsVByBDXMGtculNdtcNv-4" value="User" style="image;html=1;image=img/lib/clip_art/people/Doctor_Woman_128x128.png;labelBackgroundColor=#DAE8FC;" vertex="1" parent="1">
          <mxGeometry x="60" y="90" width="80" height="80" as="geometry" />
        </mxCell>
        <mxCell id="YsVByBDXMGtculNdtcNv-18" style="edgeStyle=orthogonalEdgeStyle;rounded=0;orthogonalLoop=1;jettySize=auto;html=1;exitX=0.5;exitY=1;exitDx=0;exitDy=0;entryX=0.5;entryY=0;entryDx=0;entryDy=0;" edge="1" parent="1" source="YsVByBDXMGtculNdtcNv-15" target="YsVByBDXMGtculNdtcNv-1">
          <mxGeometry relative="1" as="geometry">
            <Array as="points">
              <mxPoint x="260" y="230" />
              <mxPoint x="340" y="230" />
            </Array>
          </mxGeometry>
        </mxCell>
        <mxCell id="YsVByBDXMGtculNdtcNv-15" value="User" style="image;html=1;image=img/lib/clip_art/people/Doctor_Man_Black_128x128.png;labelBackgroundColor=#DAE8FC;" vertex="1" parent="1">
          <mxGeometry x="220" y="90" width="80" height="80" as="geometry" />
        </mxCell>
        <mxCell id="YsVByBDXMGtculNdtcNv-19" style="edgeStyle=orthogonalEdgeStyle;rounded=0;orthogonalLoop=1;jettySize=auto;html=1;exitX=0.5;exitY=1;exitDx=0;exitDy=0;entryX=0.5;entryY=0;entryDx=0;entryDy=0;" edge="1" parent="1" source="YsVByBDXMGtculNdtcNv-16" target="YsVByBDXMGtculNdtcNv-1">
          <mxGeometry relative="1" as="geometry">
            <mxPoint x="340" y="340" as="targetPoint" />
            <Array as="points">
              <mxPoint x="480" y="230" />
              <mxPoint x="340" y="230" />
            </Array>
          </mxGeometry>
        </mxCell>
        <mxCell id="YsVByBDXMGtculNdtcNv-16" value="User" style="image;html=1;image=img/lib/clip_art/people/Doctor_Man_128x128.png;labelBackgroundColor=#D5E8D4;" vertex="1" parent="1">
          <mxGeometry x="440" y="90" width="80" height="80" as="geometry" />
        </mxCell>
        <mxCell id="YsVByBDXMGtculNdtcNv-20" style="edgeStyle=orthogonalEdgeStyle;rounded=0;orthogonalLoop=1;jettySize=auto;html=1;exitX=0.5;exitY=1;exitDx=0;exitDy=0;entryX=0.5;entryY=0;entryDx=0;entryDy=0;strokeColor=#808080;" edge="1" parent="1" source="YsVByBDXMGtculNdtcNv-17" target="YsVByBDXMGtculNdtcNv-66">
          <mxGeometry relative="1" as="geometry">
            <Array as="points">
              <mxPoint x="690" y="260" />
              <mxPoint x="690" y="260" />
            </Array>
          </mxGeometry>
        </mxCell>
        <mxCell id="YsVByBDXMGtculNdtcNv-17" value="User" style="image;html=1;image=img/lib/clip_art/people/Doctor_Woman_Black_128x128.png;labelBackgroundColor=#E1D5E7;" vertex="1" parent="1">
          <mxGeometry x="650" y="90" width="80" height="80" as="geometry" />
        </mxCell>
        <mxCell id="YsVByBDXMGtculNdtcNv-28" value="Practitioner B" style="text;html=1;strokeColor=none;fillColor=none;align=left;verticalAlign=middle;whiteSpace=wrap;rounded=0;" vertex="1" parent="1">
          <mxGeometry x="440" y="45" width="130" height="30" as="geometry" />
        </mxCell>
        <mxCell id="YsVByBDXMGtculNdtcNv-29" value="" style="shape=mxgraph.signs.healthcare.hospital_2;html=1;pointerEvents=1;fillColor=#67AB9F;strokeColor=#82b366;verticalLabelPosition=bottom;verticalAlign=top;align=center;" vertex="1" parent="1">
          <mxGeometry x="420" y="50" width="17" height="20" as="geometry" />
        </mxCell>
        <mxCell id="YsVByBDXMGtculNdtcNv-33" value="Medical Office C" style="text;html=1;strokeColor=none;fillColor=none;align=left;verticalAlign=middle;whiteSpace=wrap;rounded=0;" vertex="1" parent="1">
          <mxGeometry x="640" y="45" width="130" height="30" as="geometry" />
        </mxCell>
        <mxCell id="YsVByBDXMGtculNdtcNv-34" value="" style="shape=mxgraph.signs.healthcare.hospital_2;html=1;pointerEvents=1;fillColor=#B5739D;strokeColor=#9673a6;verticalLabelPosition=bottom;verticalAlign=top;align=center;" vertex="1" parent="1">
          <mxGeometry x="620" y="50" width="17" height="20" as="geometry" />
        </mxCell>
        <mxCell id="YsVByBDXMGtculNdtcNv-40" value="Medical Software Provider (Client)" style="text;html=1;strokeColor=none;fillColor=none;align=left;verticalAlign=middle;whiteSpace=wrap;rounded=0;" vertex="1" parent="1">
          <mxGeometry x="70" y="255" width="190" height="30" as="geometry" />
        </mxCell>
        <mxCell id="YsVByBDXMGtculNdtcNv-44" value="" style="shape=image;verticalLabelPosition=bottom;labelBackgroundColor=default;verticalAlign=top;aspect=fixed;imageAspect=0;image=data:image/png,iVBORw0KGgoAAAANSUhEUgAAA9QAAAOICAYAAAA3mLkIAAAABGdBTUEAALGPC/xhBQAAAAFzUkdCAK7OHOkAAAAgY0hSTQAAeiYAAICEAAD6AAAAgOgAAHUwAADqYAAAOpgAABdwnLpRPAAAAAZiS0dEAP8A/wD/oL2nkwAAAAlwSFlzAAAASAAAAEgARslrPgAAgABJREFUeNrs3Xd8VvXd//HPuTIJGUCYYaNsjDJVkA0qCMoeATIhdFjraJXbtj9ta29FrXet9b5lZJAAshQFBEQ2FlBBkb1kE8ImJISQdX5/tGpbEULIdX3OeD0fj9/j8btdvJJDyfXOOflehmmagn9XUlJinjlzRs6ePSsnT56Us2fPSm5uruTl5Ulubq4UFxf/4N+pWrWqhIWFSXh4uFSpUkXq1q0rderUkVq1aolhGIb2xwQAAAAAqFj+2gGaioqKzJ07d8pXX30lu3fvlgMHDsj+/fvl0KFDUlhYWCG/RmBgoNSvX99s3ry5tGjRQpo3by5333233H333RIcHMzQBgAAAACbMtx0h/rs2bPm+vXrZe3atbJx40bZuXNnhQ3nWxUQECBt2rSRTp06Sbdu3aRHjx4SFRXFwAYAAAAAm3D0oC4pKTE3btwoixcvlmXLlsmuXbvEyh9v8+bNpU+fPvLoo49Kjx49JDAwkIENAAAAABbluEFdUlJirlixQubMmSMfffSRnD9/XjupXMLDw+Xhhx+WESNGyCOPPMLj4QAAAABgMY4Z1F999ZWZkZEhc+bMkezsbO2cClWlShUZNmyYjBs3Trp168awBgAAAAALsPWgvnbtmrlo0SKZOnWqrFy5UjvHJ5o1ayaJiYkyYcIEqVatGuMaAAAAAJTYclCfOXPG/Mtf/iJTp0617SPdtys0NFQSExPl6aefloYNGzKsAQAAAMDHbDWojx07Zr7++uuSkpIi+fn52jmWEBAQIKNHj5bnnntOWrVqxbAGAAAAAB+xxaA+ffq0+cc//lGmTZum9jZXVufn5ydjx46VF198URo1asSwBgAAAAAvs/SgzsvLM19//XX585//LHl5edo5thAYGCg/+clP5IUXXuBnrAEAAADAiyw7qBcvXmz+/Oc/l+PHj2un2FLVqlXlhRdekMcff1z8/PwY1gAAAABQwSw3qPfv32/+/Oc/d82p3d7Wvn17eeedd6RDhw6MagAAAACoQB7tgG+VlJSYkydPNqOjoxnTFWjr1q1y//33y6RJk8yCggJrffcEAAAAAGzMEneo9+/fb8bHx8umTZu0UxytZcuWkp6eLp06deJuNQAAAADcJvU71FOnTjXvuecexrQP7NmzRx544AGZPHmyWVpaqv+dFAAAAACwMbU71Hl5eeZPfvITmTVrlvbnwJX69u0rGRkZUrt2be5WAwAAAEA5qAzqPXv2mEOHDpU9e/Zof/yuFhUVJe+//77ce++9jGoAAAAAuEU+f+R7xYoVZufOnRnTFpCVlSXdu3eXlJQUHv8GAAAAgFvk00H917/+1ezfv79cunRJ++PGP127dk3Gjx8vTz/9ND9XDQAAAAC3wCePfJumaT711FPy5ptvan+8uIERI0ZIRkaGBAUF8Qg4AAAAANyE1wd1cXGxmZSUJBkZGdofK8qgR48esnDhQqlSpQqjGgAAAABuwKuDuqCgwBw5cqQsWrRI++PELWjfvr2sWLFCqlWrxqgGAAAAgB/htUFdWFhoDhs2TBYvXqz9MaIc7rnnHvnkk0+kevXqjGoAAAAAuA6vDOrCwkJz+PDh3Jm2ubvuukvWrFkjkZGRjGoAAAAA+A8Vfsp3SUmJGRMTw5h2gB07dkj//v0lLy+P078BAAAA4D9U+KB+6qmn5L333tP+uFBBPv/8c3nsscfk2rVrjGoAAAAA+BcVOqhffvll86233tL+mFDBVq9eLbGxsWL64j3WAAAAAMAmKmxQz5492/zNb36j/fHAS+bNmycvvPCCdgYAAAAAWEaFHEq2bds2s0uXLpKfn6/98cCLDMOQzMxMGTNmDIeUAQAAAHC92x7UZ86cMTt27CjHjh3T/ljgA8HBwfLpp59K+/btGdUAAAAAXO22HvkuKSkxR40axZh2kYKCAhkxYoRcunSJn6cGAAAA4Gq3Naj/+7//W9asWaP9McDHDh06xCFlAAAAAFyv3I98b9y40ezevbsUFxdrfwxQ8uabb8oTTzzBo98AAAAAXKlcgzo3N9eMjo6WI0eOaPdDUaVKleSrr76S5s2bM6oBAAAAuE65Hvn+9a9/zZiGXL16VWJiYqSoqIhHvwEAAAC4zi0P6jVr1phTp07V7oZFfPnll/Laa69pZwAAAACAz93SI9/5+fnmXXfdJYcOHdLuhoUEBwfLzp075Y477uDRbwAAAACucUt3qF955RXGNH6goKBAfv7zn2tnAAAAAIBPlfkO9bFjx8yWLVtKfn6+djMs6v3335fBgwdzlxoAAACAK5R5UA8ePNj84IMPtHthYY0aNZK9e/dKUFAQoxoAAACA45Xpke9PP/2UMY2bOnLkiLz99tvaGQAAAADgE2W6Q92jRw9z3bp12q2wgapVq8rBgwelWrVq3KUGAAAA4Gg3vUP90UcfMaZRZhcvXuRttAAAAAC4wk3vUHfo0MHcunWrdidsJCwsTI4ePSpVq1blLjUAAAAAx7rhHeoVK1YwpnHLcnNz5a233tLOAAAAAACvuuEd6t69e5urV6/WboQNVatWTY4ePSqhoaHcpQYAAADgSD96h3rr1q2MaZTbhQsXJDU1VTsDAAAAALzmRwc1j+zidr311ltSWlpatjc6BwAAAACbue4j3xcvXjTr1asn+fn52n2wuRUrVkjfvn157BsAAACA41z3DvX06dMZ06gQb7/9tnYCAAAAAHjFde9Qt2zZ0ty7d692GxzAz89Pjh49KnXr1uUuNQAAAABH+cEd6i1btjCmUWFKSkokPT1dOwMAAAAAKtwPBvWsWbO0m+AwKSkpHE4GAAAAwHH+bVCXlJSYc+fO1W6Cwxw+fFjWrl2rnQEAAAAAFerfBvXGjRvl1KlT2k1woJSUFO0EAAAAAKhQ/zaoFy9erN0Dh3r//fflwoULPPYNAAAAwDEY1PCJgoICmT17tnYGAAAAAFSY794269ChQ+Ydd9yh3QMHu/vuu2Xbtm28fRYAAAAAR/juDvXq1au1W+BwX3/9tWzdupXHvgEAAAA4wneDmlOY4QscTgYAAADAKb575LtevXrmyZMntXsszd/fX1q3bi133HGHNGjQQIKCgkRE5PLly5KdnS179uyRAwcOSElJiXaqZUVEREhWVpaEhITw6DcAAAAAW/MXETly5Ahj+kdUr15dhg4dKkOHDpXOnTtL5cqVbzgEc3JyzPXr18uCBQtk4cKFkpubq/0hWEpOTo4sWLBAYmNjtVMAAAAA4LYYpmnKggULzOHDh2u3WErr1q3lV7/6lYwePVqCgoLKdTc1NzfXnDZtmrz++uu8v/e/6Natm6xbt4471AAAAABszSMisnXrVu0Oy6hWrZq888478vXXX0t8fLxR3jEtIhIWFmY8/fTTxv79++W5554Tf39/7Q/PEjZs2CD79+/ncDIAAAAAtuYREdmyZYt2hyX06dNHtm/fLhMnTjT8/Pwq7A5qaGio8corrxjr1q2TBg0aaH+Y6kzTlNTUVO0MAAAAALgthmmaUqdOHTM7O1u7RVVycrK8/fbb4u/v79VHkbOzs80BAwa4/qmAWrVqyfHjxyUgIIBHvwEAAADYkic3N9f1Y/p3v/udTJkyxfD2mBYRqV27trF69Wpp37699oet6vTp07J06VLtDAAAAAAoN8++ffu0G1T9/Oc/lz/84Q8+vUsaHh5uLF26VOrXr6/94auaPn26dgIAAAAAlJvnwIED2g1qunXrJv/zP/+j8mvXrFnTmDNnjgQEBGh/GtQsX75csrKyOJwMAAAAgC15jh07pt2gonLlypKenq76M7ydO3c2fvnLX2p/KtQUFxdLenq6dgYAAAAAlIvHre+P/NJLL0njxo3VD8T6f//v/0mtWrW0M9SkpqaKaZrcpQYAAABgO56TJ09qN/hcgwYN5Kc//al2hoj8472q3XyX+ptvvpG1a9dqZwAAAADALfOcPn1au8HnfvnLX0pQUJD63elv/fSnP5VKlSppZ6hJSUnRTgAAAACAW+bJycnRbvCp4OBgiY+P1874N1WqVDGGDRumnaHmvffek4sXL/LYNwAAAABb8Vy+fFm7wad69eol1apVs8zd6W8lJiZqJ6gpKCiQ2bNna2cAAAAAwC3x5OXlaTf41EMPPaSdcF3du3eXpk2bameo4T2pAQAAANiNJz8/X7vBpzp27KidcF2GYRhuvku9bds22bp1K499AwAAALANT2lpqXaDT7Vu3Vo74UfFxcWJv7+/doYaDicDAAAAYCeuGtSVK1eW8PBwy/389Lfq1Klj9O/fXztDzezZsyU/P5+71AAAAABswaMd4Evh4eHaCTeVlJSknaAmJydH3nvvPe0MAAAAACgTj5seMTZN69/87N+/v9SpU0c7Qw2PfQMAAACwC09ISIh2g8/Y4T23/f39jbi4OO0MNevWrZO9e/da/zsfAAAAAFzPExYWpt3gM1evXpULFy5YfqwlJiaKYVj2R729Lj09XTsBAAAAAG7KU7lyZe0Gn9q5c6d2wk01bdrU6Natm3aGmhkzZkhRUZHlv/EBAAAAwN081apV027wqc8//1w7oUzcfDhZdna2LF26VDsDAAAAAG7IU7t2be0Gn7LLUBs2bJhUrVpVO0NNamqqdgIAAAAA3JDrBvX69evlzJkzln+cuFKlSsaoUaO0M9QsXbpUsrKyLH+dAAAAALiX6wZ1SUmJZGZmameUiZsf+y4uLpYZM2ZoZwAAAADAj/I0bNhQu8Hnpk2bJqYN3pS6ffv2Rtu2bbUz1EyfPt0W1wkAAACAO3maNWum3eBz+/btk82bN2tnlEliYqJ2gppDhw7JunXrtDMAAAAA4Lo8TZs21W5QkZKSop1QJmPHjpWQkBDtDDV2uU4AAAAA3McwTVNq165tnj59WrvFp0JDQyUrK0vCwsIM7ZabGTt2rDlr1iztDBWVKlWSkydPStWqVS1/nQAAAAC4i0dEJDo6WrvD5/Ly8mTu3LnaGWXi5se+r169KrNnz9bOAAAAAIAfMEzTlEmTJpmTJ0/WbvG5++67TzZt2mT5O5+maZrNmjWTgwcPaqeoiI6Olq+//try18kNLly4YB4+fFg7AwAAwBH8/PwkPDxcRP7xZGZwcLAEBQVJSEgIr31twl9ExK0nSW/evFm2b99uRkdHW/o3rGEYRnx8vPnb3/5WO0XF9u3b5csvvzTbtWtn6evkBjk5OdKpUycpLS3VTgEAAHCsSpUqmZGRkRIZGSnVq1eXGjVqSO3ataVRo0bSuHFjadSokTRq1EjCw8N5fazMME1TDh48aLr1cLKnnnpK3njjDcv/Rjx58qTZsGFDKSkp0U5R8bOf/Uzefvtty18nN+jbt6+5cuVK7QwAAADXi4yMlNatW8tdd90l0dHREh0dLW3atJHQ0FBeN/uI8e3b/NatW9fMysrS7vG5yMhIOXnypAQFBVn+N92AAQPMjz76SDtDRUREhGRlZfH4iwXMmTPHHD16tHYGAAAArsMwDGnWrJncf//98sADD0jnzp2lRYsWYhgGr6O9wPPt/6d79+7aLSrOnz8vixYt0s4ok6SkJO0ENTk5OfL+++9rZ0BEBg8eLJGRkdoZAAAAuA7TNGXfvn2Snp4u48ePl1atWkmNGjXk0UcfNf/2t7+ZBw8eNLUbncT1g1rEPu91PHDgQKlTp452hhq7XCenCwoKMsaOHaudAQAAgDI6f/68LF68WH7xi19I06ZNpVmzZuYTTzxhLlu2zCwoKGBg34bvHvk+cOCA2axZM+0eFR6PRw4dOiQNGza0/GMQzz33nPnqq69qZ6gwDEP27dsnTZs2tfx1crqdO3ead911l3YGAAAAblNISIj06tVLhg8fLsOGDeNHLG/Rd3eomzZtarh1UJeWlkp6erp2RpkkJSWJW3/8wTRNSUtL086AiLRp08a49957tTMAAABwm/Lz82XJkiUSFxcndevWlfj4eHPFihVmaWkpd67LwPOv/8ejjz6q3aMmJSVFSkpKLP+bplmzZkaXLl20M9SkpaVJUVGR5a+TG7j5Z/oBAACc6NKlSzJjxgx56KGHpEGDBjJp0iTzyJEjvPa+gX8b1AMHDtTuUXP8+HFZtWqVdkaZuHnIZGdny7Jly7QzICKjRo2S0NBQ7QwAAAB4wcmTJ2Xy5Mly5513ysCBA80lS5Zw1/o6/m1Qd+7cWWrUqKHdpMYuh16NGDFCIiIitDPU2OU6OV1YWJgxcuRI7QwAAAB4UUlJiSxZskQGDhwozZo1kzfffNPMz89nWP/Tvw1qf39/V79A/uCDD+Ts2bOW/80REhJijBo1SjtDzdKlSyUrK8vy18kN3Py0BAAAgNt888038uSTT0qjRo1k0qRJJq/J/2NQi4i4+e1wCgsLZdasWdoZZeLmIVNcXCwZGRnaGRCR+++/34iOjtbOAAAAgA+dPXtWJk+eLE2bNpVf/vKX5unTp107rH8wqO+9916jefPm2l1q7PI4cceOHY177rlHO0PNtGnTxPz2Pd+gKj4+XjsBAAAACvLz8+Wvf/2r3HnnnTJp0iTz4sWLrnt97rneXxw3bpx2l5qdO3fK5s2bbfEbISEhQTtBzaFDh2TdunXaGRCR2NhYCQoK0s4AAACAkry8PJk8ebLccccd8vLLL5sFBQW22FMV4bqDOj4+Xvz8/LTb1KSmpmonlMnYsWMlODhYO0ONXa6T00VGRhqDBg3SzgAAAICyixcvyvPPPy9NmzaVjIwM0w1PlF53UNetW9d46KGHtNvUvPvuu5Kbm2v5i1+tWjVXD5kFCxaIGx8rsSI3/0w/AAAA/t2JEyckLi5OevbsKdu2bXP063XPj/0NN79AzsvLkwULFmhnlImbr9PVq1fl3Xff1c6AiPTu3VsaN26snQEAAAALWbdunXTo0EF+8YtfmHa4YVkePzqoH330Ualdu7Z2nxq7HE7Wu3dvueOOO7Qz1NjlOjmdx+Mx3Pwz/QAAALi+kpIS+dvf/ibNmzeX999/33Gj+kcHtb+/v+Hmw8n+/ve/y+7duy1/wQ3DMOLi4rQz1Hz55Zfy1VdfWf46uUFiYqKrz14AAADAjzt16pQMHTpUBg4c6Kj3r/bc6G+OHz9eDMPQblSTlpamnVAmCQkJrh4y3KW2hrp16xoPP/ywdgYAAAAsbMmSJRIdHe2Yu9U3HNTNmjUzunTpot2oJj09Xa5du2b5C12vXj3jwQcf1M5QM3PmTMnPz7f8dXIDN/9MPwAAAMrm/PnzMnToUImNjTXz8vJs/Trec7N/wM0vkM+dOycfffSRdkaZuPk65eTkyMKFC7UzICIDBw6UOnXqaGcAAADABjIzMyU6Olo2btxo21F900E9cuRIqVKlinanGrs8Tswhcva4Tk7n7+9vxMbGamcAAADAJg4fPiw9evSQP//5z7Z83+qbDupKlSoZI0aM0O5Us3z5cjl27JjlL2xAQIAxZswY7Qw1a9eulYMHD1r+OrlBYmKiq89eAAAAwK0pKiqSX/3qVzJ48GDJycmx1Wv6mw5qEXc/TlxaWiozZszQziiTCRMmuHbImKZpm0PknK5Zs2ZGt27dtDMAAABgMx9++KHce++9tni3pW+VaVB36tTJuPvuu7Vb1aSmpkppaanlL2rz5s2N+++/XztDTWpqqhQXF1v+OrnB+PHjtRMAAABgQ/v27ZP7779fFi1aZIvX9WUa1CL/eGsmtzpy5IisXr1aO6NM3Pw0QXZ2tixbtkw7AyIydOhQqVq1qnYGAAAAbOjy5csyaNAgefHFFy0/qss8qMeNGyfBwcHavWrscujVyJEjJTw8XDtDjV2uk9NVqlTJiImJ0c4AAACATZmmKb///e9l4sSJppWfQi3zoK5WrZoxaNAg7V4177//vpw7d86yF/JblStXNkaOHKmdoeajjz6SrKwsy18nN0hOTtZOAAAAgM1NnTpVBgwYILm5uZZ8jV/mQS3i7seJCwsLZfbs2doZZeLm61RcXCyZmZnaGRCR6Ohoo3379toZAAAAsLmPP/5Y+vTpIxcuXLDcqL6lQd27d2+54447tJvVTJ8+XTuhTO69914jOjpaO0PNtGnTxI7vYedEbv7mDgAAACrO559/Ll27drXc06i3NKgNwzDi4uK0m9Xs2LFDvvjiC0tdwB8THx+vnaDmm2++kfXr12tnQERiYmIkJCREOwMAAAAOsHv3bunZs6ccP37cMpvslga1yD9O+/bz89PuVmOXQ69iY2MlKChIO0ONXa6T00VERBjDhw/XzgAAAIBD7N+/X7p27SoHDx60xKi+5UFdr14948EHH9TuVvPuu+/KlStXLHHxbiQyMtJ47LHHtDPULFiwQC5evGj56+QGPPYNAACAinT06FHp2bOnHD58WP31/i0PahF3v0C+fPmyLFiwQDujTNx8na5evSpz5szRzoCIdO3a1WjZsqV2BgAAABzkxIkT0rdvX/WfqS7XoH7sscekdu3amt2q7PI4cZ8+faRhw4baGWrscp3cICEhQTsBAAAADvPNN99Iz5495fTp02qjulyD2t/f3xg7dqxWs7oNGzbInj171B8vuBmPx2O4echs3bpVvvrqK8tfJzeIi4uTgIAA7QwAAAA4zP79+6Vfv35y6dIlldf95RrUIiLjx48XwzA0mi0hPT1dO6FMkpKSXH2IXGpqqnYCRKRmzZrGwIEDtTMAAADgQF999ZU8+uijcu3aNZ+P6nIP6ubNmxudO3f2da9lzJgxQ4qKiix/97NevXpGnz59tDPUZGZmSn5+vuWvkxu4+Wf6AQAA4F0bNmyQuLg4MU3Tp6/9yz2oRdz9Avn06dPy0UcfaWeUiZuvU05OjixcuFA7AyLy8MMPS4MGDbQzAAAA4FBz586VF1980ae/5m0N6hEjRkh4eLhPg63ELodePfbYY1KjRg3tDDV2uU5O5/F4jPj4eO0MAAAAONgf/vAHmTJlis/uUt/WoK5cubIxatQoX7VazrJly+T48eOWf5w4MDDQ1YfIrV271jJv/O52iYmJ4vHc1h87AAAAwA098cQTsnHjRp+8/r/tV7Zufpy4pKREMjMztTPKJDk5WTtBjWmakpaWpp0BEWnYsKGrf6YfAAAA3ldYWChDhw71yXtU3/ag7tSpk3H33Xf75jNjQdOnT5fS0lLL3/1s0aKFcd9992lnqElNTZXi4mLLXyc3cPM34QAAAOAb2dnZMmzYMCksLPTqBqiQZy/d/F7Hhw8flnXr1mlnlImbh0x2drYsX75cOwMiMmjQIFf/TD8AAAB8Y9OmTfLss8969deokEE9duxYCQ4O9sknxYrscujVqFGjJCwsTDtDjV2uk9MFBgYa48aN084AAACAC7z55psyb948r92lrpBBHRkZaTz22GO++6xYzHvvvScXL160/OPEoaGhxvDhw7Uz1CxZskROnTpl+evkBhMmTBDDMLQzAAAA4AITJ06Uo0ePemUHVNhxu25+nLigoEBmz56tnVEmbr5OxcXFkpGRoZ0B+cfP9N9///3aGQAAAHCBS5cuybhx46SkpKTCR3WFDeo+ffrIHXfc4dvPjIVMnTpVO6FMOnfubLRq1Uo7Q01qaqqYpsldagtw8zd3AAAA4FsbNmyQV199tcL/uxU2qA3DMGJjY336SbGS7du3y5dffmmLoZaYmKidoGb//v2yYcMG7QyIyMiRIyU8PFw7AwAAAC7xwgsvyJYtWyp0s1XYoBb5x1Dz8/Pz7WfFQuxy6FV8fLwEBQVpZ6ixy3VyusqVKxujRo3SzgAAAIBLFBUVSUJCQoW+lVaFDup69eoZDz74oO8/MxYxa9Ysyc/Pt/xd6sjISGPAgAHaGWrmz58vly5dsvx1cgMe+wYAAIAv7dy5UyZPnlxh/70KHdQi7n6BnJOTI++99552Rpm4+TpdvXpV5syZo50BEenUqZNxzz33aGcAAADARf70pz/J7t27K+QGW4UP6oEDB0rNmjV9/1mxCLs8TvzQQw9JgwYNtDPU2OU6uUFCQoJ2AgAAAFzk2rVrkpSUJKWlpbc9qit8UAcGBhrjxo3T+cxYwPr16+XAgQOWf5zY4/EY8fHx2hlqtmzZItu2bbP8dXKDsWPHSnBwsHYGAAAAXGTz5s0ybdq02/7vVPigFhGZMGGCGIbh80+KFZimKWlpadoZZZKQkCAej1d+C9hCamqqdgJEpFq1asaQIUO0MwAAAOAyzz//vFy4cOG2brJ5ZU01b97cuP/++3U+KxaQlpYmRUVFlr/72ahRI6N3797aGWoyMzPl6tWrlr9ObuDmn+kHAACAjgsXLshLL710W/8Nr92edPML5OzsbFm2bJl2Rpm4+TpdunRJFi5cqJ0BEenZs6fceeed2hkAAABwmbfeekt27dpV7ptsXhvUI0eOlPDwcJ3PigXY5dCrwYMHS/Xq1bUz1NjlOjmdYRgGh5MBAADA14qLi+XZZ58t97/vtUFduXJlY+TIkSqfFCtYunSpZGVlWf5x4sDAQGPMmDHaGWrWrFkjBw8etPx1coP4+Hjx9/fXzgAAAIDLLF26VFatWlWuTeDVE6nc/DhxcXGxZGRkaGeUyfjx47UT1JimKenp6doZEJGoqCijf//+2hkAAABwod/97nfl+ve8Oqjvvfde4+6771b5hFjBtGnTxDRNy9/9bNOmjdGpUyftDDXp6elSUlJi+evkBm7+JhwAAAD0bNq0SZYtW3bLm8Dr75nk5vc6PnTokKxfv147o0zcPGROnjwpy5cv186AiPTv31+ioqK0MwAAAOBCv/vd7275hqjXB/W4ceMkKChI77OizC6HXsXExEhoaKh2hhq7XCen8/f3N9z8TTgAAADo2bp1q3z44Ye39O94fVBHRkYajz32mNonRduCBQvk4sWLln+cODQ01Bg2bJh2hprFixfLqVOnLH+d3CAxMVEMw9DOAAAAgAv98Y9/vKV/3uuDWsTdjxNfvXpV5syZo51RJm6+TsXFxZKZmamdARG54447jJ49e2pnAAAAwIW+/PJLWb16dZlvtPlkUPft21eaNGmi91lRZpfHiR944AGjZcuW2hlqUlJSbHGInBu4+Zs7AAAA0PXnP/+5zP+s4av98Pvf/9588cUXlT4l+r788ktp27at5Z9jfe2118zbeWNzu1u/fr107drV8tfJ6QoKCky7vO0cAABAeeXk5Hz3/y5fvixZWVmyZ88eOXnypHaaqxmGITt27JDWrVvfdBf4bFCfOHHCbNSokZSUlGh/flQ8/vjj8tZbb1l+qJ0+fdqsX7++FBUVaaeoiIuLk/T0dMtfJwAAADjXpUuXzD179siOHTtk3bp1smrVKjl9+rR2lqskJiZKSkqKdQa1iEi/fv1Mt749UZUqVeTkyZMSEhJi+bE2ZMgQc+HChdoZKipVqiRZWVlSpUoVy18nAAAAuINpmuaOHTtk5cqVsmDBAtm0aZN2kuMFBQXJyZMnJTIy8oa7wCc/Q/0tN/9c5KVLl+SDDz7QzigTN18nOx0iBwAAAHcwDMOIjo42nn76aWPjxo3G3r175YUXXpCGDRtqpznWtWvXynRosU/vUBcWFpr169eXM2fOaH5u1PTq1UtWrVpl+TufpaWlZqNGjeT48ePaKSo6dOggX3zxheWvEwAAANytpKTEfP/99+Wll16S7du3a+c4TuvWrWXnzp3WuUMdGBhojB07VvezomjNmjVy8OBBy58i7fF4jNjYWO0MNVu2bJFt27ZZ/joBAADA3fz8/Izhw4cb27Ztk0WLFknHjh21kxxl165dsmnTphvuAp8OahGRCRMmiGG48+afaZqSnp6unVEmSUlJ4vH4/LeHZaSmpmonAAAAAGViGIYxcOBA47PPPpPZs2dL7dq1tZMcY9q0aTf8+z595PtbnTt3Nt36g/R169aVo0ePip+fn+W/q9C7d29z9erV2hkqqlSpIllZWVKpUiXLXycAAADgX126dMn8zW9+I++8846UlpZq59ha5cqV5fTp01K5cuXr7gKVW5BuPvTq5MmTYpeTzt18nex0iBwAAADwr6pUqWK8/fbbxsaNG6Vp06baObZ25coVWbJkyY/+fZVBPWrUKAkPD1f7pGhLSUnRTiiTIUOGSLVq1bQz1NjlOgEAAADXc++99xpbt26VUaNGaafY2ty5c3/076kM6sqVKxsjRoxQ+4RoW7x4sZw6dcryh14FBwcbY8aM0c5Qs3r1avnmm28sf50AAACAHxMWFma8++67xpQpUyQoKEg7x5aWLVsmOTk5190FaqdOuflx4uLi4jK9p5kVTJgwQTtBjZ0OkQMAAABuJDk52Vi1apVUrVpVO8V2CgoKZPHixdf9e2qD+r777jOio6PVPinaUlJSxNQ4Ee4W3XXXXUb79u21M9SkpaVJSUmJ5a8TAAAAcDNdunQx1q1bJ1FRUdoptjN//vzr/nXV90WKj4/X/OVV7d+/X/7+979rZ5SJm58msNMhcgAAAMDN3HXXXcbGjRulWbNm2im2smrVKikoKPjBjTbVQR0bG+vq5/jtcuhVTEyMhISEaGeosct1AgAAAMqiYcOGxtq1a6VJkybaKbZx5coVWb9+/Q/+uuqgjoyMNB577DHNBFVz586VS5cuWf5x4oiICGPYsGHaGWrscogcAAAAUFZ16tQxVqxYIbVq1dJOsY2PP/74B39NdVCLuPtx4qtXr97wCHYrcfN1Ki4ulpkzZ2pnAAAAABXqjjvuMFasWCERERHaKbawbNmyH/w1Q/tcrNLSUrNJkyZy9OhR1Q4tHTt2lM8//9zQ7iiLli1bmnv37tXOUNGsWTPZu3evGIZhi2sFAAAAlNXy5cvNRx55REpLS7VTLO/w4cPSqFGj7zaB+h1qj8djJCQkaGeo+eKLL2Tbtm22eJyYQ+TscYgcAAAAcCsefvhh47/+67+0M2xh9erV//Z/qw9qkX88Tuzn56edoSYtLU07oUzi4+MlICBAO0MNh5MBAADAqf7whz9I7969tTMs7z9vslliUNerV8/o06ePdoaamTNnXvcIdqupVauW0b9/f+0MNXY5RA4AAAC4VR6Px5gxY4bUqFFDO8XSLDmoRdx96NWFCxfkgw8+0M4oEzdfJzsdIgcAAADcqrp16xr/8z//o51hafv375czZ858d5PNMoP6sccec/V3Q+zyOHG/fv0kKipKO0ONXa4TAAAAUB5jxowxevXqpZ1hWaZpysaNG7/7vy0zqAMDA41x48ZpZ6hZtWqVfPPNN5Z/nNjf39+Ii4vTzlBjp0PkAAAAgPJ4++23JTAwUDvDsiw5qEVEJkyYoJ2gxjRNmTFjhnZGmYwfP17c/O5RdjlEDgAAACiPFi1aGE8//bR2hmV9/fXX3/3/1d+H+j917tzZ3LRpk3aGinr16smRI0fEz8/P8mu1Z8+e5tq1a7UzVFSrVk1OnjwpwcHBlr9OAAAAQHnk5OSYjRo1kkuXLmmnWE7t2rXl1KlThojF7lCLuPvQqxMnTsiKFSu0M8rEzdfJTofIAQAAAOURERFh/PSnP9XOsKTs7OzvDiaz3KAeOXKkhIWFaWeoscuhV0OHDpWqVatqZ6ixy3UCAAAAyuuZZ56R0NBQ7QxL2rFjh4hYcFCHhoYaI0aM0M5Qs2jRIsnOzrbWc/jXUalSJWP06NHaGWrscogcAAAAUF6RkZGGm8+5upHt27eLiAUHtYi7HycuKiqSWbNmaWeUycSJE7UT1NjpEDkAAACgvJKTk7UTLGnPnj0iYtFBff/99xutW7fWzlAzbdo0Ma12Wtx1REdHG23bttXOUJOamiolJSWWv04AAABAebVo0cLo2LGjdoblHDlyREQsOqhFRBITE7UT1Ozbt0/sctK5m58mOHnypHz88cfaGQAAAIBXxcbGaidYzuHDh0XEwoM6Li5OgoKCtDPU2OXQq7Fjx0pISIh2hhq7XCcAAACgvEaPHi2BgYHaGZZy7NgxKSkpMS07qCMjI41HH31UO0PN3Llz5fLly5Z/nDgiIsIYPHiwdoYauxwiBwAAAJRXZGSk0aVLF+0MSyksLJSsrCzr3qEWcffjxFeuXJF58+ZpZ5SJm69TcXGxzJw5UzsDAAAA8KrevXtrJ1jOoUOHrD2o+/btKw0bNtTOUGOXx4l79Oghd955p3aGmunTp9viEDkAAACgvHr16qWdYDnZ2dnWHtQej8eIj4/XzlCzefNm2b59u+WHmmEYRkJCgnaGmn379snGjRu1MwAAAACv6dixo4SHh2tnWMq5c+esPahF/vE4sZ+fn3aGmvT0dO2EMklMTBR/f3/tDDV2eZoAAAAAKA9/f3/j/vvv186wlPPnz1t/UNevX99w8/P6GRkZcu3aNcvfpa5du7bRr18/7Qw18+bNs8UhcgAAAEB5tWjRQjvBUmwxqEXcfejV+fPn5cMPP9TOKBM3X6crV67InDlztDMAAAAAr2nevLl2gqXY4pFvEZFBgwZJjRo1tDPU2OVx4kceeUTq1KmjnaHGLtcJAAAAKI+WLVtqJ1iKbe5QBwYGGmPHjtXOULNy5Uo5evSo5R8n9vf3N2JjY7Uz1Hz++efy9ddfW/46AQAAAOXBHep/l5+fb49BLSKSnJysnaCmtLRU0tLStDPKJDExUQzD0M5QY5frBAAAANyqmjVruvq1/n8qLCy0z6Bu0aKFcd9992lnqElJSZGSkhLL3/1s1qyZ0bVrV+0MNZmZmVJQUGD56wQAAADcKj8/P6NSpUraGZZx7do1+wxqEXcfenXixAlZuXKldkaZuPk6XbhwQT744APtDAAAAMAreC/q7xUUFNhrUI8aNUrCwsK0M9TY5dCr4cOHS5UqVbQz1NjlOgEAAAC3ys177D/Z7g51aGioMWLECO0MNR9++KGcPXvW8o8TV6pUyRg1apR2hppVq1bJN998Y/nrBAAAANyq0NBQ7QTLsNXPUH/LzY8TFxYWysyZM7UzysTN18k0TZkxY4Z2BgAAAFDhPB7bTUivMU3TfoP6/vvvN1q3bq2doWbq1KnaCWXSoUMH45577tHOUJOWlmaLQ+QAAAAAlJ/tBrXIP96aya327t0rmzdvtsVQc/N1OnHihKxYsUI7AwAAAIAX2XJQx8XFSVBQkHaGGrscejVu3Dhx87H6drlOAAAAAMrHloM6MjLSGDhwoHaGmjlz5khubq7l71JXqVLFGDRokHaGmg8//FCys7Mtf50AAAAAlI8tB7WIuw+9ysvLk/nz52tnlImbr1NxcbFtDpEDAAAAcOtsO6gffPBBadiwoXaGGrs8TtyrVy+54447tDPUTJ8+XUzT5C41AAAA4EC2HdQej8eIj4/XzlCzceNG2b17t+WHmmEYrr5O+/btk40bN2pnAAAAAPAC2w5qkX88Tuzn56edoSY1NVU7oUwSEhJcfZ3s8jQBAAAAgFtj60Fdv359o3fv3toZambMmCHXrl2z/F3qunXrGg899JB2hpp58+bJ5cuXLX+dAAAAANwaWw9qEXcfenXu3DlZsmSJdkaZuPk6XblyRebOnaudAQAAAKCC2X5QDxo0SGrUqKGdocYujxM/+uijUrt2be0MNXa5TgAAAADKzvaDOjAw0BgzZox2hpqPP/5Yjh07ZvnHif39/Y1x48ZpZ6j57LPP5Ouvv7b8dQIAAABQdrYf1CLufpy4tLRUZsyYoZ1RJuPHjxfDMLQz1KSnp2snAAAAAKhAjhjUbdq0Me69917tDDWpqalSWlpq+bufzZo1Mzp37qydoSYzM9MWh8gBAAAAKBtHDGoRd9+lPnLkiKxevVo7o0zcfJ3Onz8vH3zwgXYGAAAAgArimEE9evRoCQsL085QY5dDr0aMGCHh4eHaGWrscp0AAAAA3JxjBnVoaKgxfPhw7Qw177//vpw7d87yjxNXrlzZGDVqlHaGmpUrV8o333xj+esEAAAA4OYcM6hF3P04cWFhocyaNUs7o0zcfJ1M05SMjAztDAAAAAAVwFGDunPnzkarVq20M9RMnz5dO6FMOnXqZNx9993aGWpSU1OlpKSEu9QAAACAzTlqUIuIJCYmaieo2blzp3zxxRe2GGoJCQnaCWpOnDghn3zyiXYGAAAAgNvkuEEdFxcnQUFB2hlq7HLo1dixY7lOAAAAAGzNcYO6evXqxoABA7Qz1MyaNUvy8vIsf5c6MjLSGDRokHaGmkWLFsmZM2csf50AAAAA/DjHDWoRdx96lZeXJwsWLNDOKBM3X6fCwkLJzMzUzgAAAABwGxw5qB966CFp0KCBdoYauzxO3KdPH7njjju0M9RMmzZNTNPkLjUAAABgU44c1B6Px4iPj9fOUPPpp5/Knj17LD/UDMMwYmNjtTPU7Nu3TzZt2qSdAQAAAKCcHDmoRf5xirTH49gP76bS0tK0E8okMTFR/Pz8tDPU2OVpAgAAAAA/5NjF2ahRI6N3797aGWoyMjKkqKjI8nep69WrZ/Tt21c7Q83cuXPl8uXLlr9OAAAAAH7IsYNaxN2HXp0+fVqWLFminVEmbr5OV65ckXnz5mlnAAAAACgHRw/qwYMHS40aNbQz1NjlceJHH31UatasqZ2hxi7XCQAAAMC/c/SgDgwMNGJiYrQz1CxfvlyOHz9u+ceJAwMDjbFjx2pnqNm8ebN8/fXXlr9OAAAAAP6dowe1iMj48eO1E9SUlJRIRkaGdkaZTJgwQQzD0M5Qk56erp0AAAAA4BY5flC3adPG6NSpk3aGmpSUFCktLbX83c8WLVoY9913n3aGmszMTLl27ZrlrxMAAACA7zl+UIu4+9Crw4cPy9q1a7UzysTN1+n8+fPy4YcfamcAAAAAuAWuGNQxMTESGhqqnaHGLodejRo1SsLCwrQz1NjlOgEAAAD4B1cM6tDQUGP48OHaGWref/99uXDhguUfJ65cubIxYsQI7Qw1K1eulKNHj1r+OgEAAAD4B1cMahF3P05cUFAgs2fP1s4oEzdfp9LSUklLS9POAAAAAFBGrhnUXbp0MVq1aqWdoWbatGnaCWVy//33G9HR0doZalJSUqSkpIS71AAAAIANuGZQi4gkJCRoJ6jZvn27bN261RZDLS4uTjtBzYkTJ+STTz7RzgAAAABQBq4a1PHx8RIUFKSdocYuh17FxcVxnQAAAABYnqsGdfXq1Y0BAwZoZ6iZPXu25OfnW/4udWRkpPHoo49qZ6hZtGiRnDlzxvLXCQAAAHA7Vw1qEXcfepWTkyPvvfeedkaZuPk6FRYWysyZM7UzAAAAANyE6wb1Qw89JA0aNNDOUGOXx4n79u0rDRs21M5QM23aNDFNk7vUAAAAgIW5blB7PB7DzYderVu3Tvbu3Wv5oebxeIz4+HjtDDV79+6VzZs3a2cAAAAAuAHXDWoRkcTERPF4XPmhi4jIjBkztBPKJCkpSfz8/LQz1NjlaQIAAADArVy5Khs1amT06tVLO0NNWlqaFBUVWf4udf369Y3evXtrZ6iZM2eO5ObmWv46AQAAAG7lykEt4u5Dr06fPi3Lli3TzigTN1+nK1euyNy5c7UzAAAAAPwI1w7qIUOGSPXq1bUz1NjlceJBgwZJjRo1tDPU2OU6AQAAAG7k2kEdGBhojBkzRjtDzdKlSyUrK8vyjxO7/Tpt3rxZtm/fbvnrBAAAALiRawe1iMj48eO1E9QUFxfb6nAyN0tPT9dOAAAAAHAdrh7Ubdq0MTp16qSdoWb69Om2eK/jNm3aGPfee692hpqMjAy5du2a5a8TAAAA4DauHtQi7r77eejQIVm3bp12Rpm4+TqdP39eFi1apJ0BAAAA4D+4flDHxMRIaGiodoYauxx6NXr0aAkLC9POUGOX6wQAAAC4iesHdWhoqDFs2DDtDDXvvfeeXLx40fKPE7v9On3yySdy9OhRy18nAAAAwE1cP6hF3P048dWrV+Xdd9/VzigTN1+n0tJSSUtL084AAAAA8C8Y1CLywAMPGC1bttTOUGOXx4m7dOlitGrVSjtDTUpKipSUlHCXGgAAALAIBvU/JSQkaCeo+fLLL+Wrr76yxVBz83U6ceKErFy5UjsDAAAAwD8xqP8pLi5OAgICtDPU2OUudXx8vAQFBWlnqLHLdQIAAADcgEH9TzVr1jQGDhyonaFm5syZkp+fb/m71NWrVzceeeQR7Qw1H374oZw9e9by1wkAAABwAwb1v3DzoVc5OTmycOFC7YwycfN1KiwslJkzZ2pnAAAAABAG9b956KGHpF69etoZauzyOPFDDz0kdevW1c5QM336dO0EAAAAAMKg/jd+fn5GfHy8doaatWvXysGDBy3/OLGfn58xePBg7Qw1u3fvls2bN1v+OgEAAABOx6D+D4mJieLxuPPTYpqmbd7reMCAAdoJqrhLDQAAAOhz53K8gcaNGxs9e/bUzlCTmpoqxcXFlr/7ee+994phGNoZaubOnSu5ubmWv04AAACAkzGor2P8+PHaCWqys7Nl2bJl2hk3VaVKFcPNP0edl5cn8+bN084AAAAAXI1BfR1DhgyR6tWra2eoSU1N1U4ok6ioKO0EVXY5RA4AAABwKgb1dQQGBhoxMTHaGWqWLFkip06dsvzjxGFhYdoJqjZt2iS7du2y/HUCAAAAnIpB/SPc/F7HxcXFkpGRoZ1xU6bJluQuNQAAAKCHQf0joqOjjY4dO2pnqElNTRXT4ov1woUL2gnqMjIy5Nq1a5a+TgAAAIBTMahvwM2Hk+3fv182bNignXFDWVlZ2gnqzp8/L4sWLdLOAAAAAFyJQX0Do0ePltDQUO0MNVY+nCw7O9s8c+aMdoYl8Ng3AAAAoINBfQNhYWHGsGHDtDPUzJ8/X3Jyciz5OPGmTZu0Eyzjk08+kWPHjlnyOgEAAABOxqC+icTERO0ENfn5+TJnzhztjOviMefvlZaWSlpamnYGAAAA4DoM6pt44IEHpEWLFtoZaqZPn66d8AMFBQXm4sWLtTMsJS0tTUpLS7lLDQAAAPgQg/omDMMw3HyXesuWLfL1119baqjNnTtXzp8/r51hKUePHpVPPvlEOwMAAABwFQZ1GcTGxkpAQIB2hpq33npLO+E7JSUl5quvvqqdYUlWPkQOAAAAcCIGdRnUqlXLGDBggHaGmlmzZklWVpYl7lJPmzZNdu/erZ1hSR988IGcO3fOEtcJAAAAcAMGdRklJSVpJ6gpKCiQ559/XjtDsrKyTCt0WFVhYaFkZmZqZwAAAACuwaAuo4cffljq1aunnaEmIyNDVq1apXb3s7i42Bw7dqxcvHhR+1NhabwnNQAAAOA7DOoy8vPzM+Lj47Uz1JimKePGjZPs7GyVUf3kk0/KmjVrtD8Nlrdr1y7ZvHkzj30DAAAAPmCYJq+9y+rQoUNm06ZNpbS0VDtFTdu2bWXt2rUSHh5u+OrX/N3vfme+9NJL2h+6bYwfP16mTZvms+sDANBx7tw5c+3atbJlyxbZv3+/7Nu3T86fPy9XrlyRvLw87Tw4WGBgoFSuXFmqVq0qDRo0kGbNmknr1q2le/fuEh0dLYZh8DrEwTp06GBu3bpVO8MSoqKiGNS3qk+fPuaqVau0M1Tdd999snjxYqlevbpX/7AsKSkxn3zySfnb3/6m/SHbSlhYmGRlZUloaChfzADAYU6dOmXOmjVL3n33Xdm2bZurv8kPa6pevboMGDBA4uLipFu3buLxeHg94jAM6u9FRUXxyPetcvPhZN/avHmzdOnSxavvT52VlWU+/PDDjOlyyM3NlXnz5mlnAAAq0LZt28zhw4eb9evXl1//+tfy5ZdfMqZhSefOnZP09HTp2bOnNG3aVN555x3z2rVr3MGDYzGob9HgwYOlWrVq2hnq9u/fL/fdd59MnjzZLCwsrLA/JEtLS8309HTz7rvvlpUrV2p/mLY1ffp07QQAQAU4cuSIOXjwYLNdu3ayYMECKSkp0U4CyuzQoUPy05/+VJo0aSIzZswwTR6NhQMxqG9RcHCwMWbMGO0MSygoKJBJkybJXXfdJZmZmWZRUVG5/5AsLS01P/zwQ7NTp06SkJAg586d0/7wbG3Tpk2ye/duvmgBgE2VlJSYkydPNlu3bi0ffPCBsENgZ1lZWRIfHy/du3eXffv28ZsZjsKgLofx48drJ1jK/v37JTY2Vho3bizPPvus+dlnn5nFxcU3/cOytLTU3LZtm/nCCy+YLVu2lEGDBgk/j1FxeAstALCnM2fOmP3795dJkyZJfn6+dg5QYTZs2CAdOnSQWbNmMarhGBxKVk6dOnUyv/jiC+0MywoPD5d27dpJs2bNpE6dOlKlShUpLCyUoqIiOX78uHzzzTfyxRdfSE5OjnaqY9WoUUNOnDghgYGBHAYCADbx5Zdfmo888ohkZ2drpwBe9eSTT8qf//xnDi2zIQ4l+x6nfN+Gd955x/zpT3+qnQHc0Pz582XYsGF8oQIAG1izZo05aNAguXz5snYK4BMxMTGSlpbGN/9thkH9PU75vg0xMTESEhKinQHcEI99A4A9bN682Rw4cCBjGq4ye/ZsiY2NldLSUu7wwbYY1OUUHh5uDB8+XDsDuKEVK1bI0aNH+SIFABa2Y8cOs1+/fnLlyhXtFMDn5s6dK0899ZR2BlBuDOrbwHtSw+pKS0tlxowZ2hkAgB9x6dIlc9CgQXLp0iXtFEDNX//6V0lPT+cGAGyJQX0bunbtarRs2VI7A7ih6dOnS0lJCV+kAMCCkpKS5NChQ9oZgLrHH3+ct/yELTGob1N8fLx2AnBDx48fl9WrV2tnAAD+w8yZM833339fOwOwhCtXrkhcXBw/Tw3bYVDfpri4OAkICNDOAG6Iw8kAwFouX75sPvfcc9oZgKVs2bJFpk+frp0B3BIG9W2qVauW8cgjj2hnADe0cOFCOXv2LN/xBQCLeOmllyQrK0s7A7Cc3/zmN5KXl8drFtgGg7oCcDgZrK6wsFBmzZqlnQEAEJELFy6Y77zzjnYGYEnnzp0T/vcBO2FQV4B+/fpJ/fr1tTOAG+KxbwCwhrfeektyc3O1MwDLeuONN6SwsJC71LAFBnUF8PPzM2JjY7UzgBvauXOnfPbZZ3xxAgBFpaWlZmpqqnYGYGmnTp2SZcuWaWcAZcKgriBJSUni8fDphLVxlxoAdK1Zs0aOHTumnQFYXmZmpnYCUCYswArSuHFjo0ePHtoZwA29++67kpuby11qAFDC22QBZbN06VK5du0ar1lgeQzqCsThZLC6vLw8WbBggXYGALjW6tWrtRMAW7h69aps3rxZOwO4KQZ1BRoyZIhUq1ZNOwO4IR77BgAdp06dMvfu3audAdjGmjVrtBOAm2JQV6Dg4GAjJiZGOwO4ob///e+ye/duHqECAB/bvn27dgJgKzt37tROAG6KQV3BJkyYoJ0A3FRaWpp2AgC4DnengVuzb98+7QTgphjUFSw6Otpo3769dgZwQ+np6Rz0AQA+dvjwYe0EwFYOHTqknQDcFIPaCzicDFZ37tw5WbJkiXYGALjK5cuXtRMAW8nPz5eioiJuAMDSGNReEBMTIyEhIdoZwA1xOBkA+FZubq52AmA7eXl52gnADTGovSAiIsIYNmyYdgZwQx9//LEcO3aM7/oCgI+UlpZqJwC2U1xcrJ0A3BCD2kt47BtWV1paKunp6doZAOAaoaGh2gmA7YSHh2snADfEoPaSbt26GS1atNDOAG4oLS1NSktLuUsNAD4QFhamnQDYSmBgoAQFBRnaHcCNMKi9KD4+XjsBuKEjR47IqlWrtDMAwBXq1q2rnQDYSr169bQTgJtiUHtRfHy8BAQEaGcAN8ThZADgG82bN9dOAGyF/83ADhjUXlSrVi3jkUce0c4AbmjhwoVy9uxZHvsGAC9r1aqVdgJgKwxq2AGD2ss4nAxWV1hYKLNnz9bOAADHa968udSsWVM7A7CNBx54QDsBuCkGtZf169dP6tevr50B3ND06dO1EwDA8QzDMLp3766dAdiCYRjC/15gBwxqL/Pz8zPGjRunnQHc0M6dO+Xzzz/nsW8A8LJ+/fppJwC20LFjR6levTonfMPyGNQ+MH78ePF4+FTD2jicDAC8b+jQoRISEqKdAVjemDFjtBOAMmHl+UDjxo15xAuWN3v2bMnLy+MuNQB4UXh4uDFo0CDtDMDSAgICZNSoUdoZQJkwqH2Ew8lgdXl5eTJ//nztDABwvF/96ldiGDzJCvyYMWPGSM2aNfkfCWyBQe0jQ4cOlapVq2pnADfEY98A4H1t27Y1HnzwQe0MwJI8Ho/8+te/1s4AyoxB7SPBwcEGPwsCq/v73/8uu3fv5rFvAPCyl156ifNVgOuIjY2VVq1acXcatsGf5D40YcIE7QTgptLS0rQTAMDxOnToYPzkJz/RzgAsJTw8XP77v/9bOwO4JQxqH4qOjjbat2+vnQHcUHp6uly7do271ADgZS+99JLUr19fOwOwjNdff13q1KnD3WnYCoPaxzicDFZ37tw5+eijj7QzAMDxqlatasybN08CAgK0UwB1w4cPlwkTJjCmYTsMah+LiYnh/SdheRxOBgC+cd999xkvv/yydgagqkWLFjJt2jTtDKBcGNQ+FhERYQwdOlQ7A/hRHo9HSkpKpLi4mMe+AcAHnnnmGePpp5/WzgBUREVFybJlyyQiIoK707AlBrUCHvuGFUVFRclzzz0nBw4ckOXLlxv+/v58YQMAH3nttdckISFBOwPwqZo1a8qyZcukUaNGvOaAbflrB7hR9+7djRYtWph79+7VToHLBQYGyoMPPiixsbEyePBgYUQDgA6Px2OkpKSYDRo0kN///vfaOYDXNWrUSD7++GNp1qwZrz1ga9yhVhIXF6edABdr3ry5vPLKK3L8+HFZvHixMXz4cO5IA4AywzCMF1980ZgyZYoEBwdr5wBe06tXL9m8eTNjGo7AoFaSkJDAqZ7wqUqVKsnw4cPlk08+kT179shzzz1n1KxZky9kAGAxycnJxubNm6VFixbaKUCF8vf3l//3//6frFixQmrVqsVrEDgCg1pJrVq1jP79+2tnwAXat28vU6ZMkdOnT8u8efOMPn36GIZh8EUMACzs7rvvNrZv3y5/+ctfJDQ0VDsHuG0PPPCAbN26VX7/+98bfn5+vA6BYzCoFXE4GbylatWqkpycLNu2bZMtW7YYycnJRlhYGF+8AMBGAgICjF/+8pfGrl275Oc//zmPgcOW2rZtKwsWLJD169dLdHQ0r0XgOIZp8s44WoqLi82GDRtKVlaWdgocwOPxSK9evSQ5OVkee+wxCQwM5IsWADhIdna2mZqaKpmZmcLBprCySpUqyaBBgyQ+Pl769u0rPBnnLB06dDC3bt2qnWEJUVFRDGptzz//vPnyyy9rZ8DG6tWrJ2PGjJGf/OQnvO0EALjEl19+aa5atUpWr14tX3zxhZw/f147CS4WGBgozZs3l+7du0vPnj2lT58+Eh4ezmsSh2JQf49BbQGHDh0y77zzTuE64FYEBQXJo48+KuPGjZP+/fsLP4sEAO52/vx5c9++fXLhwgXJzc2V3Nxc7SQ4WFBQkISGhkrVqlWlQYMG0qhRI95600UY1N+Liorifai1NWnSxOjevbu5du1a7RTYQKtWrSQ2NlaSkpKkevXqfOECAIiISGRkpNG5c2ftDABwHQa1BSQlJQmDGj8mPDxcRo0aJePGjZMHHniAEQ0AAABYBI98W0BBQYEZFRUlFy9e1E6BhbRv316Sk5NlzJgxUrlyZYY0AAAA1PHI9/eioqJ42ywrCA4ONmJiYrQzYAG1a9eWJ554Qnbs2PHd210xpgEAAABrYlBbRHJysnYClHg8HunTp4/MmzdPjh07Jm+++abRpk0bRjQAAABgcfwMtUVER0cb7dq1M7/88kvtFPhI06ZNJSYmRhITE6VBgwYMaAAAAMBmGNQWkpSUJAxqZwsODpaBAwdKcnKy9O7dWwzDYEgDAAAANsWhZBaSk5NjRkVFSX5+vnYKKti3b3c1fvx4iYyMZEQDAADAljiU7Hu8D7XFREREGEOGDDFnzpypnYIKEBERISNHjpSJEydKu3btGNEAAACAw3AomcUkJSVpJ+A2eDwe6dKli0yZMkWysrJkypQpBmMaAAAAcCbuUFtM9+7dpWnTpnLgwAHtFNyCqKgoGTdunEyYMEHuuOMOBjQAAADgAtyhthjDMIyEhATtDJSBn5/fd293dfToUXnllVcMxjQAAADgHhxKZkHZ2dlmgwYNpKioSDsF19G8eXNJSEiQhIQEqVmzJgMaAAAArsGhZN/jUDKLql27ttGvXz9z0aJF2in4J97uCgAAAMB/4pFvi+JwMmto3769TJkyRc6cOSPz5s0z+vTpYzCmAQAAAIhwKJll9e/fX6KioiQrK0s7xXWqVq0qw4cPl5/97Gdy9913M54BAAAAXBd3qC3K39/fiIuL085wDY/HI3369JEZM2bIyZMnZcqUKQZjGgAAAMCNcCiZhR06dMi88847hWvkPfXq1ZMxY8bIxIkTpXHjxgxoAAAA4AY4lOx7HEpmcU2aNDG6d+9url27VjvFUYKCguTRRx+VcePGSf/+/cXPz48hDQAAAOCWMagtLikpSRjUFaNly5YSFxcniYmJUqNGDUY0AAAAgNvCI98Wd/XqVbNu3bpy8eJF7RRbCg8Pl1GjRsm4cePkgQceYEQDAAAAt4FHvr8XFRXFoWRWV6lSJWP06NHaGbbz7dtdZWVlyZQpUwzGNAAAAICKxqC2gYkTJ2on2ELt2rXliSeekB07dsiWLVuM5ORko3LlygxpAAAAAF7Bz1DbQHR0tNG2bVvzq6++0k6xHI/HI7169ZLk5GQZNGiQBAQEMKC9pLi42PT39+fzCwAAAPwTd6htIikpSTvBUpo2bSovvPCCHD58WD755BNj+PDhBmO64l2+fNnMyMgw+/bta/72t7/VzgEAAAAshUPJbCInJ8eMioqS/Px87RQ1wcHBMnDgQElOTpbevXuLYRgMaC/ZunWrOXXqVJk9e7bk5eWJiEitWrXk+PHjPAUAAADgYhxK9j0OJbORiIgIY8iQIdoZKlq1aiWvvPKKnDhxQubNm2f06dPHYExXvIsXL5pTp041o6OjzQ4dOsjUqVO/G9MiIqdPn5alS5dqZwIAAACWwaC2ETc99h0RESHJycmydetW2bVrl/Hcc88ZkZGRjOgKVlpaaq5cudIcMWKEWatWLZk4caLs2LHjR//5lJQU7WQAAADAMjiUzEa6d+8uTZs2lQMHDmineIXH45H7779fYmNjZezYsRISEsKA9pITJ06Ys2bNknfeeUeOHDlS5n9v6dKlcvz4cbN+/fpcGwAAALged6htxDAMIyEhQTujwkVFRclzzz0n+/fvl08//dRITk42GNMV79q1a+b8+fPNgQMHmo0aNZJJkybd0pgWESkpKZHMzEztDwUAAACwBA4ls5ns7GyzQYMGUlRUpJ1yW/z8/KRnz56SnJwsgwcPFt6OyXv27NljzpgxQ1JSUuTcuXO3/d9r3LixHDx4UDweD9cMAADAZTiU7HtRUVE88m03tWvXNh5++GFz8eLF2inl0rx5c0lISJCEhASpWbMmg8xLLl++bM6ZM0cyMjLk73//e4X+tw8fPixr166VXr16aX+YAAAAgCoGtQ0lJSWJnQY1b3flO9d7uytvSElJYVADAADA9Xjk24aKi4vNhg0bSlZWlnbKDbVv316Sk5Nl9OjREhYWxoj2kuzsbHPu3LmSkpJywxO6K1JwcLCcPHlSqlWrxnUFAABwER75/h7vQ21T/v7+RmxsrHbGdVWtWlWSk5Nl27ZtsmXLFiM5OdlgTFe8f327qwYNGsiTTz7pszEtIlJQUCCzZs3S/jQAAAAAqrhDbVOHDh0y77zzTrHC9fN4PNKrVy8ZN26cDB8+XCpVqsSA9pLjx4+bs2fPlv/7v/+To0ePqrbcddddsn37dq41AACAi3CH+nscSmZjTZo0Mbp162auW7dOraFu3boyduxYmThxojRu3Jhh5SXXrl0zFy1aJFOnTpVVq1ZZ4psoIiI7duyQLVu2mB06dODaAwAAwJUY1DaWlJQkvh7UQUFB8uijj8q4ceOkf//+4ufnx5jykt27d5sZGRkV9nZX3pCSkiIdOnTQzgAAAABU8Mi3jV29etWsW7euXLx40eu/VsuWLSUuLk4SExOlRo0ajGgv8ebbXXlDRESEZGVlSUhICL8nAAAAXIBHvr/HoWQ2V6lSJWPUqFFe+++Hh4fLuHHj5JNPPpHdu3cbzz33nMGY9o6tW7eaEydONKOiomTixIm2GNMiIjk5OTJ//nztDAAAAEAFd6htbuvWrWZFP3L77dtdxcTESGhoKAPaS759u6vp06fLzp07tXPKrWvXrrJ+/Xp+nwAAALgAd6i/x6FkDtC+fXujbdu25ldffXVb/53atWvLiBEjZPz48XLXXXcxjryktLTUXL16tUydOlU++OADKSoq0k66bRs2bJA9e/aYLVu25PcNAAAAXIVHvh0gMTGxXP+ex+ORPn36yLx58+TYsWPy5ptvGoxp7zh+/Lg5efJks0mTJtK3b1+ZP3++I8b0t9LT07UTAAAAAJ/jkW8HyMnJMaOioiQ/P79M/3z9+vUlJiZGfvrTn0rDhg0Z0F5i1be78oZatWrJ8ePHJSAggN9PAAAADsYj39/jkW+HiIiIMAYPHmzOmjXrR/+Z4OBgGThwoCQnJ0vv3r3FMAyGj5fY4e2uKtrp06dlyZIlMnjwYO0UAAAAwGcY1A6RlJQk1xvUrVq1ktjYWBk/frxERkYyor3Ebm935Q0pKSkMagAAALgKg9ohevToIXfeeaccPHhQIiIiZOTIkTJx4kRp164dI9qLtm7dak6dOlVmzZolV65c0c5RtXz5cjl+/LhZv359fs8BAADAFRjUDmEYhvHSSy+ZJSUlMmTIEAkODmbUeIlT3u6qopWUlMiMGTPkt7/9rXYKAAAA4BMcSgaUgRPf7sobGjduLAcPHhSPx8M3dAAAAByIQ8m+x6FkwE0cP37cnD17tvzv//6vHDt2TDvH8g4fPixr1qyR3r17a6cAAAAAXsegBv6Dm97uyhtSUlIY1AAAAHAFBjXwT7t27TIzMzNl+vTpcv78ee0c23rvvffk3LlzZvXq1XnsGwAAAI7m0Q4ANOXk5JhTp041O3ToYLZp00YmT57MmL5NhYWFMnv2bO0MAAAAwOsY1HClrVu3mhMnTjTr1q0rEydOFA5WqFjTp0/XTgAAAAC8jke+4RqnTp0yMzIyZPr06XLw4EHtHEfbsWOHfPHFF2bHjh157BsAAACOxaCGo/F2V3pSUlKkY8eO2hkAAACA1/A+1HCkAwcOmLNmzZK0tDTe7kpJaGionDp1SkJDQ7lLDQAA4BC8D/X3eB9qOEpBQYG5ePFi3u7KIvLy8mTBggUSHx+vnQIAAAB4BYeSwfZ27dplTpo0yaxXr56MGDFCVq5cyZi2iJSUFO0EAAAAwGu4Qw1bysnJMefOnStTpkyRL7/8UjsHP+LTTz+VPXv2mC1btuSxbwAAADgOd6hhK//5dleMaetLS0vTTgAAAAC8gkPJYHm83ZW91axZU06cOCEBAQHcpQYAALA5DiX7HoeSwbJKSkrMNWvW8HZXDnDmzBlZvHixDBkyRDsFAAAAqFAMalgKb3flTCkpKQxqAAAAOA6DGup4uyvnW758uRw7dsxs0KABj30DAADAMTiUDGp4uyv3KC0tlRkzZmhnAAAAABWKQQ2fysnJMadOnWq2b9/ebNOmjUyePFnOnz+vnQUfSE1NldLSUr5jAgAAAMfgkW/4xNatW82pU6fKzJkzJT8/XzsHCo4cOSKrV6+WPn36aKcAAAAAFYJBDa/59u2upk2bJt988412DiwgJSWFQQ0AAADHYFCjQv3r210tXLhQiouLtZNgIe+//76cO3fOrF69OoeTAQAAwPb4GWpUiP3795svvvii2bhxY+nbt6/Mnz+fMY0fKCwslFmzZmlnAAAAABWCQY1yKygoMOfPn2/27dvXbNGihfz+97+X48ePa2fB4qZPn66dAAAAAFQIHvnGLdu6dauZkZEhM2fOlAsXLmjnwGZ27twpn3/+udmpUyce+wYAAICtMahRJjk5OebcuXPlnXfeka+++ko7BzaXkpIinTp10s4AAAAAbothmrwtLK6vtLTU3Lhxo2RmZvJ2V6hQoaGhkpWVJWFhYdylBgAAsJEOHTqYW7du1c6whKioKO5Q4/pycnLMdu3ayaFDh7RT4EB5eXmyYMECSUhI0E4BAAAAyo1DyXBdERERRu3atbUz4GApKSnaCQAAAMBtYVDjRyUlJWknwMH+/ve/y+7du/mZEwAAANgWgxo/auTIkRIeHq6dAQdLS0vTTgAAAADKjUGNH1W5cmVjxIgR2hlwsPT0dLl27Rp3qQEAAGBLDGrcEI99w5vOnTsnS5Ys0c4AAAAAyoVBjRu67777jOjoaO0MOBiHkwEAAMCuGNS4qfj4eO0EONjHH38sR48e5bFvAAAA2A6DGjcVGxsrQUFB2hlwqNLSUpkxY4Z2BgAAAHDLGNS4qcjISOOxxx7TzoCDTZ8+XUpKSrhLDQAAAFthUKNMOJwM3nT8+HFZvXq1dgYAAABwSxjUKJM+ffpIw4YNtTPgYBxOBgAAALthUKNMPB6PkZCQoJ0BB1u4cKGcPXuWx74BAABgGwxqlFlSUpL4+flpZ8ChCgsLZdasWdoZAAAAQJkxqFFm9erVM/r06aOdAQfjsW8AAADYCYMat4TDyeBNO3fulM2bN/PYNwAAAGyBQY1b8thjj0nNmjW1M+Bg3KUGAACAXTCocUsCAwONsWPHamfAwebMmSO5ubncpQYAAIDlMahxyyZMmCCGYWhnwKHy8vJk3rx52hkAAADATTGocctatGhh3HfffdoZcDAe+wYAAIAdMKhRLhxOBm/atGmT7Nq1i8e+AQAAYGkMapTLqFGjJCwsTDsDDpaamqqdAAAAANwQgxrlUrlyZWPkyJHaGXCwGTNmyLVr17hLDQAAAMtiUKPceOwb3nT+/HlZtGiRdgYAAADwoxjUKLf77rvPiI6O1s6Ag3E4GQAAAKyMQY3bEh8fr50AB/vkk0/k6NGjPPYNAAAAS2JQ47bExsZKUFCQdgYcqrS0VNLS0rQzAAAAgOtiUOO2REZGGo8++qh2BhwsJSVFSkpKuEsNAAAAy2FQ47ZxOBm86cSJE7Jy5UrtDAAAAOAHGNS4bX379pWGDRtqZ8DBOJwMAAAAVsSgxm3zeDwGh5PBmz788EM5e/Ysj30DAADAUhjUqBDjx48XPz8/7Qw4VGFhoWRmZmpnAAAAAP+GQY0KUa9ePaNPnz7aGXCwadOmaScAAAAA/4ZBjQrD4WTwpr1798qmTZt47BsAAACWwaBGhXnsscekRo0a2hlwMA4nAwAAgJUwqFFhAgMDjbFjx2pnwMHmzJkjubm53KUGAACAJTCoUaGSk5O1E+BgV65ckblz52pnAAAAACLCoEYFa9GihXHfffdpZ8DBeOwbAAAAVsGgRoXjcDJ40+bNm2X79u089g0AAAB1DGpUuFGjRklYWJh2BhwsPT1dOwEAAABgUKPihYaGGiNGjNDOgINlZGTItWvXuEsNAAAAVQxqeAWPfcObzp8/Lx9++KF2BgAAAFyOQQ2vuP/++43WrVtrZ8DBOJwMAAAA2hjU8JrExETtBDjYypUr5ejRozz2DQAAADUManhNXFycBAUFaWfAoUpLSyUtLU07AwAAAC7GoIbXREZGGgMHDtTOgIOlpKRISUkJd6kBAACggkENr+JwMnjTiRMn5JNPPtHOAAAAgEsxqOFVDz74oDRs2FA7Aw7G4WQAAADQwqCGV3k8HiM+Pl47Aw62aNEiOXPmDI99AwAAwOcY1PC6pKQk8fPz086AQxUWFkpmZqZ2BgAAAFyIQQ2vq1+/vtG7d2/tDDjYtGnTxDRN7lIDAADAp/y1A+AOSUlJsmLFCu0MONS+fftk06ZN0rlzZ+0UuMSVK1fMa9euyaVLl7RTAMDnqlSpIpUrV5agoCBDuwXQxqCGTwwaNEhq1KghZ8+e1U6BQ6WkpDCoUeHOnz9vrlu3TtavXy+7d++WAwcOyLFjx6S0tFQ7DQDU+fv7m40bN5YWLVpI69atpVu3btK1a1cJDQ1laMM1DJ6ShK889dRT5l/+8hftDDhU5cqVJSsrS8LDw/kijtty6dIlc/78+ZKRkSEbN25kPAPALfD395fevXtLbGysDB48WCpVqsTXZYfp0KGDuXXrVu0MS4iKiuJnqOE7vCc1vOnKlSsyd+5c7QzYWFZWlvnMM8+Y9erVk+TkZPn0008Z0wBwi4qLi+Xjjz+WMWPGSN26deWFF14wL1y4wB08OBaDGj7Tpk0b495779XOgIPxntQoj6tXr5q//e1vzTvuuEPeeOMNuXLlinYSADjCxYsX5Q9/+IM0atRIXn31VbOoqIhhDcdhUMOnuEsNb/rss8/k66+/5os1ymz16tVm69at5U9/+pMUFBRo5wCAI+Xm5spzzz0nbdu2lc8//5yv03AUBjV8avTo0RIWFqadAQdLT0/XToANmKZpTp482XzwwQfl8OHD2jkA4Aq7du2SLl26yOTJk03e7hJOwaCGT4WGhhrDhw/XzoCDZWZmSkFBAV+k8aMKCgrMIUOGyKRJk6SkpEQ7BwBcpbi4WCZNmiRxcXHCI+BwAgY1fI7HvuFN58+flw8//FA7AxaVm5tr9uvXTz744APtFABwtczMTBk0aJDk5+czqmFrDGr4XOfOnY1WrVppZ8DBOJwM11NYWGgOHTpU1q5dq50CABCRpUuXyvDhw6W4uJhRDdtiUENFYmKidgIcbOXKlfLNN9/wxRnfMU3THDt2rHzyySfaKQCAf7F06VJJTk7WzgDKjUENFXFxcRIUFKSdAYcyTVMyMjK0M2Ahr732msyfP187AwBwHWlpafK///u/fCMctsSghorq1asbAwYM0M6Ag6WmpkpJSQlfnCGbN282f/vb32pnAABu4JlnnpFt27bxdRu2w6CGGg4ngzedOHFCVqxYoZ0BZcXFxWZycrIUFRVppwAAbqCgoEBiY2P5eWrYDoMaah566CFp0KCBdgYcjMPJ8MYbb8iOHTu0MwAAZbBjxw555513tDOAW8KghhqPx2PEx8drZ8DBPvzwQ8nOzuY73S518eJF86WXXtLOAADcghdeeEFyc3P52g3bYFBD1fjx48XPz087Aw5VXFwsM2fO1M6Akr/97W+Sm5urnQEAuAUXLlyQ//u//9POAMqMQQ1V9evXN3r16qWdAQebPn26mKbJd7pdpqCgwHzrrbe0MwAA5fDGG29IYWEhX7thCwxqqONwMnjTvn37ZOPGjdoZ8LElS5bI2bNntTMAAOVw+vRpWbZsmXYGUCYMaqgbPHiw1KhRQzsDDsbhZO7Do/4AYG+ZmZnaCUCZMKihLjAw0BgzZox2Bhxszpw5cunSJR4dc4mCggLz448/1s4AANyGpUuXyrVr1/jaDctjUMMSeOwb3nT16lWZN2+edgZ8ZOPGjVJQUKCdAQC4DVevXpXPPvtMOwO4KQY1LKFNmzbGvffeq50BB+Oxb/dYv369dgIAoAKsXbtWOwG4KQY1LIO71PCmzz//XLZt28ajYy6wY8cO7QQAQAXYuXOndgJwUwxqWMbo0aMlLCxMOwMOlpaWpp0AH9i3b592AgCgAvDnOeyAQQ3LCA0NNYYNG6adAQebOXOmFBQUcJfa4Q4fPqydAACoAIcOHdJOAG6KQQ1L4bFveNOFCxdk4cKF2hnwoqKiIjM/P187AwBQAfLy8qS4uJhvhMPSGNSwlC5duhitWrXSzoCDcTiZs+Xm5monAAAqUF5ennYCcEMMalhOQkKCdgIcbPXq1fLNN9/w3W6HKi4u1k4AAFSgwsJC7QTghhjUsJz4+HgJCgrSzoBDmaYp6enp2hnwktDQUO0EAEAFCg8P104AbohBDcupXr26MWDAAO0MOFhaWpqUlJRwl9qBQkJCDH9/f+0MAEAFCAgIkODgYEO7A7gRBjUsicPJ4E0nT56U5cuXa2fAS+rUqaOdAACoAHXr1tVOAG6KQQ1Leuihh6RBgwbaGXAwDidzrubNm2snAAAqAH+eww4Y1LAkj8djxMXFaWfAwRYvXiynTp3isW8HatGihXYCAKACMKhhBwxqWFZiYqJ4PPwWhXcUFxdLZmamdga8oEuXLtoJAIAK8MADD2gnADfFWoFlNWrUyOjVq5d2BhwsJSVFTNPkLrXD9OrVSwyDM2wAwM4Mw5AePXpoZwA3xaCGpXE4Gbxp//798umnn2pnoILVrFnTaNeunXYGAOA2dOzYUWrUqMF3R2F5DGpY2pAhQ6R69eraGXAwDidzpjFjxmgnAABuw9ixY7UTgDJhUMPSAgMDDV4Yw5vmzZsnly5d4rFvh4mJiZGAgADtDABAOQQGBsrIkSO1M4AyYVDD8saPH6+dAAe7evWqzJkzRzsDFaxWrVpGTEyMdgYAoBxiY2OlZs2aPO4NW2BQw/LatGljdOrUSTsDDsZj3870X//1X7xTAADYjJ+fnzz77LPaGUCZ8UoDtsDhZPCmLVu2yLZt23js22GaN29uxMfHa2cAAG5BUlKSNG3alLvTsA0GNWwhJiZGQkNDtTPgYKmpqdoJ8IJXX32Vgw0BwCYiIyPlT3/6k3YGcEsY1LCF0NBQY9iwYdoZcLDMzEy5evUqd6kdJjIy0nj99de1MwAAZfDmm29K9erVuTsNW2FQwzZ47BvedOnSJVm4cKF2BrwgLi7OiI2N1c4AANxAYmKijBkzhjEN22FQwzYeeOABo2XLltoZcDAOJ3Out99+W6Kjo7UzAADX0bZtW3nrrbe0M4ByYVDDVhISErQT4GBr1qyRgwcP8ti3A4WGhhqffPKJNG3aVDsFAPAvmjRpIkuXLpWQkBDuTsOWGNSwlbi4OAkICNDOgEOZpinp6enaGfCSmjVrGh999JE0aNBAOwUAICKNGjWSFStWSO3atRnTsC0GNWylZs2axsCBA7Uz4GApKSlSXFzMXWqHatq0qbF582a5++67tVMAwNVat24tGzZskDvuuIMxDVtjUMN2OJwM3pSdnS3Lly/XzoAX1alTx1i7dq0MHjxYOwUAXGn48OGyceNGqVevHmMatseghu08/PDDPLIJr+JwMuerUqWK8d5778lf//pXCQkJ0c4BAFeoXLmyvP322zJv3jwjPDycMQ1HYFDDdjweD2+BA69asmSJnDp1ise+Hc4wDOMXv/iFsX//fhk3bpx2DgA42oABA2TXrl3ys5/9jCENR2FQw5YSExPF4+G3L7yjuLhYMjIytDPgI3Xr1jUyMjKMDRs2yIABA8QweK0HABWlS5cusmrVKlm8eLHRsGFD/oCF47BIYEuNGzc2evbsqZ0BB0tNTRXTNLlL7SIPPPCAsXjxYuOrr76SJ598UmrVqqWdBAC2VLt2bXnqqadk27Zt8umnnxq9evViSMOxDF4vwq7effddMyYmRjsDDrZu3Trp1q0bLwJcqqSkxPzss89kzZo1sn79etm1a5ecPHlSOwsALKdevXrSqlUr6datm/Tq1Us6deokfn5+fP10qA4dOphbt27VzrCEqKgoBjXsq7Cw0Kxbt66cO3dOOwUOFRsbKzNmzOAFAb6Tm5trHj16VPLy8iQvL08uXryonQQAPle1alUJDQ2V0NBQadSokYSGhvK10kUY1N9jUMP2fvnLX5p//etftTPgUJUqVZKsrCypUqUKLxQAAACEQf2voqKi+Blq2Nv48eO1E+BgV69elXfffVc7AwAAABbFoIat3XXXXUbHjh21M+BgvCc1AAAAfgyDGraXlJSknQAH27p1q3z11Vf8bAwAAAB+gEEN24uJiZHQ0FDtDDhYamqqdgIAAAAsiEEN2wsLCzOGDh2qnQEHy8zMlPz8fO5SAwAA4N8wqOEIPPYNb8rJyZGFCxdqZwAAAMBiGNRwhK5duxotW7bUzoCDcTgZAAAA/hODGo4RHx+vnQAHW7t2rRw8eJDHvgEAAPAdBjUcIy4uTgICArQz4FCmaUpaWpp2BgAAACyEQQ3HqFWrljFgwADtDDhYamqqFBUVcZcaAAAAIsKghsNwOBm8KTs7W5YvX66dAQAAAItgUMNR+vXrJ/Xr19fOgINxOBkAAAC+xaCGo3g8HiMuLk47Aw720UcfSVZWFo99AwAAgEEN50lMTBSPh9/a8I7i4mLJyMjQzgAAAIAFsDrgOI0bNzZ69uypnQEHmzZtmpimyV1qAAAAl2NQw5E4nAzedOjQIVm/fr12BgAAAJQxqOFIQ4YMkerVq2tnwME4nAwAAAAMajhSUFCQMXr0aO0MONiCBQvk4sWLPPYNAADgYgxqONaECRO0E+BgV69elXfffVc7AwAAAIoY1HCsu+66y+jQoYN2BhxsypQp2gkAAABQxKCGo3E4Gbxp+/bt8tVXX/HYNwAAgEsxqOFoMTExEhISop0BB+NwMgAAAPdiUMPRwsPDjeHDh2tnwMFmzpwp+fn53KUGAABwIQY1HI/HvuFNOTk58v7772tnAAAAQAGDGo7XtWtXo2XLltoZcDAe+wYAAHAnBjVcIT4+XjsBDrZu3To5cOAAj30DAAC4DIMarhAXFycBAQHaGXAo0zQlNTVVOwMAAAA+xqCGK9SqVct45JFHtDPgYOnp6VJUVMRdagAAABdhUMM1OJwM3pSdnS1Lly7VzgAAAIAPMajhGv369ZP69etrZ8DBOJwMAADAXRjUcA0/Pz8jNjZWOwMOtmzZMsnKyuKxbwAAAJdgUMNVkpKSxOPhtz28o7i4WGbMmKGdAQAAAB9hWcBVGjdubPTo0UM7Aw42ffp0MU2Tu9QAAAAuwKCG63A4Gbzp0KFDsnbtWu0MAAAA+ACDGq4zZMgQqVatmnYGHIzDyQAAANyBQQ3XCQ4ONmJiYrQz4GDvvfeeXLx4kce+AQAAHI5BDVeaMGGCdgIcrKCgQGbNmqWdAQAAAC9jUMOVoqOjjfbt22tnwMGmTZumnQAAAAAvY1DDtTicDN60fft22bp1K499AwAAOBiDGq4VExMjISEh2hlwMA4nAwAAcDYGNVwrIiLCGDZsmHYGHGz27NmSn5/PXWoAAACHYlDD1XjsG96Uk5MjCxYs0M4AAACAlzCo4WrdunUzWrRooZ0BB+OxbwAAAOdiUMP14uPjtRPgYOvXr5e9e/fy2DcAAIADMajhevHx8RIQEKCdAQdLT0/XTgAAAIAXMKjherVq1TL69++vnQEHS09Pl6KiIu5SAwAAOAyDGhAOJ4N3nT59Wj766CPtDAAAAFQwBjUgIv369ZOoqCjtDDgYh5MBAAA4D4MaEBF/f3+Dw8ngTcuWLZPjx4/z2DcAAICDMKiBfxo/frwYhqGdAYcqKSmRjIwM7QwAAABUIAY18E+NGzc2evTooZ0BB0tJSZHS0lLuUgMAADgEgxr4FxxOBm86fPiwrF27VjsDAAAAFYRBDfyLoUOHStWqVbUz4GAcTgYAAOAcDGrgXwQHBxsxMTHaGXCw999/Xy5cuMBj3wAAAA7AoAb+Q3JysnYCHKygoEBmzZqlnQEAAIAKwKAG/kN0dLTRrl077Qw42LRp07QTAAAAUAEY1MB1cDgZvGnHjh2yZcsWHvsGAACwOQY1cB1jxoyRkJAQ7Qw4GIeTAQAA2B+DGriOiIgIY+jQodoZcLDZs2dLfn4+d6kBAABsjEEN/Age+4Y3Xb58WebPn6+dAQAAgNvAoAZ+RPfu3Y0WLVpoZ8DBeOwbAADA3hjUwA3ExcVpJ8DBNmzYIHv27OGxbwAAAJtiUAM3kJCQIAEBAdoZcLD09HTtBAAAAJQTgxq4gVq1ahn9+/fXzoCDzZgxQ4qKirhLDQAAYEMMauAmOJwM3nT69GlZsmSJdgYAAADKgUEN3ES/fv0kKipKOwMOxuFkAAAA9sSgBm7C39/f4HAyeNOyZcvk+PHjPPYNAABgMwxqoAzGjx8vhmFoZ8ChSktLZcaMGdoZAAAAuEUMaqAMmjRpYnTv3l07Aw6WmpoqpaWl3KUGAACwEQY1UEYcTgZvOnz4sKxZs0Y7AwAAALeAQQ2U0bBhw6Rq1araGXAwDicDAACwFwY1UEbBwcFGTEyMdgYc7L333pNz587x2DcAAIBNMKiBW5CcnKydAAcrLCyU2bNna2cAAACgjBjUwC2Ijo422rVrp50BB5s+fbp2AgAAAMqIQQ3cIg4ngzft2LFDvvjiCx77BgAAsAEGNXCLxowZIyEhIdoZcDAOJwMAALAHBjVwiyIiIowhQ4ZoZ8DBZs2aJXl5edylBgAAsDgGNVAOPPYNb8rLy5MFCxZoZwAAAOAmGNRAOXTv3l2aNm2qnQEH47FvAAAA62NQA+VgGIaRkJCgnQEH+/TTT2XPnj089g0AAGBhDGqgnBISEiQgIEA7Aw6WlpamnQAAAIAbYFAD5VS7dm2jX79+2hlwsLS0NLl27Rp3qQEAACyKQQ3cBg4ngzedO3dOPvroI+0MAAAA/AgGNXAb+vfvL1FRUdoZcDAOJwMAALAuBjVwG/z9/Y3Y2FjtDDjY8uXL5dixYzz2DQAAYEEMauA2TZgwQQzD0M6AQ5WWlsqMGTO0MwAAAHAdDGrgNjVp0sTo1q2bdgYcLDU1VUpLS7lLDQAAYDEMaqACcDgZvOnIkSOyatUq7QwAAAD8BwY1UAGGDRsmVatW1c6Ag3E4GQAAgPUwqIEKUKlSJWP06NHaGXCwhQsXytmzZ3nsGwAAwEIY1EAF4bFveFNhYaHMnj1bOwMAAAD/gkENVJB27doZbdu21c6Ag02fPl07AQAAAP+CQQ1UIO5Sw5t27twpn332GY99AwAAWASDGqhAY8eOlZCQEO0MOBiHkwEAAFgHgxqoQBEREcbgwYO1M+Bg7777ruTm5nKXGgAAwAIY1EAF47FveFNeXp7Mnz9fOwMAAADCoAYqXI8ePeTOO+/UzoCD8dg3AACANTCogQpmGIaRkJCgnQEH27hxo+zevZvHvgEAAJQxqAEvSExMFH9/f+0MOFhqaqp2AgAAgOsxqAEvqF27ttGvXz/tDDjYjBkz5Nq1a9ylBgAAUMSgBryEw8ngTefOnZPFixdrZwAAALgagxrwkkceeUTq1KmjnQEHS0tL004AAABwNQY14CX+/v5GbGysdgYcbMWKFXL69Gke+wYAAFDCoAa8KCkpSQzD0M6AQxUXF/Oe1AAAAIoY1IAXNW3a1Ojatat2Bhxs4cKF2gkAAACuxaAGvIzDyeBNGzZskEuXLvHYNwAAgAIGNeBlw4cPlypVqmhnwKGKiopk5cqV2hkAAACuxKAGvKxSpUrG6NGjtTPgYBs2bNBOAAAAcCUGNeADPPYNb2JQAwAA6GBQAz7Qvn17o23bttoZcKjt27dLfn4+P0cNAADgYwxqwEcSExO1E+BQJSUlsmvXLu0MAAAA12FQAz4yZswYqVSpknYGHOrrr7/WTgAAAHAdBjXgI1WrVjWGDBminQGHOnTokHYCAACA6zCoAR/icDJ4S1ZWlnYCAACA6zCoAR/q0aOH3HnnndoZcKBTp05pJwAAALgOgxrwIcMwjISEBO0MOBCDGgAAwPcY1ICPJSYmir+/v3YGHIZBDQAA4HsMasDHateubTz88MPaGXCY8+fPS3FxMe9FDQAA4EMMakABh5OhopmmKaWlpdoZAAAArsKgBhQMGDBA6tSpo50BhzEMQzsBAADAVRjUgAJ/f38jNjZWOwMAAADAbWBQA0oSExO5o4gKxe8nAAAA32JQA0qaNWtmdO3aVTsDDsKgBgAA8C0GNaCIw8lQUfz8/MTj4Y90AAAAX+LVF6Bo+PDhUqVKFe0MOECtWrXE4BY1AACAT/lrBwBuVqlSJWPUqFHmO++8o50Cm6tbt652Ahzm4sWL5tGjR+XKlSty5coVycnJ0U4CYBFVq1aVypUrS+XKlaVRo0YSHh7ON3ThWgxqQFlSUpIwqHG7oqKitBNgY4WFheamTZtk9erVsn79etm1a5ecPXtWOwuATdStW9ds3bq1dO/eXXr16iUdO3YUPz8/RjZcgUENKOvQoYNxzz33mNu2bdNOgY0xqFEeW7ZsMdPT0+Xdd9+VCxcuaOcAsKmTJ0/KyZMnZcWKFSIiUqdOHRk7dqwZHx8vrVq1YljD0fgZasACEhMTtRNgcwxq3IpPP/3UHDhwoNmxY0d5++23GdMAKtSpU6fktddek9atW0vfvn3Nzz77zNRuAryFQQ1YwNixYyU4OFg7AzbWsGFD7QTYwKFDh8z+/fubXbt2lSVLlmjnAHCBlStXyn333ScDBw40T5w4wbCG4zCoAQuoWrWqMWTIEO0M2Fj79u21E2Bhpmmab7zxhtmmTRtZtmyZdg4AF1qyZIncddddkpmZyaiGozCoAYvgPalRXiEhIdK8eXPtDFjUxYsXzUGDBskzzzwjV69e1c4B4GKXLl2S2NhYmTBhgnn16lWGNRyBQQ1YRM+ePeXOO+/UzoANtW3bltNUcV2nTp0yu3fvLosWLdJOAYDvTJ8+XXr06CHnzp1jVMP2GNSARRiGYcTHx2tnwIZ43BvXs3//fvO+++6THTt2aKcAwA98/vnn0rNnT8nOzmZUw9YY1ICFxMfHi5+fn3YGbIZBjf+UlZVlPvTQQ3Ls2DHtFAD4UTt37pS+ffvKpUuXGNWwLQY1YCF169Y1+vXrp50Bm7n//vu1E2Ahly9fNh9++GE5cuSIdgoA3NTOnTtl6NChUlRUxKiGLTGoAYvhPalxK1q0aCFNmzbl56fxnZ/97Gc85g3AVlavXi2/+93vtDOAcmFQAxYzcOBAqVOnjnYGbOKRRx7RToCFpKammrNmzdLOAIBb9tprr8nHH3/MXWrYDoMasBh/f39j3Lhx2hmwCQY1vnX69GnzmWee0c4AgHIpLS2V5ORkuXLlCqMatsKgBiwoKSlJDIOneHFjERER8sADD2hnwCJ+/etfy6VLl7QzAKDcjh07Jq+88op2BnBLGNSABTVr1sxgKOFmHn74YQkICOA7L5Dt27ebM2fO1M4AgNv2+uuvy6lTp7hLDdtgUAMWlZSUpJ0Aixs+fLh2AizilVdeEdPk9ScA+ysoKJC//OUv2hlAmRl8AQas6erVq2ZUVBSPcOK6atWqJcePH+cONeTYsWNmkyZNpKSkRDsFACpEWFiYnDx5UsLCwvgaZ0EdOnQwt27dqp1hCVFRUdyhBqyqUqVKxsiRI7UzYFFxcXGMaYiIyMyZMxnTABwlNzdXFi5cqJ0BlAmDGrAwHvvG9RiGwe8NfIefnQbgRPzZBrtgUAMW1rFjR+Puu+/WzoDFdO/eXZo1a8bdacjBgwfNPXv2aGcAQIVbs2aN5Obm8rOpsDwGNWBxP/nJT7QTYDHjx4/XToBFrFmzRjsBALyiuLhYPv30U+0M4KYY1IDFjR07VsLDw7UzYBF169bldG98Z8OGDdoJAOA169ev104AbopBDVhcaGioMW7cOO0MWMSTTz4pgYGBPO4NERHZtWuXdgIAeM3u3bu1E4CbYlADNvD444+Lx8P/XN2uSpUqkpycrJ0BizBN0zxw4IB2BgB4zb59+7QTgJviFTpgAy1atDAGDx6snQFlTzzxhISHh3N3GiIicuHCBcnNzdXOAACvOXr0qHYCcFMMasAmfvvb34phsKXcKjIyUp555hntDFgIYxqA0xUUFEhhYSEnfcPSGNSATdxzzz3GQw89pJ0BJc899xx3p/FvGNQA3IA/62B1DGrARv77v/+bn6V2oYYNG8rjjz+unQEAAID/wCtzwEbatm1rjBo1SjsDPvb6669LpUqVuDuNfxMWFqadAABex591sDoGNWAzf/zjHyUoKEg7Az7Sq1cvGTZsGGMaP8CLTABOFxwczFtFwvIY1IDNNGnSxPj1r3+tnQEfCAoKkrfeeks7AxZVrVo1RjUAR2vYsKF2AnBTDGrAhp5//nlp3Lixdga87De/+Y20atWK78zjugzDMJo2baqdAQBe07x5c+0E4KYY1IANVapUyfjrX/+qnQEvio6OlkmTJmlnwOLatGmjnQAAXtO6dWvtBOCmGNSATQ0YMMAYO3asdga8IDAwUNLS0iQgIIC707ihrl27aicAgNd069ZNOwG4KQY1YGNvvfWW1KtXTzsDFezll1+Wdu3aMaZxU7169dJOAACvCAgIkAceeEA7A7gpBjVgY1WqVDGmTJkihsH2coqHH35YnnrqKe0M2ESTJk0MHokE4ES9evWS0NBQXuDA8hjUgM3179/feOaZZ7QzUAHq168vM2bMEIPvkOAWjBs3TjsBACocf7bBLhjUgAO8/PLL0qVLF+0M3Ibg4GB57733pGbNmoxp3JKxY8dKQECAdgYAVJiIiAgZNGiQdgZQJgxqwAH8/f2N2bNnS61atbRTUE7/+7//Kx07dmRM45bVrVvXiImJ0c4AgArzi1/8QipXrszXRNgCgxpwiAYNGhjvv/++BAUFaafgFj377LOSkJDACweU26RJk8Tj4Us6APsLDQ2VX/7yl9oZQJnx1RdwkM6dOxvTpk3TzsAtGDFihLz88svaGbC5Fi1aGBMmTNDOAIDb9vzzz0v16tX5JjNsg0ENOMy4ceOMP/zhD9oZKIMePXpIRkaGeDweXjjgtr388stSs2ZN7QwAKLemTZvK008/rZ0B3BIGNeBAv/vd7wy+IFnbvffeK4sWLZKgoCDGNCpE1apVjb/97W/aGQBQLv7+/pKWlsbXRdgOgxpwqNdff11iY2O1M3Ad7dq1k+XLl0tYWBgvGlChhg8fbvz0pz/VzgCAW/bHP/5RunTpwtdF2A6DGnAowzCM1NRUiYuL007Bv+jQoYOsWLFCqlSpwosGeMUbb7whXbt21c4AgDIbNmyYPPvss9oZQLkwqAEH8/PzM9LS0uRnP/uZdgpEpFu3brJq1SqJjIxkTMNrgoODjcWLF8s999yjnQIAN9W9e3fJzMzkPBHYFoMacDjDMIy//e1v8utf/1o7xdUGDBggy5cvl/DwcF4wwOsiIiKMZcuWSXR0tHYKAPyoHj16yKJFiyQ4OJivjbAtBjXgAoZhGK+++qrx1ltviZ+fn3aO6yQnJ8vChQulUqVKvGCAz9SuXdtYv369dO/eXTsFAH5g2LBhfKMZjsCgBlzk8ccfN9577z0JCwvTTnEFPz8/+etf/ypTpkwx/P39ecEAn4uIiDBWrlwpL7zwgng8fMkHoM/f319eeOEFmTt3Lid6wxH46gq4zGOPPWZs3rxZmjZtqp3iaDVq1JBly5bJL37xC14sQJW/v7/x4osvGh988IHUrVtXOweAizVv3lzWrl0rL774osHPTMMpGNSAC7Vq1cr4/PPPZdCgQdopjtS5c2f58ssvpW/fvrxYgGUMHDjQ2LNnjzzzzDMSGBionQPARUJDQ+VPf/qTbN++nbfGguMwqAGXqlKlirFw4ULj7bfflkqVKmnnOILH45Fnn31W1q5dK/Xq1eMFAywnLCzMeP31141jx47Jc889JyEhIdpJABwsLCxMnnjiCTlw4IA8//zzRmBgIF8b4TiGaZraDQCU7dy504yLi5Mvv/xSO8W2GjduLDNmzJCuXbvyYgG2cenSJXP+/PmSmZkpGzdulJKSEu0kADYXEBAgvXv3lrFjx8qgQYOkcuXKfF10mA4dOphbt27VzrCEqKgoBjWAfyguLjZff/11+f3vfy8FBQXaObbh8XhkwoQJ8uqrr3JSKWzt0qVL5rp162TDhg2ye/du2b9/vxw7dkyKioq00wBYVFBQkDRq1EiaN28urVu3lm7duknXrl0Z0Q7HoP4egxrAD+zfv9/8xS9+IStWrNBOsbzo6Gh555135P777+eFAxzr2rVrZl5enuTk5GinALCIKlWqSFhYmAQEBPD1z4UY1N9jUAP4UR9++KH59NNPy6FDh7RTLKdatWry29/+Vn7xi18Ib4cFAADchEH9vaioKA4lA3B9jz32mLF3716ZMmWKREVFaedYQkBAgCQnJ8vevXvlqaee4r2lAQAAXI5BDeBHBQQEGMnJycaBAwdk8uTJUqtWLe0kFYGBgZKcnCz79++XKVOmGDVq1GBIAwAAgEEN4OZCQkKMZ5991jhy5IhMmTJFmjZtqp3kq49bnnjiCfnmm29kypQpRqNGjRjSAAAA+A6DGkCZBQcHG8nJycbevXvlk08+keHDh4u/v792VoVr0qSJvPLKK3Ls2DF58803Dd5TGgAAANfDoWQAbsvRo0fNGTNmyKxZs2T//v3aOeUWEhIijz76qIwdO1b69esnHo+HEQ0AAPAfOJTse5zyDaBCffHFF+bcuXPlww8/lIMHD2rn3FRISIj07dtXhg4dKoMGDZKwsDBGNAAAwA0wqL/HoAbgNXv27DEXL14sq1evlk8//VSuXLminSQiIi1btpQePXrII488Ir169ZJKlSrZakTn5uaajz/+uMyYMcNW3QAAwBkY1N9jUAPwiaKiIvPzzz+Xzz77TLZs2SJbt26VAwcOiLf//ImIiJC2bdtKu3bt5N5775Xu3btLrVq1bDtE9+/fbw4ZMkR27dolZ8+elerVq9v2YwEAAPbEoP5eVFSUOO80IQCWExAQYHTp0kW6dOny3V+7cuWKuW/fPtm/f7/s27dPjh49KtnZ2XL8+HE5e/asXL58Wa5evXrD/254eLjUqFFDateuLTVr1pSGDRvKnXfeKXfeeac0bdpUGjduLIZhOGJ0Ll682Bw3bpzk5OSIiMjRo0elevXq2lkAAACuxqAGoKJy5cpGu3btpF27dj/6zxQVFZl5eXk/+OtBQUESEhLiiKF8M6Zpmq+++qo8//zzUlpa+t1fP3r0qLRv3147DwAAwNUY1AAsKyAgwKhatap2hprjx4+bCQkJsmrVqh/8vaNHj2rnAQAAuB7vQw0AFjR//nzznnvuue6YFmFQAwAAWAF3qAHAQs6cOWP+5Cc/kYULF97wn2NQAwAA6GNQA4BFfPTRR+aECRPk1KlTN/1nGdQAAAD6eOQbAJSdOHHCHDFihDlgwIAyjWkRBjUAAIAVMKgBQElRUZH55ptvmq1atZL58+ff0r974cIFyc3N9e4beQMAAOCGGNQA4GOmaZrz5883W7ZsKU8++aTk5uaW679z7Ngx7Q8FAADA1RjUAOAjpmmaS5YsMdu2bSsjRoyQb7755rb+e0eOHNH+kAAAAFyNQ8kAwMtKS0vNjz76SP74xz/KF198UWH/XX6OGgAAQBeDGgC85NKlS2Z6erq8/fbbcvDgwQr/7zOoAQAAdDGoAaCCbdq0yUxNTZXZs2dLfn6+134dBjUAAIAuBjUAVIA9e/aY7777rsyePfu2fza6rBjUAAAAuhjUAFAOxcXF5t///ndZvHixLFq0SA4cOODzBgY1AACALgY1AJRBYWGh+dVXX8n69etlzZo1smHDBsnLy1Ntys7OlmvXrplBQUGG9ucHAADAjRjUAPAfsrKyzH379sn+/ftl586d8vnnn8u2bduksLBQO+3fmKYpx44dk6ZNm2qnAAAAuBKDGoCrFBYWmmfPnpXs7Gw5ffq0nDlzRo4fPy779u2Tb0f05cuXtTPL7OjRowxqAAAAJQxqAK7wm9/8xpwyZYqcP39eO6VC8XPUAAAAejzaAQDgC7/+9a+lcuXK2hkV7tixY9oJAAAArsUPcnefAAAUJklEQVSgBuAKVapUMWbOnCl+fn7aKRWKO9QAAAB6GNQAXKNr167GpEmTtDMq1JEjR7QTAAAAXItBDcBVXnzxRencubN2RoXhDjUAAIAeBjUAV/H39zfmzJkjVatW1U6pECdPnpSSkhJTuwMAAMCNGNQAXKd+/frGlClTtDMqRFFRkWRlZWlnAAAAuBKDGoArDR8+3IiLi9POqBA89g0AAKCDQQ3Atd5++21p3ry5dsZtY1ADAADoYFADcK3KlSsbs2bNksDAQO2U28KgBgAA0MGgBuBq7du3N/74xz9qZ9wWBjUAAIAOBjUA1/vVr34lffv21c4oNwY1AACADgY1ANfzeDxGZmam1KpVSzulXBjUAAAAOhjUACAitWrVMtLS0sQwDO2UW3b06FExTZP3ogYAAPAxBjUA/FO/fv2Mxx9/XDvjll29elXOnj2rnQEAAOA6DGoA+Bevvfaa3HPPPdoZt4zHvgEAAHyPQQ0A/yIoKMiYNWuWhISEaKfcEgY1AACA7zGoAeA/tGrVynjjjTe0M24JgxoAAMD3GNQAcB0TJ040Ro4cqZ1RZgxqAAAA32NQA8CPeOedd6RBgwbaGWXCoAYAAPA9BjUA/IgqVaoYM2fOFD8/P+2Um2JQAwAA+B6DGgBuoGvXrsakSZO0M26KQQ0AAOB7DGoAuIkXX3xROnfurJ1xQ5cuXZKcnBxTuwMAAMBNGNQAcBP+/v7GnDlzpGrVqtopN3Ts2DHtBAAAAFdhUANAGdSvX9+YMmWKdsYN8dg3AACAbzGoAaCMhg8fbsTFxWln/KgjR45oJwAAALgKgxoAbsHbb78tzZs31864Lu5QAwAA+BaDGgBuQeXKlY1Zs2ZJYGCgdsoPMKgBAAB8i0ENALeoffv2xh//+EftjB9gUAMAAPgWgxoAyuFXv/qV9O3bVzvj3zCoAQAAfItBDQDl4PF4jMzMTKlVq5Z2ynfOnDkjV69e5b2oAQAAfIRBDQDlVKtWLSMtLU0Mw9BOERER0zTl+PHj2hkAAACuwaAGgNvQr18/4/HHH9fO+A6PfQMAAPgOgxoAbtNrr70m99xzj3aGiDCoAQAAfIlBDQC3KSgoyJg1a5aEhIRopzCoAQAAfIhBDQAVoFWrVsYbb7yhnSEnTpzQTgAAAHANBjUAVJCJEycaI0eOVG04d+6c9qcBAADANRjUAFCB3nnnHWnQoIHar3/+/HntTwEAAIBrMKgBoAJVqVLFyMjIED8/P5Vf/8KFC9qfAgAAANdgUANABevevbsxadIklV/bKu+JDQAA4AYMagDwghdffFE6d+7s8183ICBA+0MHAABwDQY1AHiBv7+/MXPmTImIiPDprxsYGKj9oQMAALgGgxoAvKRx48bGtGnTfPprNmrUSPvDBgAAcA0GNQB40fDhw424uDif/XpNmzbV/pABAABcg0ENAF72t7/9zWdD95577tH+cAEAAFyDQQ0AXhYaGmrMmzdPQkNDvfrrBAYGysMPP6z94QIAALgGgxoAfOCee+4xZs+e7dX3p37wwQclIiKC980C/n97dxubZX3+cfi8ah+giqDQKjqGRelM6+gcRLcVB25BQISYIWFm0WkicVt9miNzT2q2TOeWuDGymAUTJpD5RnFxZrEgKYruIYDbxFDa6phgrBaIQFtGpQ3X/8U/GthACrS97vY+jsREEOu3Jr74eP5KAWCACGqAATJ37txkyZIl/fKxkySJBx98MOtPEQAgrwhqgAF0xx13JI8++miff9ybb745pkyZ4joNADCABDXAALv33nuTJUuW9Nnz7yuvvDIee+yxrD8tAIC8I6gBMnD33Xcnf/zjH2PkyJGn9XE+97nPxXPPPRelpaWu0wAAA0xQA2Tk2muvTTZt2hTTp08/6b+3sLAwfvCDH8TLL78cZWVlYhoAIAOCGiBDEydOTBoaGmLlypVx6aWXnvDXDx8+POrq6qKlpSUeeuihpLCwUEwDAGQkSdM06w0ARESapumGDRvimWeeiddffz0aGxvj0KFDcf7558dll10WM2bMiBtuuCHOOeccEQ0AZGLKlCnpq6++mvWMnHDBBRdEYdYjAPh/SZIk06ZNi2nTpmU9BQCAXvDkGwAAgF75z3/+k/WEnFFUVCSoAQAA6J329vasJ+SMkpISQQ0AAEDvdHR0ZD0hZxQXFwtqAAAATixN07SzszPrGTnDhRoAAIBe2bdvXxw+fDjrGTnDhRoAAIBeeeONN7KekFOGDRsmqAEAADixbdu2ZT0hp5x77rmCGgAAgBNrbm7OekJOGT16tKAGAADgxJqamrKekFNcqAEAAOiVjRs3Zj0hp5SVlQlqAAAAPl5jY2P6zjvvZD0jp3jyDQAAwAk1NDRkPSHnuFADAABwQuvWrct6Qs656KKLIknTNOsdAAAA5KiDBw+m559/frS3t2c9JWckSRKdnZ0u1AAAABzfs88+K6b/S3l5eZSWliaCGgAAgONauXJl1hNyTkVFRUSECzUAAADH1tbWlr7wwgtZz8g5ghoAAICP9cQTT0RPT0/WM3JOZWVlRAhqAAAAjqGrqytdunRp1jNy0qRJkyJCUAMAAHAMy5Yti9bW1qxn5KQPg9q3zQIAAOAohw4dSidOnBg7d+7MekrOOfPMM6O9vT0KCgr8Lt8AAAAcbdmyZWL6OKqrq6OgoCCJ8OQbAACAI+zatSt94IEHsp6Rsz587h0hqAEAADjCd7/73di7d2/WM3LW5z//+Y/+3NdQAwAAEBERr7zySvrFL34xdOLxNTc3R2VlZRIhqAEAAIiIAwcOpFOmTImmpqasp+SssrKyaGtriyRJfA01AAAA/6+urk5Mn0Btbe1HMR0hqAEAAPLe7373u3TFihVZz8h5tbW1R/1YUAMAAOSxrVu3pnfccUfWMwaFadOmHfVjX0MNAACQp1pbW9Pa2tp46623sp6S88rKyuK999776HtQR7hQAwAA5KX29vZ0zpw5YrqXZs2adVRMRwhqAACAvNPV1ZXOnTs3/vnPf2Y9ZdCYNWvW//ycJ98AAAB5pLOzM50/f36sXbs26ymDRkFBQbS1tcWYMWOOulAXZj0MAACAgbFnz550zpw5sXHjxqynDCpXXnnl/8R0hKAGAADIC62tremsWbPi9ddfz3rKoLNgwYJj/rwn3wAAAEPcSy+9lN54443x7rvvZj1l0EmSJHbs2BHjxo37nwu135QMAABgiErTNP31r3+dzpgxQ0yfotra2mPGdIQn3wAAAEPSrl270ltuuSWef/75rKcMasd77h3hyTcAAMCQcvjw4fTxxx+P73//+7F3796s5wxqZ5xxRuzcuTMuuOACF2oAAIChbMuWLek3vvGN+Otf/5r1lCHhmmuuOW5MR/gaagAAgEGvpaUl/frXv55OnjxZTPeh22677WP/uiffAAAAg9T27dvTn//857F8+fLo6enJes6Qct5558Xbb78dRUVFx71Qe/INAAAwiHR1daXPPfdcrFy5Murr64V0P7n11ls/NqYjXKgBAABy3oEDB9INGzbE6tWr46mnnor29vasJw1pSZJEc3NzTJw48WOD2oUaAAAgx+zZsyfdunVrbNiwIdatWxd/+9vf4tChQ1nPyhuzZ88+YUxHCGoYED09PWlra2u8//77ceDAgThw4EDs378/61kAAGSop6cnOjo6Yu/evdHZ2RltbW3R1NQU27Ztiz179mQ9L6995zvf6dWv8+Qb+lhPT0+6adOmWL9+fWzevDmampriX//6l/+jCAAAg8BnP/vZePXVV094nY5woYY+0d3dnT7//POxatWqWLNmTXR0dGQ9CQAAOAWLFy/u9a91oYbT8O6776a//OUvY8WKFbF79+6s5wAAAKdh/Pjx8eabb0ZhYaELNfSXt99+O33kkUdi+fLl0dXVlfUcAACgD3zve9/rdUxHuFDDSenu7k4fe+yxuP/++z3rBgCAIWT8+PHR0tISxcXFvQ5qF2ropU2bNqW33HJLNDY2Zj0FAADoYw888MBJxXSECzX0yrJly9I777zT79QNAABD0CWXXBLbtm07qefeES7U8LEOHjyY3nTTTbF69eqspwAAAP3kwQcfPOmYjnChhuPat29fOm/evHj55ZezngIAAPSTyy+/PDZv3hwFBQUnHdQu1HAMu3btSmfMmBFbtmzJegoAANBPkiSJpUuXnlJMR0QUZP0JQK7p6OhIr732WjENAABD3Fe/+tWYOnXqKcV0hCffcJTu7u507ty5sWbNmqynAAAA/Wj48OGxbdu2GD9+/CkHtQs1HOHuu+8W0wAAkAfuu+++04rpCBdq+MjTTz+dLliwIOsZAABAP6usrIzXXnsthg0bJqjhdL311lvpZz7zmdi/f3/WUwAAgH5UUFAQL774Ylx11VWnFdMRnnxDRETcddddYhoAAPLA7bff3icxHeFCDVFfX5/Onj076xkAAEA/Gzt2bDQ2NsaoUaP6JKhdqMlr3d3daV1dXdYzAACAfpYkSTz++ON9FtMRgpo89/vf/z62b9+e9QwAAKCf1dXVxZw5c/ospiM8+SaPHT58OJ00aVJs3bo16ykAAEA/qqqqis2bN8fw4cP7NKhdqMlbf/rTn8Q0AAAMcSUlJfHkk0/2eUxHCGry2IoVK7KeAAAA9LNHHnkkampq+jymIzz5Jk/t3bs3HTt2bHzwwQdZTwEAAPrJ9ddfH88880wkSdIvQe1CTV5avXq1mAYAgCGsqqoqVq1a1W8xHSGoyVPr1q3LegIAANBPRowYEU899VScddZZ/RbTEYKaPJSmafriiy9mPQMAAOgHSZLE8uXLo6qqql9jOkJQk4eampqira0t6xkAAEA/+MlPfhI33HBDv8d0hKAmD23ZsiXrCQAAQD+49dZb40c/+tGAxHSEoCYPNTc3Zz0BAADoY9OnT4/f/va3A/rPFNTkHUENAABDS1VVVfzhD3+I4uLiAbtORwhq8lBra2vWEwAAgD5y0UUXRX19fYwaNWpAYzpCUJOHOjo6sp4AAAD0gfLy8qivr49x48YNeExHCGrykKAGAIDBb8yYMdHQ0BCf+tSnMonpCEFNHjp48GDWEwAAgNMwcuTIqK+vj+rq6sxiOkJQk4dKS0uzngAAAJyic845J9auXRuTJ0/ONKYjIgqzHgAD7ayzzsp6AgAAcArKy8tj7dq1UVNTk3lMRwhq8pCgBgCAwWfs2LHxwgsvZP7M+0iCmrxz4YUXZj0BAAA4CRMmTIh169ZFRUVFzsR0hK+hJg9VVlZmPQEAAOilK664Iv7yl7/kXExHCGrykKAGAIDB4frrr4/169fHeeedl3MxHSGoyUOXXXZZ1hMAAIATuOeee2L16tVRWlqakzEdEZGkaZr1BhhQaZqm5eXlsWfPnqynAAAA/6WoqCiWLFkS3/rWt3I2pD/kQk3eSZIkmTZtWtYzAACA/1JWVhZr1qwZFDEdIajJU1/+8pezngAAABxh6tSp8dprr8XVV189KGI6wpNv8tSuXbvST3ziE9Hd3Z31FAAAyHt33nlnPProo1FUVDRoYjrChZo8VV5ensycOTPrGQAAkNfGjBkTzz77bCxdujQZbDEdIajJYzfffHPWEwAAIG9dc801sWXLlpg3b96gC+kPefJN3urp6UkrKyvj3//+d9ZTAAAgb5SUlMTDDz8c3/72tyNJkkEb0xEu1OSxwsLCZPHixVnPAACAvPGFL3wh/v73v8e9996bDPaYjnChJs91dXWlF198cbS2tmY9BQAAhqwRI0bEz372s/jmN78ZBQUFgz6kP+RCTV4bNmxY8otf/CLrGQAAMGRdd911sXXr1qirq0uGUkxHuFBDRER86UtfStevX5/1DAAAGDIuueSSePjhh2PBggVDKqKPJKghIhobG9PJkydHV1dX1lMAAGBQO/vss+P++++Pu+66K4qLi4dsTEd48g0REVFVVZX86le/ynoGAAAMWoWFhbFo0aJoaWmJxYsXJ0M9piNcqOEoX/va19Inn3wy6xkAADBoFBQUxPz58+OnP/1pVFZWDvmIPpKghiO0t7en06dPj3/84x9ZTwEAgJyWJEl85StfiR//+MdRXV2dVyH90b8DQQ1He++999La2trYvn171lMAACDnFBUVxcKFC2Px4sVRU1OTlyH9IUENx/DGG2+kV199dbzzzjtZTwEAgJwwYsSIWLRoUdxzzz0xbty4vA7pDwlqOI4dO3akM2fOjObm5qynAABAZiorK2PRokWxaNGiGDlypJA+gqCGj7F79+70uuuui40bN2Y9BQAABkxJSUnMnz8/brvttpg+fXokSSKkj0FQwwl88MEH6eLFi+M3v/lN1lMAAKBfXXHFFXHjjTfGTTfdFKNHjxbRJyCooZeefvrp9Pbbb4/3338/6ykAANBnampqYuHChbFw4cKYMGGCiD4JghpOwu7du9P77rsvnnjiifDfDgAAg1FRUVHU1tbG7NmzY968eXHppZeK6FMkqOEU/PnPf05/+MMfxksvvZT1FAAAOKFx48bFzJkzY9asWTFjxow4++yzRXQfENRwGl555ZX0oYceirVr18bhw4ezngMAAFFQUBDV1dUxderUqK2tjauuuio++clPCuh+IKihD+zcuTNdtWpVrFq1yrfZAgBgwAwfPjyqq6ujpqYmJk2aFJ/+9Kfj8ssvj1GjRgnoASCooY+9+eabaUNDQzQ0NMTGjRtjx44drtcAAJySwsLCGD16dFx44YVRUVEREyZMiIqKiqioqIiLL744JkyYEGeccYZ4zoighn7W1dWVtrS0xPbt22Pfvn3R0dERnZ2dsX///qynAQCQkdLS0igpKYni4uI488wzI0mSGDVqVJSUlMSYMWM++uPcc88Vyzns/wB+TOa2WCNH5QAAACV0RVh0ZGF0ZTpjcmVhdGUAMjAxNy0wNi0xMlQwMzozNDozNiswODowMIdSND8AAAAldEVYdGRhdGU6bW9kaWZ5ADIwMTYtMDQtMTZUMTU6NDM6MTQrMDg6MDBiFYQwAAAAVHRFWHRzdmc6YmFzZS11cmkAZmlsZTovLy9ob21lL2RiL3N2Z19pbmZvL3N2Zy85NS85Zi85NTlmYzc0MzE2OTI5N2E2NTZhZDY4OTk5NzUwNjYwYy5zdmeQvZQXAAAAAElFTkSuQmCC;" vertex="1" parent="1">
          <mxGeometry x="45.42" y="257.33" width="24.58" height="22.67" as="geometry" />
        </mxCell>
        <mxCell id="YsVByBDXMGtculNdtcNv-48" value="Healthcare Platform" style="text;html=1;strokeColor=none;fillColor=none;align=left;verticalAlign=middle;whiteSpace=wrap;rounded=0;" vertex="1" parent="1">
          <mxGeometry x="70" y="455" width="190" height="30" as="geometry" />
        </mxCell>
        <mxCell id="YsVByBDXMGtculNdtcNv-50" value="" style="shape=image;html=1;verticalAlign=top;verticalLabelPosition=bottom;labelBackgroundColor=#ffffff;imageAspect=0;aspect=fixed;image=https://cdn1.iconfinder.com/data/icons/iconoir-vol-3/24/pharmacy-circled-cross-128.png" vertex="1" parent="1">
          <mxGeometry x="45" y="457.5" width="25" height="25" as="geometry" />
        </mxCell>
        <mxCell id="YsVByBDXMGtculNdtcNv-59" style="edgeStyle=orthogonalEdgeStyle;rounded=0;orthogonalLoop=1;jettySize=auto;html=1;exitX=0;exitY=0.5;exitDx=0;exitDy=0;entryX=1;entryY=0.5;entryDx=0;entryDy=0;startArrow=classic;startFill=1;strokeColor=#666666;fontColor=#808080;" edge="1" parent="1" source="YsVByBDXMGtculNdtcNv-51" target="YsVByBDXMGtculNdtcNv-53">
          <mxGeometry relative="1" as="geometry" />
        </mxCell>
        <mxCell id="YsVByBDXMGtculNdtcNv-60" value="Authorization" style="edgeLabel;html=1;align=center;verticalAlign=middle;resizable=0;points=[];fontColor=#808080;labelBackgroundColor=#F5F5F5;" vertex="1" connectable="0" parent="YsVByBDXMGtculNdtcNv-59">
          <mxGeometry x="-0.0296" y="-2" relative="1" as="geometry">
            <mxPoint as="offset" />
          </mxGeometry>
        </mxCell>
        <mxCell id="YsVByBDXMGtculNdtcNv-51" value="Platform IDP" style="rounded=0;whiteSpace=wrap;html=1;fontStyle=1" vertex="1" parent="1">
          <mxGeometry x="500" y="485" width="120" height="60" as="geometry" />
        </mxCell>
        <mxCell id="YsVByBDXMGtculNdtcNv-53" value="Platform Services" style="rounded=0;whiteSpace=wrap;html=1;strokeColor=#666666;fontColor=#808080;" vertex="1" parent="1">
          <mxGeometry x="227" y="485" width="120" height="60" as="geometry" />
        </mxCell>
        <mxCell id="YsVByBDXMGtculNdtcNv-64" value="Client" style="text;html=1;strokeColor=none;fillColor=none;align=left;verticalAlign=middle;whiteSpace=wrap;rounded=0;" vertex="1" parent="1">
          <mxGeometry x="640" y="255" width="130" height="30" as="geometry" />
        </mxCell>
        <mxCell id="YsVByBDXMGtculNdtcNv-65" value="" style="shape=image;verticalLabelPosition=bottom;labelBackgroundColor=default;verticalAlign=top;aspect=fixed;imageAspect=0;image=data:image/png,iVBORw0KGgoAAAANSUhEUgAAA9QAAAOICAYAAAA3mLkIAAAABGdBTUEAALGPC/xhBQAAAAFzUkdCAK7OHOkAAAAgY0hSTQAAeiYAAICEAAD6AAAAgOgAAHUwAADqYAAAOpgAABdwnLpRPAAAAAZiS0dEAP8A/wD/oL2nkwAAAAlwSFlzAAAASAAAAEgARslrPgAAgABJREFUeNrs3Xd8VvXd//HPuTIJGUCYYaNsjDJVkA0qCMoeATIhdFjraJXbtj9ta29FrXet9b5lZJAAshQFBEQ2FlBBkb1kE8ImJISQdX5/tGpbEULIdX3OeD0fj9/j8btdvJJDyfXOOflehmmagn9XUlJinjlzRs6ePSsnT56Us2fPSm5uruTl5Ulubq4UFxf/4N+pWrWqhIWFSXh4uFSpUkXq1q0rderUkVq1aolhGIb2xwQAAAAAqFj+2gGaioqKzJ07d8pXX30lu3fvlgMHDsj+/fvl0KFDUlhYWCG/RmBgoNSvX99s3ry5tGjRQpo3by5333233H333RIcHMzQBgAAAACbMtx0h/rs2bPm+vXrZe3atbJx40bZuXNnhQ3nWxUQECBt2rSRTp06Sbdu3aRHjx4SFRXFwAYAAAAAm3D0oC4pKTE3btwoixcvlmXLlsmuXbvEyh9v8+bNpU+fPvLoo49Kjx49JDAwkIENAAAAABbluEFdUlJirlixQubMmSMfffSRnD9/XjupXMLDw+Xhhx+WESNGyCOPPMLj4QAAAABgMY4Z1F999ZWZkZEhc+bMkezsbO2cClWlShUZNmyYjBs3Trp168awBgAAAAALsPWgvnbtmrlo0SKZOnWqrFy5UjvHJ5o1ayaJiYkyYcIEqVatGuMaAAAAAJTYclCfOXPG/Mtf/iJTp0617SPdtys0NFQSExPl6aefloYNGzKsAQAAAMDHbDWojx07Zr7++uuSkpIi+fn52jmWEBAQIKNHj5bnnntOWrVqxbAGAAAAAB+xxaA+ffq0+cc//lGmTZum9jZXVufn5ydjx46VF198URo1asSwBgAAAAAvs/SgzsvLM19//XX585//LHl5edo5thAYGCg/+clP5IUXXuBnrAEAAADAiyw7qBcvXmz+/Oc/l+PHj2un2FLVqlXlhRdekMcff1z8/PwY1gAAAABQwSw3qPfv32/+/Oc/d82p3d7Wvn17eeedd6RDhw6MagAAAACoQB7tgG+VlJSYkydPNqOjoxnTFWjr1q1y//33y6RJk8yCggJrffcEAAAAAGzMEneo9+/fb8bHx8umTZu0UxytZcuWkp6eLp06deJuNQAAAADcJvU71FOnTjXvuecexrQP7NmzRx544AGZPHmyWVpaqv+dFAAAAACwMbU71Hl5eeZPfvITmTVrlvbnwJX69u0rGRkZUrt2be5WAwAAAEA5qAzqPXv2mEOHDpU9e/Zof/yuFhUVJe+//77ce++9jGoAAAAAuEU+f+R7xYoVZufOnRnTFpCVlSXdu3eXlJQUHv8GAAAAgFvk00H917/+1ezfv79cunRJ++PGP127dk3Gjx8vTz/9ND9XDQAAAAC3wCePfJumaT711FPy5ptvan+8uIERI0ZIRkaGBAUF8Qg4AAAAANyE1wd1cXGxmZSUJBkZGdofK8qgR48esnDhQqlSpQqjGgAAAABuwKuDuqCgwBw5cqQsWrRI++PELWjfvr2sWLFCqlWrxqgGAAAAgB/htUFdWFhoDhs2TBYvXqz9MaIc7rnnHvnkk0+kevXqjGoAAAAAuA6vDOrCwkJz+PDh3Jm2ubvuukvWrFkjkZGRjGoAAAAA+A8Vfsp3SUmJGRMTw5h2gB07dkj//v0lLy+P078BAAAA4D9U+KB+6qmn5L333tP+uFBBPv/8c3nsscfk2rVrjGoAAAAA+BcVOqhffvll86233tL+mFDBVq9eLbGxsWL64j3WAAAAAMAmKmxQz5492/zNb36j/fHAS+bNmycvvPCCdgYAAAAAWEaFHEq2bds2s0uXLpKfn6/98cCLDMOQzMxMGTNmDIeUAQAAAHC92x7UZ86cMTt27CjHjh3T/ljgA8HBwfLpp59K+/btGdUAAAAAXO22HvkuKSkxR40axZh2kYKCAhkxYoRcunSJn6cGAAAA4Gq3Naj/+7//W9asWaP9McDHDh06xCFlAAAAAFyv3I98b9y40ezevbsUFxdrfwxQ8uabb8oTTzzBo98AAAAAXKlcgzo3N9eMjo6WI0eOaPdDUaVKleSrr76S5s2bM6oBAAAAuE65Hvn+9a9/zZiGXL16VWJiYqSoqIhHvwEAAAC4zi0P6jVr1phTp07V7oZFfPnll/Laa69pZwAAAACAz93SI9/5+fnmXXfdJYcOHdLuhoUEBwfLzp075Y477uDRbwAAAACucUt3qF955RXGNH6goKBAfv7zn2tnAAAAAIBPlfkO9bFjx8yWLVtKfn6+djMs6v3335fBgwdzlxoAAACAK5R5UA8ePNj84IMPtHthYY0aNZK9e/dKUFAQoxoAAACA45Xpke9PP/2UMY2bOnLkiLz99tvaGQAAAADgE2W6Q92jRw9z3bp12q2wgapVq8rBgwelWrVq3KUGAAAA4Gg3vUP90UcfMaZRZhcvXuRttAAAAAC4wk3vUHfo0MHcunWrdidsJCwsTI4ePSpVq1blLjUAAAAAx7rhHeoVK1YwpnHLcnNz5a233tLOAAAAAACvuuEd6t69e5urV6/WboQNVatWTY4ePSqhoaHcpQYAAADgSD96h3rr1q2MaZTbhQsXJDU1VTsDAAAAALzmRwc1j+zidr311ltSWlpatjc6BwAAAACbue4j3xcvXjTr1asn+fn52n2wuRUrVkjfvn157BsAAACA41z3DvX06dMZ06gQb7/9tnYCAAAAAHjFde9Qt2zZ0ty7d692GxzAz89Pjh49KnXr1uUuNQAAAABH+cEd6i1btjCmUWFKSkokPT1dOwMAAAAAKtwPBvWsWbO0m+AwKSkpHE4GAAAAwHH+bVCXlJSYc+fO1W6Cwxw+fFjWrl2rnQEAAAAAFerfBvXGjRvl1KlT2k1woJSUFO0EAAAAAKhQ/zaoFy9erN0Dh3r//fflwoULPPYNAAAAwDEY1PCJgoICmT17tnYGAAAAAFSY794269ChQ+Ydd9yh3QMHu/vuu2Xbtm28fRYAAAAAR/juDvXq1au1W+BwX3/9tWzdupXHvgEAAAA4wneDmlOY4QscTgYAAADAKb575LtevXrmyZMntXsszd/fX1q3bi133HGHNGjQQIKCgkRE5PLly5KdnS179uyRAwcOSElJiXaqZUVEREhWVpaEhITw6DcAAAAAW/MXETly5Ahj+kdUr15dhg4dKkOHDpXOnTtL5cqVbzgEc3JyzPXr18uCBQtk4cKFkpubq/0hWEpOTo4sWLBAYmNjtVMAAAAA4LYYpmnKggULzOHDh2u3WErr1q3lV7/6lYwePVqCgoLKdTc1NzfXnDZtmrz++uu8v/e/6Natm6xbt4471AAAAABszSMisnXrVu0Oy6hWrZq888478vXXX0t8fLxR3jEtIhIWFmY8/fTTxv79++W5554Tf39/7Q/PEjZs2CD79+/ncDIAAAAAtuYREdmyZYt2hyX06dNHtm/fLhMnTjT8/Pwq7A5qaGio8corrxjr1q2TBg0aaH+Y6kzTlNTUVO0MAAAAALgthmmaUqdOHTM7O1u7RVVycrK8/fbb4u/v79VHkbOzs80BAwa4/qmAWrVqyfHjxyUgIIBHvwEAAADYkic3N9f1Y/p3v/udTJkyxfD2mBYRqV27trF69Wpp37699oet6vTp07J06VLtDAAAAAAoN8++ffu0G1T9/Oc/lz/84Q8+vUsaHh5uLF26VOrXr6/94auaPn26dgIAAAAAlJvnwIED2g1qunXrJv/zP/+j8mvXrFnTmDNnjgQEBGh/GtQsX75csrKyOJwMAAAAgC15jh07pt2gonLlypKenq76M7ydO3c2fvnLX2p/KtQUFxdLenq6dgYAAAAAlIvHre+P/NJLL0njxo3VD8T6f//v/0mtWrW0M9SkpqaKaZrcpQYAAABgO56TJ09qN/hcgwYN5Kc//al2hoj8472q3XyX+ptvvpG1a9dqZwAAAADALfOcPn1au8HnfvnLX0pQUJD63elv/fSnP5VKlSppZ6hJSUnRTgAAAACAW+bJycnRbvCp4OBgiY+P1874N1WqVDGGDRumnaHmvffek4sXL/LYNwAAAABb8Vy+fFm7wad69eol1apVs8zd6W8lJiZqJ6gpKCiQ2bNna2cAAAAAwC3x5OXlaTf41EMPPaSdcF3du3eXpk2bameo4T2pAQAAANiNJz8/X7vBpzp27KidcF2GYRhuvku9bds22bp1K499AwAAALANT2lpqXaDT7Vu3Vo74UfFxcWJv7+/doYaDicDAAAAYCeuGtSVK1eW8PBwy/389Lfq1Klj9O/fXztDzezZsyU/P5+71AAAAABswaMd4Evh4eHaCTeVlJSknaAmJydH3nvvPe0MAAAAACgTj5seMTZN69/87N+/v9SpU0c7Qw2PfQMAAACwC09ISIh2g8/Y4T23/f39jbi4OO0MNevWrZO9e/da/zsfAAAAAFzPExYWpt3gM1evXpULFy5YfqwlJiaKYVj2R729Lj09XTsBAAAAAG7KU7lyZe0Gn9q5c6d2wk01bdrU6Natm3aGmhkzZkhRUZHlv/EBAAAAwN081apV027wqc8//1w7oUzcfDhZdna2LF26VDsDAAAAAG7IU7t2be0Gn7LLUBs2bJhUrVpVO0NNamqqdgIAAAAA3JDrBvX69evlzJkzln+cuFKlSsaoUaO0M9QsXbpUsrKyLH+dAAAAALiX6wZ1SUmJZGZmameUiZsf+y4uLpYZM2ZoZwAAAADAj/I0bNhQu8Hnpk2bJqYN3pS6ffv2Rtu2bbUz1EyfPt0W1wkAAACAO3maNWum3eBz+/btk82bN2tnlEliYqJ2gppDhw7JunXrtDMAAAAA4Lo8TZs21W5QkZKSop1QJmPHjpWQkBDtDDV2uU4AAAAA3McwTVNq165tnj59WrvFp0JDQyUrK0vCwsIM7ZabGTt2rDlr1iztDBWVKlWSkydPStWqVS1/nQAAAAC4i0dEJDo6WrvD5/Ly8mTu3LnaGWXi5se+r169KrNnz9bOAAAAAIAfMEzTlEmTJpmTJ0/WbvG5++67TzZt2mT5O5+maZrNmjWTgwcPaqeoiI6Olq+//try18kNLly4YB4+fFg7AwAAwBH8/PwkPDxcRP7xZGZwcLAEBQVJSEgIr31twl9ExK0nSW/evFm2b99uRkdHW/o3rGEYRnx8vPnb3/5WO0XF9u3b5csvvzTbtWtn6evkBjk5OdKpUycpLS3VTgEAAHCsSpUqmZGRkRIZGSnVq1eXGjVqSO3ataVRo0bSuHFjadSokTRq1EjCw8N5fazMME1TDh48aLr1cLKnnnpK3njjDcv/Rjx58qTZsGFDKSkp0U5R8bOf/Uzefvtty18nN+jbt6+5cuVK7QwAAADXi4yMlNatW8tdd90l0dHREh0dLW3atJHQ0FBeN/uI8e3b/NatW9fMysrS7vG5yMhIOXnypAQFBVn+N92AAQPMjz76SDtDRUREhGRlZfH4iwXMmTPHHD16tHYGAAAArsMwDGnWrJncf//98sADD0jnzp2lRYsWYhgGr6O9wPPt/6d79+7aLSrOnz8vixYt0s4ok6SkJO0ENTk5OfL+++9rZ0BEBg8eLJGRkdoZAAAAuA7TNGXfvn2Snp4u48ePl1atWkmNGjXk0UcfNf/2t7+ZBw8eNLUbncT1g1rEPu91PHDgQKlTp452hhq7XCenCwoKMsaOHaudAQAAgDI6f/68LF68WH7xi19I06ZNpVmzZuYTTzxhLlu2zCwoKGBg34bvHvk+cOCA2axZM+0eFR6PRw4dOiQNGza0/GMQzz33nPnqq69qZ6gwDEP27dsnTZs2tfx1crqdO3ead911l3YGAAAAblNISIj06tVLhg8fLsOGDeNHLG/Rd3eomzZtarh1UJeWlkp6erp2RpkkJSWJW3/8wTRNSUtL086AiLRp08a49957tTMAAABwm/Lz82XJkiUSFxcndevWlfj4eHPFihVmaWkpd67LwPOv/8ejjz6q3aMmJSVFSkpKLP+bplmzZkaXLl20M9SkpaVJUVGR5a+TG7j5Z/oBAACc6NKlSzJjxgx56KGHpEGDBjJp0iTzyJEjvPa+gX8b1AMHDtTuUXP8+HFZtWqVdkaZuHnIZGdny7Jly7QzICKjRo2S0NBQ7QwAAAB4wcmTJ2Xy5Mly5513ysCBA80lS5Zw1/o6/m1Qd+7cWWrUqKHdpMYuh16NGDFCIiIitDPU2OU6OV1YWJgxcuRI7QwAAAB4UUlJiSxZskQGDhwozZo1kzfffNPMz89nWP/Tvw1qf39/V79A/uCDD+Ts2bOW/80REhJijBo1SjtDzdKlSyUrK8vy18kN3Py0BAAAgNt888038uSTT0qjRo1k0qRJJq/J/2NQi4i4+e1wCgsLZdasWdoZZeLmIVNcXCwZGRnaGRCR+++/34iOjtbOAAAAgA+dPXtWJk+eLE2bNpVf/vKX5unTp107rH8wqO+9916jefPm2l1q7PI4cceOHY177rlHO0PNtGnTxPz2Pd+gKj4+XjsBAAAACvLz8+Wvf/2r3HnnnTJp0iTz4sWLrnt97rneXxw3bpx2l5qdO3fK5s2bbfEbISEhQTtBzaFDh2TdunXaGRCR2NhYCQoK0s4AAACAkry8PJk8ebLccccd8vLLL5sFBQW22FMV4bqDOj4+Xvz8/LTb1KSmpmonlMnYsWMlODhYO0ONXa6T00VGRhqDBg3SzgAAAICyixcvyvPPPy9NmzaVjIwM0w1PlF53UNetW9d46KGHtNvUvPvuu5Kbm2v5i1+tWjVXD5kFCxaIGx8rsSI3/0w/AAAA/t2JEyckLi5OevbsKdu2bXP063XPj/0NN79AzsvLkwULFmhnlImbr9PVq1fl3Xff1c6AiPTu3VsaN26snQEAAAALWbdunXTo0EF+8YtfmHa4YVkePzqoH330Ualdu7Z2nxq7HE7Wu3dvueOOO7Qz1NjlOjmdx+Mx3Pwz/QAAALi+kpIS+dvf/ibNmzeX999/33Gj+kcHtb+/v+Hmw8n+/ve/y+7duy1/wQ3DMOLi4rQz1Hz55Zfy1VdfWf46uUFiYqKrz14AAADAjzt16pQMHTpUBg4c6Kj3r/bc6G+OHz9eDMPQblSTlpamnVAmCQkJrh4y3KW2hrp16xoPP/ywdgYAAAAsbMmSJRIdHe2Yu9U3HNTNmjUzunTpot2oJj09Xa5du2b5C12vXj3jwQcf1M5QM3PmTMnPz7f8dXIDN/9MPwAAAMrm/PnzMnToUImNjTXz8vJs/Trec7N/wM0vkM+dOycfffSRdkaZuPk65eTkyMKFC7UzICIDBw6UOnXqaGcAAADABjIzMyU6Olo2btxo21F900E9cuRIqVKlinanGrs8Tswhcva4Tk7n7+9vxMbGamcAAADAJg4fPiw9evSQP//5z7Z83+qbDupKlSoZI0aM0O5Us3z5cjl27JjlL2xAQIAxZswY7Qw1a9eulYMHD1r+OrlBYmKiq89eAAAAwK0pKiqSX/3qVzJ48GDJycmx1Wv6mw5qEXc/TlxaWiozZszQziiTCRMmuHbImKZpm0PknK5Zs2ZGt27dtDMAAABgMx9++KHce++9tni3pW+VaVB36tTJuPvuu7Vb1aSmpkppaanlL2rz5s2N+++/XztDTWpqqhQXF1v+OrnB+PHjtRMAAABgQ/v27ZP7779fFi1aZIvX9WUa1CL/eGsmtzpy5IisXr1aO6NM3Pw0QXZ2tixbtkw7AyIydOhQqVq1qnYGAAAAbOjy5csyaNAgefHFFy0/qss8qMeNGyfBwcHavWrscujVyJEjJTw8XDtDjV2uk9NVqlTJiImJ0c4AAACATZmmKb///e9l4sSJppWfQi3zoK5WrZoxaNAg7V4177//vpw7d86yF/JblStXNkaOHKmdoeajjz6SrKwsy18nN0hOTtZOAAAAgM1NnTpVBgwYILm5uZZ8jV/mQS3i7seJCwsLZfbs2doZZeLm61RcXCyZmZnaGRCR6Ohoo3379toZAAAAsLmPP/5Y+vTpIxcuXLDcqL6lQd27d2+54447tJvVTJ8+XTuhTO69914jOjpaO0PNtGnTxI7vYedEbv7mDgAAACrO559/Ll27drXc06i3NKgNwzDi4uK0m9Xs2LFDvvjiC0tdwB8THx+vnaDmm2++kfXr12tnQERiYmIkJCREOwMAAAAOsHv3bunZs6ccP37cMpvslga1yD9O+/bz89PuVmOXQ69iY2MlKChIO0ONXa6T00VERBjDhw/XzgAAAIBD7N+/X7p27SoHDx60xKi+5UFdr14948EHH9TuVvPuu+/KlStXLHHxbiQyMtJ47LHHtDPULFiwQC5evGj56+QGPPYNAACAinT06FHp2bOnHD58WP31/i0PahF3v0C+fPmyLFiwQDujTNx8na5evSpz5szRzoCIdO3a1WjZsqV2BgAAABzkxIkT0rdvX/WfqS7XoH7sscekdu3amt2q7PI4cZ8+faRhw4baGWrscp3cICEhQTsBAAAADvPNN99Iz5495fTp02qjulyD2t/f3xg7dqxWs7oNGzbInj171B8vuBmPx2O4echs3bpVvvrqK8tfJzeIi4uTgIAA7QwAAAA4zP79+6Vfv35y6dIlldf95RrUIiLjx48XwzA0mi0hPT1dO6FMkpKSXH2IXGpqqnYCRKRmzZrGwIEDtTMAAADgQF999ZU8+uijcu3aNZ+P6nIP6ubNmxudO3f2da9lzJgxQ4qKiix/97NevXpGnz59tDPUZGZmSn5+vuWvkxu4+Wf6AQAA4F0bNmyQuLg4MU3Tp6/9yz2oRdz9Avn06dPy0UcfaWeUiZuvU05OjixcuFA7AyLy8MMPS4MGDbQzAAAA4FBz586VF1980ae/5m0N6hEjRkh4eLhPg63ELodePfbYY1KjRg3tDDV2uU5O5/F4jPj4eO0MAAAAONgf/vAHmTJlis/uUt/WoK5cubIxatQoX7VazrJly+T48eOWf5w4MDDQ1YfIrV271jJv/O52iYmJ4vHc1h87AAAAwA098cQTsnHjRp+8/r/tV7Zufpy4pKREMjMztTPKJDk5WTtBjWmakpaWpp0BEWnYsKGrf6YfAAAA3ldYWChDhw71yXtU3/ag7tSpk3H33Xf75jNjQdOnT5fS0lLL3/1s0aKFcd9992lnqElNTZXi4mLLXyc3cPM34QAAAOAb2dnZMmzYMCksLPTqBqiQZy/d/F7Hhw8flnXr1mlnlImbh0x2drYsX75cOwMiMmjQIFf/TD8AAAB8Y9OmTfLss8969deokEE9duxYCQ4O9sknxYrscujVqFGjJCwsTDtDjV2uk9MFBgYa48aN084AAACAC7z55psyb948r92lrpBBHRkZaTz22GO++6xYzHvvvScXL160/OPEoaGhxvDhw7Uz1CxZskROnTpl+evkBhMmTBDDMLQzAAAA4AITJ06Uo0ePemUHVNhxu25+nLigoEBmz56tnVEmbr5OxcXFkpGRoZ0B+cfP9N9///3aGQAAAHCBS5cuybhx46SkpKTCR3WFDeo+ffrIHXfc4dvPjIVMnTpVO6FMOnfubLRq1Uo7Q01qaqqYpsldagtw8zd3AAAA4FsbNmyQV199tcL/uxU2qA3DMGJjY336SbGS7du3y5dffmmLoZaYmKidoGb//v2yYcMG7QyIyMiRIyU8PFw7AwAAAC7xwgsvyJYtWyp0s1XYoBb5x1Dz8/Pz7WfFQuxy6FV8fLwEBQVpZ6ixy3VyusqVKxujRo3SzgAAAIBLFBUVSUJCQoW+lVaFDup69eoZDz74oO8/MxYxa9Ysyc/Pt/xd6sjISGPAgAHaGWrmz58vly5dsvx1cgMe+wYAAIAv7dy5UyZPnlxh/70KHdQi7n6BnJOTI++99552Rpm4+TpdvXpV5syZo50BEenUqZNxzz33aGcAAADARf70pz/J7t27K+QGW4UP6oEDB0rNmjV9/1mxCLs8TvzQQw9JgwYNtDPU2OU6uUFCQoJ2AgAAAFzk2rVrkpSUJKWlpbc9qit8UAcGBhrjxo3T+cxYwPr16+XAgQOWf5zY4/EY8fHx2hlqtmzZItu2bbP8dXKDsWPHSnBwsHYGAAAAXGTz5s0ybdq02/7vVPigFhGZMGGCGIbh80+KFZimKWlpadoZZZKQkCAej1d+C9hCamqqdgJEpFq1asaQIUO0MwAAAOAyzz//vFy4cOG2brJ5ZU01b97cuP/++3U+KxaQlpYmRUVFlr/72ahRI6N3797aGWoyMzPl6tWrlr9ObuDmn+kHAACAjgsXLshLL710W/8Nr92edPML5OzsbFm2bJl2Rpm4+TpdunRJFi5cqJ0BEenZs6fceeed2hkAAABwmbfeekt27dpV7ptsXhvUI0eOlPDwcJ3PigXY5dCrwYMHS/Xq1bUz1NjlOjmdYRgGh5MBAADA14qLi+XZZ58t97/vtUFduXJlY+TIkSqfFCtYunSpZGVlWf5x4sDAQGPMmDHaGWrWrFkjBw8etPx1coP4+Hjx9/fXzgAAAIDLLF26VFatWlWuTeDVE6nc/DhxcXGxZGRkaGeUyfjx47UT1JimKenp6doZEJGoqCijf//+2hkAAABwod/97nfl+ve8Oqjvvfde4+6771b5hFjBtGnTxDRNy9/9bNOmjdGpUyftDDXp6elSUlJi+evkBm7+JhwAAAD0bNq0SZYtW3bLm8Dr75nk5vc6PnTokKxfv147o0zcPGROnjwpy5cv186AiPTv31+ioqK0MwAAAOBCv/vd7275hqjXB/W4ceMkKChI77OizC6HXsXExEhoaKh2hhq7XCen8/f3N9z8TTgAAADo2bp1q3z44Ye39O94fVBHRkYajz32mNonRduCBQvk4sWLln+cODQ01Bg2bJh2hprFixfLqVOnLH+d3CAxMVEMw9DOAAAAgAv98Y9/vKV/3uuDWsTdjxNfvXpV5syZo51RJm6+TsXFxZKZmamdARG54447jJ49e2pnAAAAwIW+/PJLWb16dZlvtPlkUPft21eaNGmi91lRZpfHiR944AGjZcuW2hlqUlJSbHGInBu4+Zs7AAAA0PXnP/+5zP+s4av98Pvf/9588cUXlT4l+r788ktp27at5Z9jfe2118zbeWNzu1u/fr107drV8tfJ6QoKCky7vO0cAABAeeXk5Hz3/y5fvixZWVmyZ88eOXnypHaaqxmGITt27JDWrVvfdBf4bFCfOHHCbNSokZSUlGh/flQ8/vjj8tZbb1l+qJ0+fdqsX7++FBUVaaeoiIuLk/T0dMtfJwAAADjXpUuXzD179siOHTtk3bp1smrVKjl9+rR2lqskJiZKSkqKdQa1iEi/fv1Mt749UZUqVeTkyZMSEhJi+bE2ZMgQc+HChdoZKipVqiRZWVlSpUoVy18nAAAAuINpmuaOHTtk5cqVsmDBAtm0aZN2kuMFBQXJyZMnJTIy8oa7wCc/Q/0tN/9c5KVLl+SDDz7QzigTN18nOx0iBwAAAHcwDMOIjo42nn76aWPjxo3G3r175YUXXpCGDRtqpznWtWvXynRosU/vUBcWFpr169eXM2fOaH5u1PTq1UtWrVpl+TufpaWlZqNGjeT48ePaKSo6dOggX3zxheWvEwAAANytpKTEfP/99+Wll16S7du3a+c4TuvWrWXnzp3WuUMdGBhojB07VvezomjNmjVy8OBBy58i7fF4jNjYWO0MNVu2bJFt27ZZ/joBAADA3fz8/Izhw4cb27Ztk0WLFknHjh21kxxl165dsmnTphvuAp8OahGRCRMmiGG48+afaZqSnp6unVEmSUlJ4vH4/LeHZaSmpmonAAAAAGViGIYxcOBA47PPPpPZs2dL7dq1tZMcY9q0aTf8+z595PtbnTt3Nt36g/R169aVo0ePip+fn+W/q9C7d29z9erV2hkqqlSpIllZWVKpUiXLXycAAADgX126dMn8zW9+I++8846UlpZq59ha5cqV5fTp01K5cuXr7gKVW5BuPvTq5MmTYpeTzt18nex0iBwAAADwr6pUqWK8/fbbxsaNG6Vp06baObZ25coVWbJkyY/+fZVBPWrUKAkPD1f7pGhLSUnRTiiTIUOGSLVq1bQz1NjlOgEAAADXc++99xpbt26VUaNGaafY2ty5c3/076kM6sqVKxsjRoxQ+4RoW7x4sZw6dcryh14FBwcbY8aM0c5Qs3r1avnmm28sf50AAACAHxMWFma8++67xpQpUyQoKEg7x5aWLVsmOTk5190FaqdOuflx4uLi4jK9p5kVTJgwQTtBjZ0OkQMAAABuJDk52Vi1apVUrVpVO8V2CgoKZPHixdf9e2qD+r777jOio6PVPinaUlJSxNQ4Ee4W3XXXXUb79u21M9SkpaVJSUmJ5a8TAAAAcDNdunQx1q1bJ1FRUdoptjN//vzr/nXV90WKj4/X/OVV7d+/X/7+979rZ5SJm58msNMhcgAAAMDN3HXXXcbGjRulWbNm2im2smrVKikoKPjBjTbVQR0bG+vq5/jtcuhVTEyMhISEaGeosct1AgAAAMqiYcOGxtq1a6VJkybaKbZx5coVWb9+/Q/+uuqgjoyMNB577DHNBFVz586VS5cuWf5x4oiICGPYsGHaGWrscogcAAAAUFZ16tQxVqxYIbVq1dJOsY2PP/74B39NdVCLuPtx4qtXr97wCHYrcfN1Ki4ulpkzZ2pnAAAAABXqjjvuMFasWCERERHaKbawbNmyH/w1Q/tcrNLSUrNJkyZy9OhR1Q4tHTt2lM8//9zQ7iiLli1bmnv37tXOUNGsWTPZu3evGIZhi2sFAAAAlNXy5cvNRx55REpLS7VTLO/w4cPSqFGj7zaB+h1qj8djJCQkaGeo+eKLL2Tbtm22eJyYQ+TscYgcAAAAcCsefvhh47/+67+0M2xh9erV//Z/qw9qkX88Tuzn56edoSYtLU07oUzi4+MlICBAO0MNh5MBAADAqf7whz9I7969tTMs7z9vslliUNerV8/o06ePdoaamTNnXvcIdqupVauW0b9/f+0MNXY5RA4AAAC4VR6Px5gxY4bUqFFDO8XSLDmoRdx96NWFCxfkgw8+0M4oEzdfJzsdIgcAAADcqrp16xr/8z//o51hafv375czZ858d5PNMoP6sccec/V3Q+zyOHG/fv0kKipKO0ONXa4TAAAAUB5jxowxevXqpZ1hWaZpysaNG7/7vy0zqAMDA41x48ZpZ6hZtWqVfPPNN5Z/nNjf39+Ii4vTzlBjp0PkAAAAgPJ4++23JTAwUDvDsiw5qEVEJkyYoJ2gxjRNmTFjhnZGmYwfP17c/O5RdjlEDgAAACiPFi1aGE8//bR2hmV9/fXX3/3/1d+H+j917tzZ3LRpk3aGinr16smRI0fEz8/P8mu1Z8+e5tq1a7UzVFSrVk1OnjwpwcHBlr9OAAAAQHnk5OSYjRo1kkuXLmmnWE7t2rXl1KlThojF7lCLuPvQqxMnTsiKFSu0M8rEzdfJTofIAQAAAOURERFh/PSnP9XOsKTs7OzvDiaz3KAeOXKkhIWFaWeoscuhV0OHDpWqVatqZ6ixy3UCAAAAyuuZZ56R0NBQ7QxL2rFjh4hYcFCHhoYaI0aM0M5Qs2jRIsnOzrbWc/jXUalSJWP06NHaGWrscogcAAAAUF6RkZGGm8+5upHt27eLiAUHtYi7HycuKiqSWbNmaWeUycSJE7UT1NjpEDkAAACgvJKTk7UTLGnPnj0iYtFBff/99xutW7fWzlAzbdo0Ma12Wtx1REdHG23bttXOUJOamiolJSWWv04AAABAebVo0cLo2LGjdoblHDlyREQsOqhFRBITE7UT1Ozbt0/sctK5m58mOHnypHz88cfaGQAAAIBXxcbGaidYzuHDh0XEwoM6Li5OgoKCtDPU2OXQq7Fjx0pISIh2hhq7XCcAAACgvEaPHi2BgYHaGZZy7NgxKSkpMS07qCMjI41HH31UO0PN3Llz5fLly5Z/nDgiIsIYPHiwdoYauxwiBwAAAJRXZGSk0aVLF+0MSyksLJSsrCzr3qEWcffjxFeuXJF58+ZpZ5SJm69TcXGxzJw5UzsDAAAA8KrevXtrJ1jOoUOHrD2o+/btKw0bNtTOUGOXx4l79Oghd955p3aGmunTp9viEDkAAACgvHr16qWdYDnZ2dnWHtQej8eIj4/XzlCzefNm2b59u+WHmmEYRkJCgnaGmn379snGjRu1MwAAAACv6dixo4SHh2tnWMq5c+esPahF/vE4sZ+fn3aGmvT0dO2EMklMTBR/f3/tDDV2eZoAAAAAKA9/f3/j/vvv186wlPPnz1t/UNevX99w8/P6GRkZcu3aNcvfpa5du7bRr18/7Qw18+bNs8UhcgAAAEB5tWjRQjvBUmwxqEXcfejV+fPn5cMPP9TOKBM3X6crV67InDlztDMAAAAAr2nevLl2gqXY4pFvEZFBgwZJjRo1tDPU2OVx4kceeUTq1KmjnaHGLtcJAAAAKI+WLVtqJ1iKbe5QBwYGGmPHjtXOULNy5Uo5evSo5R8n9vf3N2JjY7Uz1Hz++efy9ddfW/46AQAAAOXBHep/l5+fb49BLSKSnJysnaCmtLRU0tLStDPKJDExUQzD0M5QY5frBAAAANyqmjVruvq1/n8qLCy0z6Bu0aKFcd9992lnqElJSZGSkhLL3/1s1qyZ0bVrV+0MNZmZmVJQUGD56wQAAADcKj8/P6NSpUraGZZx7do1+wxqEXcfenXixAlZuXKldkaZuPk6XbhwQT744APtDAAAAMAreC/q7xUUFNhrUI8aNUrCwsK0M9TY5dCr4cOHS5UqVbQz1NjlOgEAAAC3ys177D/Z7g51aGioMWLECO0MNR9++KGcPXvW8o8TV6pUyRg1apR2hppVq1bJN998Y/nrBAAAANyq0NBQ7QTLsNXPUH/LzY8TFxYWysyZM7UzysTN18k0TZkxY4Z2BgAAAFDhPB7bTUivMU3TfoP6/vvvN1q3bq2doWbq1KnaCWXSoUMH45577tHOUJOWlmaLQ+QAAAAAlJ/tBrXIP96aya327t0rmzdvtsVQc/N1OnHihKxYsUI7AwAAAIAX2XJQx8XFSVBQkHaGGrscejVu3Dhx87H6drlOAAAAAMrHloM6MjLSGDhwoHaGmjlz5khubq7l71JXqVLFGDRokHaGmg8//FCys7Mtf50AAAAAlI8tB7WIuw+9ysvLk/nz52tnlImbr1NxcbFtDpEDAAAAcOtsO6gffPBBadiwoXaGGrs8TtyrVy+54447tDPUTJ8+XUzT5C41AAAA4EC2HdQej8eIj4/XzlCzceNG2b17t+WHmmEYrr5O+/btk40bN2pnAAAAAPAC2w5qkX88Tuzn56edoSY1NVU7oUwSEhJcfZ3s8jQBAAAAgFtj60Fdv359o3fv3toZambMmCHXrl2z/F3qunXrGg899JB2hpp58+bJ5cuXLX+dAAAAANwaWw9qEXcfenXu3DlZsmSJdkaZuPk6XblyRebOnaudAQAAAKCC2X5QDxo0SGrUqKGdocYujxM/+uijUrt2be0MNXa5TgAAAADKzvaDOjAw0BgzZox2hpqPP/5Yjh07ZvnHif39/Y1x48ZpZ6j57LPP5Ouvv7b8dQIAAABQdrYf1CLufpy4tLRUZsyYoZ1RJuPHjxfDMLQz1KSnp2snAAAAAKhAjhjUbdq0Me69917tDDWpqalSWlpq+bufzZo1Mzp37qydoSYzM9MWh8gBAAAAKBtHDGoRd9+lPnLkiKxevVo7o0zcfJ3Onz8vH3zwgXYGAAAAgArimEE9evRoCQsL085QY5dDr0aMGCHh4eHaGWrscp0AAAAA3JxjBnVoaKgxfPhw7Qw177//vpw7d87yjxNXrlzZGDVqlHaGmpUrV8o333xj+esEAAAA4OYcM6hF3P04cWFhocyaNUs7o0zcfJ1M05SMjAztDAAAAAAVwFGDunPnzkarVq20M9RMnz5dO6FMOnXqZNx9993aGWpSU1OlpKSEu9QAAACAzTlqUIuIJCYmaieo2blzp3zxxRe2GGoJCQnaCWpOnDghn3zyiXYGAAAAgNvkuEEdFxcnQUFB2hlq7HLo1dixY7lOAAAAAGzNcYO6evXqxoABA7Qz1MyaNUvy8vIsf5c6MjLSGDRokHaGmkWLFsmZM2csf50AAAAA/DjHDWoRdx96lZeXJwsWLNDOKBM3X6fCwkLJzMzUzgAAAABwGxw5qB966CFp0KCBdoYauzxO3KdPH7njjju0M9RMmzZNTNPkLjUAAABgU44c1B6Px4iPj9fOUPPpp5/Knj17LD/UDMMwYmNjtTPU7Nu3TzZt2qSdAQAAAKCcHDmoRf5xirTH49gP76bS0tK0E8okMTFR/Pz8tDPU2OVpAgAAAAA/5NjF2ahRI6N3797aGWoyMjKkqKjI8nep69WrZ/Tt21c7Q83cuXPl8uXLlr9OAAAAAH7IsYNaxN2HXp0+fVqWLFminVEmbr5OV65ckXnz5mlnAAAAACgHRw/qwYMHS40aNbQz1NjlceJHH31UatasqZ2hxi7XCQAAAMC/c/SgDgwMNGJiYrQz1CxfvlyOHz9u+ceJAwMDjbFjx2pnqNm8ebN8/fXXlr9OAAAAAP6dowe1iMj48eO1E9SUlJRIRkaGdkaZTJgwQQzD0M5Qk56erp0AAAAA4BY5flC3adPG6NSpk3aGmpSUFCktLbX83c8WLVoY9913n3aGmszMTLl27ZrlrxMAAACA7zl+UIu4+9Crw4cPy9q1a7UzysTN1+n8+fPy4YcfamcAAAAAuAWuGNQxMTESGhqqnaHGLodejRo1SsLCwrQz1NjlOgEAAAD4B1cM6tDQUGP48OHaGWref/99uXDhguUfJ65cubIxYsQI7Qw1K1eulKNHj1r+OgEAAAD4B1cMahF3P05cUFAgs2fP1s4oEzdfp9LSUklLS9POAAAAAFBGrhnUXbp0MVq1aqWdoWbatGnaCWVy//33G9HR0doZalJSUqSkpIS71AAAAIANuGZQi4gkJCRoJ6jZvn27bN261RZDLS4uTjtBzYkTJ+STTz7RzgAAAABQBq4a1PHx8RIUFKSdocYuh17FxcVxnQAAAABYnqsGdfXq1Y0BAwZoZ6iZPXu25OfnW/4udWRkpPHoo49qZ6hZtGiRnDlzxvLXCQAAAHA7Vw1qEXcfepWTkyPvvfeedkaZuPk6FRYWysyZM7UzAAAAANyE6wb1Qw89JA0aNNDOUGOXx4n79u0rDRs21M5QM23aNDFNk7vUAAAAgIW5blB7PB7DzYderVu3Tvbu3Wv5oebxeIz4+HjtDDV79+6VzZs3a2cAAAAAuAHXDWoRkcTERPF4XPmhi4jIjBkztBPKJCkpSfz8/LQz1NjlaQIAAADArVy5Khs1amT06tVLO0NNWlqaFBUVWf4udf369Y3evXtrZ6iZM2eO5ObmWv46AQAAAG7lykEt4u5Dr06fPi3Lli3TzigTN1+nK1euyNy5c7UzAAAAAPwI1w7qIUOGSPXq1bUz1NjlceJBgwZJjRo1tDPU2OU6AQAAAG7k2kEdGBhojBkzRjtDzdKlSyUrK8vyjxO7/Tpt3rxZtm/fbvnrBAAAALiRawe1iMj48eO1E9QUFxfb6nAyN0tPT9dOAAAAAHAdrh7Ubdq0MTp16qSdoWb69Om2eK/jNm3aGPfee692hpqMjAy5du2a5a8TAAAA4DauHtQi7r77eejQIVm3bp12Rpm4+TqdP39eFi1apJ0BAAAA4D+4flDHxMRIaGiodoYauxx6NXr0aAkLC9POUGOX6wQAAAC4iesHdWhoqDFs2DDtDDXvvfeeXLx40fKPE7v9On3yySdy9OhRy18nAAAAwE1cP6hF3P048dWrV+Xdd9/VzigTN1+n0tJSSUtL084AAAAA8C8Y1CLywAMPGC1bttTOUGOXx4m7dOlitGrVSjtDTUpKipSUlHCXGgAAALAIBvU/JSQkaCeo+fLLL+Wrr76yxVBz83U6ceKErFy5UjsDAAAAwD8xqP8pLi5OAgICtDPU2OUudXx8vAQFBWlnqLHLdQIAAADcgEH9TzVr1jQGDhyonaFm5syZkp+fb/m71NWrVzceeeQR7Qw1H374oZw9e9by1wkAAABwAwb1v3DzoVc5OTmycOFC7YwycfN1KiwslJkzZ2pnAAAAABAG9b956KGHpF69etoZauzyOPFDDz0kdevW1c5QM336dO0EAAAAAMKg/jd+fn5GfHy8doaatWvXysGDBy3/OLGfn58xePBg7Qw1u3fvls2bN1v+OgEAAABOx6D+D4mJieLxuPPTYpqmbd7reMCAAdoJqrhLDQAAAOhz53K8gcaNGxs9e/bUzlCTmpoqxcXFlr/7ee+994phGNoZaubOnSu5ubmWv04AAACAkzGor2P8+PHaCWqys7Nl2bJl2hk3VaVKFcPNP0edl5cn8+bN084AAAAAXI1BfR1DhgyR6tWra2eoSU1N1U4ok6ioKO0EVXY5RA4AAABwKgb1dQQGBhoxMTHaGWqWLFkip06dsvzjxGFhYdoJqjZt2iS7du2y/HUCAAAAnIpB/SPc/F7HxcXFkpGRoZ1xU6bJluQuNQAAAKCHQf0joqOjjY4dO2pnqElNTRXT4ov1woUL2gnqMjIy5Nq1a5a+TgAAAIBTMahvwM2Hk+3fv182bNignXFDWVlZ2gnqzp8/L4sWLdLOAAAAAFyJQX0Do0ePltDQUO0MNVY+nCw7O9s8c+aMdoYl8Ng3AAAAoINBfQNhYWHGsGHDtDPUzJ8/X3Jyciz5OPGmTZu0Eyzjk08+kWPHjlnyOgEAAABOxqC+icTERO0ENfn5+TJnzhztjOviMefvlZaWSlpamnYGAAAA4DoM6pt44IEHpEWLFtoZaqZPn66d8AMFBQXm4sWLtTMsJS0tTUpLS7lLDQAAAPgQg/omDMMw3HyXesuWLfL1119baqjNnTtXzp8/r51hKUePHpVPPvlEOwMAAABwFQZ1GcTGxkpAQIB2hpq33npLO+E7JSUl5quvvqqdYUlWPkQOAAAAcCIGdRnUqlXLGDBggHaGmlmzZklWVpYl7lJPmzZNdu/erZ1hSR988IGcO3fOEtcJAAAAcAMGdRklJSVpJ6gpKCiQ559/XjtDsrKyTCt0WFVhYaFkZmZqZwAAAACuwaAuo4cffljq1aunnaEmIyNDVq1apXb3s7i42Bw7dqxcvHhR+1NhabwnNQAAAOA7DOoy8vPzM+Lj47Uz1JimKePGjZPs7GyVUf3kk0/KmjVrtD8Nlrdr1y7ZvHkzj30DAAAAPmCYJq+9y+rQoUNm06ZNpbS0VDtFTdu2bWXt2rUSHh5u+OrX/N3vfme+9NJL2h+6bYwfP16mTZvms+sDANBx7tw5c+3atbJlyxbZv3+/7Nu3T86fPy9XrlyRvLw87Tw4WGBgoFSuXFmqVq0qDRo0kGbNmknr1q2le/fuEh0dLYZh8DrEwTp06GBu3bpVO8MSoqKiGNS3qk+fPuaqVau0M1Tdd999snjxYqlevbpX/7AsKSkxn3zySfnb3/6m/SHbSlhYmGRlZUloaChfzADAYU6dOmXOmjVL3n33Xdm2bZurv8kPa6pevboMGDBA4uLipFu3buLxeHg94jAM6u9FRUXxyPetcvPhZN/avHmzdOnSxavvT52VlWU+/PDDjOlyyM3NlXnz5mlnAAAq0LZt28zhw4eb9evXl1//+tfy5ZdfMqZhSefOnZP09HTp2bOnNG3aVN555x3z2rVr3MGDYzGob9HgwYOlWrVq2hnq9u/fL/fdd59MnjzZLCwsrLA/JEtLS8309HTz7rvvlpUrV2p/mLY1ffp07QQAQAU4cuSIOXjwYLNdu3ayYMECKSkp0U4CyuzQoUPy05/+VJo0aSIzZswwTR6NhQMxqG9RcHCwMWbMGO0MSygoKJBJkybJXXfdJZmZmWZRUVG5/5AsLS01P/zwQ7NTp06SkJAg586d0/7wbG3Tpk2ye/duvmgBgE2VlJSYkydPNlu3bi0ffPCBsENgZ1lZWRIfHy/du3eXffv28ZsZjsKgLofx48drJ1jK/v37JTY2Vho3bizPPvus+dlnn5nFxcU3/cOytLTU3LZtm/nCCy+YLVu2lEGDBgk/j1FxeAstALCnM2fOmP3795dJkyZJfn6+dg5QYTZs2CAdOnSQWbNmMarhGBxKVk6dOnUyv/jiC+0MywoPD5d27dpJs2bNpE6dOlKlShUpLCyUoqIiOX78uHzzzTfyxRdfSE5OjnaqY9WoUUNOnDghgYGBHAYCADbx5Zdfmo888ohkZ2drpwBe9eSTT8qf//xnDi2zIQ4l+x6nfN+Gd955x/zpT3+qnQHc0Pz582XYsGF8oQIAG1izZo05aNAguXz5snYK4BMxMTGSlpbGN/9thkH9PU75vg0xMTESEhKinQHcEI99A4A9bN682Rw4cCBjGq4ye/ZsiY2NldLSUu7wwbYY1OUUHh5uDB8+XDsDuKEVK1bI0aNH+SIFABa2Y8cOs1+/fnLlyhXtFMDn5s6dK0899ZR2BlBuDOrbwHtSw+pKS0tlxowZ2hkAgB9x6dIlc9CgQXLp0iXtFEDNX//6V0lPT+cGAGyJQX0bunbtarRs2VI7A7ih6dOnS0lJCV+kAMCCkpKS5NChQ9oZgLrHH3+ct/yELTGob1N8fLx2AnBDx48fl9WrV2tnAAD+w8yZM833339fOwOwhCtXrkhcXBw/Tw3bYVDfpri4OAkICNDOAG6Iw8kAwFouX75sPvfcc9oZgKVs2bJFpk+frp0B3BIG9W2qVauW8cgjj2hnADe0cOFCOXv2LN/xBQCLeOmllyQrK0s7A7Cc3/zmN5KXl8drFtgGg7oCcDgZrK6wsFBmzZqlnQEAEJELFy6Y77zzjnYGYEnnzp0T/vcBO2FQV4B+/fpJ/fr1tTOAG+KxbwCwhrfeektyc3O1MwDLeuONN6SwsJC71LAFBnUF8PPzM2JjY7UzgBvauXOnfPbZZ3xxAgBFpaWlZmpqqnYGYGmnTp2SZcuWaWcAZcKgriBJSUni8fDphLVxlxoAdK1Zs0aOHTumnQFYXmZmpnYCUCYswArSuHFjo0ePHtoZwA29++67kpuby11qAFDC22QBZbN06VK5du0ar1lgeQzqCsThZLC6vLw8WbBggXYGALjW6tWrtRMAW7h69aps3rxZOwO4KQZ1BRoyZIhUq1ZNOwO4IR77BgAdp06dMvfu3audAdjGmjVrtBOAm2JQV6Dg4GAjJiZGOwO4ob///e+ye/duHqECAB/bvn27dgJgKzt37tROAG6KQV3BJkyYoJ0A3FRaWpp2AgC4DnengVuzb98+7QTgphjUFSw6Otpo3769dgZwQ+np6Rz0AQA+dvjwYe0EwFYOHTqknQDcFIPaCzicDFZ37tw5WbJkiXYGALjK5cuXtRMAW8nPz5eioiJuAMDSGNReEBMTIyEhIdoZwA1xOBkA+FZubq52AmA7eXl52gnADTGovSAiIsIYNmyYdgZwQx9//LEcO3aM7/oCgI+UlpZqJwC2U1xcrJ0A3BCD2kt47BtWV1paKunp6doZAOAaoaGh2gmA7YSHh2snADfEoPaSbt26GS1atNDOAG4oLS1NSktLuUsNAD4QFhamnQDYSmBgoAQFBRnaHcCNMKi9KD4+XjsBuKEjR47IqlWrtDMAwBXq1q2rnQDYSr169bQTgJtiUHtRfHy8BAQEaGcAN8ThZADgG82bN9dOAGyF/83ADhjUXlSrVi3jkUce0c4AbmjhwoVy9uxZHvsGAC9r1aqVdgJgKwxq2AGD2ss4nAxWV1hYKLNnz9bOAADHa968udSsWVM7A7CNBx54QDsBuCkGtZf169dP6tevr50B3ND06dO1EwDA8QzDMLp3766dAdiCYRjC/15gBwxqL/Pz8zPGjRunnQHc0M6dO+Xzzz/nsW8A8LJ+/fppJwC20LFjR6levTonfMPyGNQ+MH78ePF4+FTD2jicDAC8b+jQoRISEqKdAVjemDFjtBOAMmHl+UDjxo15xAuWN3v2bMnLy+MuNQB4UXh4uDFo0CDtDMDSAgICZNSoUdoZQJkwqH2Ew8lgdXl5eTJ//nztDABwvF/96ldiGDzJCvyYMWPGSM2aNfkfCWyBQe0jQ4cOlapVq2pnADfEY98A4H1t27Y1HnzwQe0MwJI8Ho/8+te/1s4AyoxB7SPBwcEGPwsCq/v73/8uu3fv5rFvAPCyl156ifNVgOuIjY2VVq1acXcatsGf5D40YcIE7QTgptLS0rQTAMDxOnToYPzkJz/RzgAsJTw8XP77v/9bOwO4JQxqH4qOjjbat2+vnQHcUHp6uly7do271ADgZS+99JLUr19fOwOwjNdff13q1KnD3WnYCoPaxzicDFZ37tw5+eijj7QzAMDxqlatasybN08CAgK0UwB1w4cPlwkTJjCmYTsMah+LiYnh/SdheRxOBgC+cd999xkvv/yydgagqkWLFjJt2jTtDKBcGNQ+FhERYQwdOlQ7A/hRHo9HSkpKpLi4mMe+AcAHnnnmGePpp5/WzgBUREVFybJlyyQiIoK707AlBrUCHvuGFUVFRclzzz0nBw4ckOXLlxv+/v58YQMAH3nttdckISFBOwPwqZo1a8qyZcukUaNGvOaAbflrB7hR9+7djRYtWph79+7VToHLBQYGyoMPPiixsbEyePBgYUQDgA6Px2OkpKSYDRo0kN///vfaOYDXNWrUSD7++GNp1qwZrz1ga9yhVhIXF6edABdr3ry5vPLKK3L8+HFZvHixMXz4cO5IA4AywzCMF1980ZgyZYoEBwdr5wBe06tXL9m8eTNjGo7AoFaSkJDAqZ7wqUqVKsnw4cPlk08+kT179shzzz1n1KxZky9kAGAxycnJxubNm6VFixbaKUCF8vf3l//3//6frFixQmrVqsVrEDgCg1pJrVq1jP79+2tnwAXat28vU6ZMkdOnT8u8efOMPn36GIZh8EUMACzs7rvvNrZv3y5/+ctfJDQ0VDsHuG0PPPCAbN26VX7/+98bfn5+vA6BYzCoFXE4GbylatWqkpycLNu2bZMtW7YYycnJRlhYGF+8AMBGAgICjF/+8pfGrl275Oc//zmPgcOW2rZtKwsWLJD169dLdHQ0r0XgOIZp8s44WoqLi82GDRtKVlaWdgocwOPxSK9evSQ5OVkee+wxCQwM5IsWADhIdna2mZqaKpmZmcLBprCySpUqyaBBgyQ+Pl769u0rPBnnLB06dDC3bt2qnWEJUVFRDGptzz//vPnyyy9rZ8DG6tWrJ2PGjJGf/OQnvO0EALjEl19+aa5atUpWr14tX3zxhZw/f147CS4WGBgozZs3l+7du0vPnj2lT58+Eh4ezmsSh2JQf49BbQGHDh0y77zzTuE64FYEBQXJo48+KuPGjZP+/fsLP4sEAO52/vx5c9++fXLhwgXJzc2V3Nxc7SQ4WFBQkISGhkrVqlWlQYMG0qhRI95600UY1N+Liorifai1NWnSxOjevbu5du1a7RTYQKtWrSQ2NlaSkpKkevXqfOECAIiISGRkpNG5c2ftDABwHQa1BSQlJQmDGj8mPDxcRo0aJePGjZMHHniAEQ0AAABYBI98W0BBQYEZFRUlFy9e1E6BhbRv316Sk5NlzJgxUrlyZYY0AAAA1PHI9/eioqJ42ywrCA4ONmJiYrQzYAG1a9eWJ554Qnbs2PHd210xpgEAAABrYlBbRHJysnYClHg8HunTp4/MmzdPjh07Jm+++abRpk0bRjQAAABgcfwMtUVER0cb7dq1M7/88kvtFPhI06ZNJSYmRhITE6VBgwYMaAAAAMBmGNQWkpSUJAxqZwsODpaBAwdKcnKy9O7dWwzDYEgDAAAANsWhZBaSk5NjRkVFSX5+vnYKKti3b3c1fvx4iYyMZEQDAADAljiU7Hu8D7XFREREGEOGDDFnzpypnYIKEBERISNHjpSJEydKu3btGNEAAACAw3AomcUkJSVpJ+A2eDwe6dKli0yZMkWysrJkypQpBmMaAAAAcCbuUFtM9+7dpWnTpnLgwAHtFNyCqKgoGTdunEyYMEHuuOMOBjQAAADgAtyhthjDMIyEhATtDJSBn5/fd293dfToUXnllVcMxjQAAADgHhxKZkHZ2dlmgwYNpKioSDsF19G8eXNJSEiQhIQEqVmzJgMaAAAArsGhZN/jUDKLql27ttGvXz9z0aJF2in4J97uCgAAAMB/4pFvi+JwMmto3769TJkyRc6cOSPz5s0z+vTpYzCmAQAAAIhwKJll9e/fX6KioiQrK0s7xXWqVq0qw4cPl5/97Gdy9913M54BAAAAXBd3qC3K39/fiIuL085wDY/HI3369JEZM2bIyZMnZcqUKQZjGgAAAMCNcCiZhR06dMi88847hWvkPfXq1ZMxY8bIxIkTpXHjxgxoAAAA4AY4lOx7HEpmcU2aNDG6d+9url27VjvFUYKCguTRRx+VcePGSf/+/cXPz48hDQAAAOCWMagtLikpSRjUFaNly5YSFxcniYmJUqNGDUY0AAAAgNvCI98Wd/XqVbNu3bpy8eJF7RRbCg8Pl1GjRsm4cePkgQceYEQDAAAAt4FHvr8XFRXFoWRWV6lSJWP06NHaGbbz7dtdZWVlyZQpUwzGNAAAAICKxqC2gYkTJ2on2ELt2rXliSeekB07dsiWLVuM5ORko3LlygxpAAAAAF7Bz1DbQHR0tNG2bVvzq6++0k6xHI/HI7169ZLk5GQZNGiQBAQEMKC9pLi42PT39+fzCwAAAPwTd6htIikpSTvBUpo2bSovvPCCHD58WD755BNj+PDhBmO64l2+fNnMyMgw+/bta/72t7/VzgEAAAAshUPJbCInJ8eMioqS/Px87RQ1wcHBMnDgQElOTpbevXuLYRgMaC/ZunWrOXXqVJk9e7bk5eWJiEitWrXk+PHjPAUAAADgYhxK9j0OJbORiIgIY8iQIdoZKlq1aiWvvPKKnDhxQubNm2f06dPHYExXvIsXL5pTp041o6OjzQ4dOsjUqVO/G9MiIqdPn5alS5dqZwIAAACWwaC2ETc99h0RESHJycmydetW2bVrl/Hcc88ZkZGRjOgKVlpaaq5cudIcMWKEWatWLZk4caLs2LHjR//5lJQU7WQAAADAMjiUzEa6d+8uTZs2lQMHDmineIXH45H7779fYmNjZezYsRISEsKA9pITJ06Ys2bNknfeeUeOHDlS5n9v6dKlcvz4cbN+/fpcGwAAALged6htxDAMIyEhQTujwkVFRclzzz0n+/fvl08//dRITk42GNMV79q1a+b8+fPNgQMHmo0aNZJJkybd0pgWESkpKZHMzEztDwUAAACwBA4ls5ns7GyzQYMGUlRUpJ1yW/z8/KRnz56SnJwsgwcPFt6OyXv27NljzpgxQ1JSUuTcuXO3/d9r3LixHDx4UDweD9cMAADAZTiU7HtRUVE88m03tWvXNh5++GFz8eLF2inl0rx5c0lISJCEhASpWbMmg8xLLl++bM6ZM0cyMjLk73//e4X+tw8fPixr166VXr16aX+YAAAAgCoGtQ0lJSWJnQY1b3flO9d7uytvSElJYVADAADA9Xjk24aKi4vNhg0bSlZWlnbKDbVv316Sk5Nl9OjREhYWxoj2kuzsbHPu3LmSkpJywxO6K1JwcLCcPHlSqlWrxnUFAABwER75/h7vQ21T/v7+RmxsrHbGdVWtWlWSk5Nl27ZtsmXLFiM5OdlgTFe8f327qwYNGsiTTz7pszEtIlJQUCCzZs3S/jQAAAAAqrhDbVOHDh0y77zzTrHC9fN4PNKrVy8ZN26cDB8+XCpVqsSA9pLjx4+bs2fPlv/7v/+To0ePqrbcddddsn37dq41AACAi3CH+nscSmZjTZo0Mbp162auW7dOraFu3boyduxYmThxojRu3Jhh5SXXrl0zFy1aJFOnTpVVq1ZZ4psoIiI7duyQLVu2mB06dODaAwAAwJUY1DaWlJQkvh7UQUFB8uijj8q4ceOkf//+4ufnx5jykt27d5sZGRkV9nZX3pCSkiIdOnTQzgAAAABU8Mi3jV29etWsW7euXLx40eu/VsuWLSUuLk4SExOlRo0ajGgv8ebbXXlDRESEZGVlSUhICL8nAAAAXIBHvr/HoWQ2V6lSJWPUqFFe+++Hh4fLuHHj5JNPPpHdu3cbzz33nMGY9o6tW7eaEydONKOiomTixIm2GNMiIjk5OTJ//nztDAAAAEAFd6htbuvWrWZFP3L77dtdxcTESGhoKAPaS759u6vp06fLzp07tXPKrWvXrrJ+/Xp+nwAAALgAd6i/x6FkDtC+fXujbdu25ldffXVb/53atWvLiBEjZPz48XLXXXcxjryktLTUXL16tUydOlU++OADKSoq0k66bRs2bJA9e/aYLVu25PcNAAAAXIVHvh0gMTGxXP+ex+ORPn36yLx58+TYsWPy5ptvGoxp7zh+/Lg5efJks0mTJtK3b1+ZP3++I8b0t9LT07UTAAAAAJ/jkW8HyMnJMaOioiQ/P79M/3z9+vUlJiZGfvrTn0rDhg0Z0F5i1be78oZatWrJ8ePHJSAggN9PAAAADsYj39/jkW+HiIiIMAYPHmzOmjXrR/+Z4OBgGThwoCQnJ0vv3r3FMAyGj5fY4e2uKtrp06dlyZIlMnjwYO0UAAAAwGcY1A6RlJQk1xvUrVq1ktjYWBk/frxERkYyor3Ebm935Q0pKSkMagAAALgKg9ohevToIXfeeaccPHhQIiIiZOTIkTJx4kRp164dI9qLtm7dak6dOlVmzZolV65c0c5RtXz5cjl+/LhZv359fs8BAADAFRjUDmEYhvHSSy+ZJSUlMmTIEAkODmbUeIlT3u6qopWUlMiMGTPkt7/9rXYKAAAA4BMcSgaUgRPf7sobGjduLAcPHhSPx8M3dAAAAByIQ8m+x6FkwE0cP37cnD17tvzv//6vHDt2TDvH8g4fPixr1qyR3r17a6cAAAAAXsegBv6Dm97uyhtSUlIY1AAAAHAFBjXwT7t27TIzMzNl+vTpcv78ee0c23rvvffk3LlzZvXq1XnsGwAAAI7m0Q4ANOXk5JhTp041O3ToYLZp00YmT57MmL5NhYWFMnv2bO0MAAAAwOsY1HClrVu3mhMnTjTr1q0rEydOFA5WqFjTp0/XTgAAAAC8jke+4RqnTp0yMzIyZPr06XLw4EHtHEfbsWOHfPHFF2bHjh157BsAAACOxaCGo/F2V3pSUlKkY8eO2hkAAACA1/A+1HCkAwcOmLNmzZK0tDTe7kpJaGionDp1SkJDQ7lLDQAA4BC8D/X3eB9qOEpBQYG5ePFi3u7KIvLy8mTBggUSHx+vnQIAAAB4BYeSwfZ27dplTpo0yaxXr56MGDFCVq5cyZi2iJSUFO0EAAAAwGu4Qw1bysnJMefOnStTpkyRL7/8UjsHP+LTTz+VPXv2mC1btuSxbwAAADgOd6hhK//5dleMaetLS0vTTgAAAAC8gkPJYHm83ZW91axZU06cOCEBAQHcpQYAALA5DiX7HoeSwbJKSkrMNWvW8HZXDnDmzBlZvHixDBkyRDsFAAAAqFAMalgKb3flTCkpKQxqAAAAOA6DGup4uyvnW758uRw7dsxs0KABj30DAADAMTiUDGp4uyv3KC0tlRkzZmhnAAAAABWKQQ2fysnJMadOnWq2b9/ebNOmjUyePFnOnz+vnQUfSE1NldLSUr5jAgAAAMfgkW/4xNatW82pU6fKzJkzJT8/XzsHCo4cOSKrV6+WPn36aKcAAAAAFYJBDa/59u2upk2bJt988412DiwgJSWFQQ0AAADHYFCjQv3r210tXLhQiouLtZNgIe+//76cO3fOrF69OoeTAQAAwPb4GWpUiP3795svvvii2bhxY+nbt6/Mnz+fMY0fKCwslFmzZmlnAAAAABWCQY1yKygoMOfPn2/27dvXbNGihfz+97+X48ePa2fB4qZPn66dAAAAAFQIHvnGLdu6dauZkZEhM2fOlAsXLmjnwGZ27twpn3/+udmpUyce+wYAAICtMahRJjk5OebcuXPlnXfeka+++ko7BzaXkpIinTp10s4AAAAAbothmrwtLK6vtLTU3Lhxo2RmZvJ2V6hQoaGhkpWVJWFhYdylBgAAsJEOHTqYW7du1c6whKioKO5Q4/pycnLMdu3ayaFDh7RT4EB5eXmyYMECSUhI0E4BAAAAyo1DyXBdERERRu3atbUz4GApKSnaCQAAAMBtYVDjRyUlJWknwMH+/ve/y+7du/mZEwAAANgWgxo/auTIkRIeHq6dAQdLS0vTTgAAAADKjUGNH1W5cmVjxIgR2hlwsPT0dLl27Rp3qQEAAGBLDGrcEI99w5vOnTsnS5Ys0c4AAAAAyoVBjRu67777jOjoaO0MOBiHkwEAAMCuGNS4qfj4eO0EONjHH38sR48e5bFvAAAA2A6DGjcVGxsrQUFB2hlwqNLSUpkxY4Z2BgAAAHDLGNS4qcjISOOxxx7TzoCDTZ8+XUpKSrhLDQAAAFthUKNMOJwM3nT8+HFZvXq1dgYAAABwSxjUKJM+ffpIw4YNtTPgYBxOBgAAALthUKNMPB6PkZCQoJ0BB1u4cKGcPXuWx74BAABgGwxqlFlSUpL4+flpZ8ChCgsLZdasWdoZAAAAQJkxqFFm9erVM/r06aOdAQfjsW8AAADYCYMat4TDyeBNO3fulM2bN/PYNwAAAGyBQY1b8thjj0nNmjW1M+Bg3KUGAACAXTCocUsCAwONsWPHamfAwebMmSO5ubncpQYAAIDlMahxyyZMmCCGYWhnwKHy8vJk3rx52hkAAADATTGocctatGhh3HfffdoZcDAe+wYAAIAdMKhRLhxOBm/atGmT7Nq1i8e+AQAAYGkMapTLqFGjJCwsTDsDDpaamqqdAAAAANwQgxrlUrlyZWPkyJHaGXCwGTNmyLVr17hLDQAAAMtiUKPceOwb3nT+/HlZtGiRdgYAAADwoxjUKLf77rvPiI6O1s6Ag3E4GQAAAKyMQY3bEh8fr50AB/vkk0/k6NGjPPYNAAAAS2JQ47bExsZKUFCQdgYcqrS0VNLS0rQzAAAAgOtiUOO2REZGGo8++qh2BhwsJSVFSkpKuEsNAAAAy2FQ47ZxOBm86cSJE7Jy5UrtDAAAAOAHGNS4bX379pWGDRtqZ8DBOJwMAAAAVsSgxm3zeDwGh5PBmz788EM5e/Ysj30DAADAUhjUqBDjx48XPz8/7Qw4VGFhoWRmZmpnAAAAAP+GQY0KUa9ePaNPnz7aGXCwadOmaScAAAAA/4ZBjQrD4WTwpr1798qmTZt47BsAAACWwaBGhXnsscekRo0a2hlwMA4nAwAAgJUwqFFhAgMDjbFjx2pnwMHmzJkjubm53KUGAACAJTCoUaGSk5O1E+BgV65ckblz52pnAAAAACLCoEYFa9GihXHfffdpZ8DBeOwbAAAAVsGgRoXjcDJ40+bNm2X79u089g0AAAB1DGpUuFGjRklYWJh2BhwsPT1dOwEAAABgUKPihYaGGiNGjNDOgINlZGTItWvXuEsNAAAAVQxqeAWPfcObzp8/Lx9++KF2BgAAAFyOQQ2vuP/++43WrVtrZ8DBOJwMAAAA2hjU8JrExETtBDjYypUr5ejRozz2DQAAADUManhNXFycBAUFaWfAoUpLSyUtLU07AwAAAC7GoIbXREZGGgMHDtTOgIOlpKRISUkJd6kBAACggkENr+JwMnjTiRMn5JNPPtHOAAAAgEsxqOFVDz74oDRs2FA7Aw7G4WQAAADQwqCGV3k8HiM+Pl47Aw62aNEiOXPmDI99AwAAwOcY1PC6pKQk8fPz086AQxUWFkpmZqZ2BgAAAFyIQQ2vq1+/vtG7d2/tDDjYtGnTxDRN7lIDAADAp/y1A+AOSUlJsmLFCu0MONS+fftk06ZN0rlzZ+0UuMSVK1fMa9euyaVLl7RTAMDnqlSpIpUrV5agoCBDuwXQxqCGTwwaNEhq1KghZ8+e1U6BQ6WkpDCoUeHOnz9vrlu3TtavXy+7d++WAwcOyLFjx6S0tFQ7DQDU+fv7m40bN5YWLVpI69atpVu3btK1a1cJDQ1laMM1DJ6ShK889dRT5l/+8hftDDhU5cqVJSsrS8LDw/kijtty6dIlc/78+ZKRkSEbN25kPAPALfD395fevXtLbGysDB48WCpVqsTXZYfp0KGDuXXrVu0MS4iKiuJnqOE7vCc1vOnKlSsyd+5c7QzYWFZWlvnMM8+Y9erVk+TkZPn0008Z0wBwi4qLi+Xjjz+WMWPGSN26deWFF14wL1y4wB08OBaDGj7Tpk0b495779XOgIPxntQoj6tXr5q//e1vzTvuuEPeeOMNuXLlinYSADjCxYsX5Q9/+IM0atRIXn31VbOoqIhhDcdhUMOnuEsNb/rss8/k66+/5os1ymz16tVm69at5U9/+pMUFBRo5wCAI+Xm5spzzz0nbdu2lc8//5yv03AUBjV8avTo0RIWFqadAQdLT0/XToANmKZpTp482XzwwQfl8OHD2jkA4Aq7du2SLl26yOTJk03e7hJOwaCGT4WGhhrDhw/XzoCDZWZmSkFBAV+k8aMKCgrMIUOGyKRJk6SkpEQ7BwBcpbi4WCZNmiRxcXHCI+BwAgY1fI7HvuFN58+flw8//FA7AxaVm5tr9uvXTz744APtFABwtczMTBk0aJDk5+czqmFrDGr4XOfOnY1WrVppZ8DBOJwM11NYWGgOHTpU1q5dq50CABCRpUuXyvDhw6W4uJhRDdtiUENFYmKidgIcbOXKlfLNN9/wxRnfMU3THDt2rHzyySfaKQCAf7F06VJJTk7WzgDKjUENFXFxcRIUFKSdAYcyTVMyMjK0M2Ahr732msyfP187AwBwHWlpafK///u/fCMctsSghorq1asbAwYM0M6Ag6WmpkpJSQlfnCGbN282f/vb32pnAABu4JlnnpFt27bxdRu2w6CGGg4ngzedOHFCVqxYoZ0BZcXFxWZycrIUFRVppwAAbqCgoEBiY2P5eWrYDoMaah566CFp0KCBdgYcjMPJ8MYbb8iOHTu0MwAAZbBjxw555513tDOAW8KghhqPx2PEx8drZ8DBPvzwQ8nOzuY73S518eJF86WXXtLOAADcghdeeEFyc3P52g3bYFBD1fjx48XPz087Aw5VXFwsM2fO1M6Akr/97W+Sm5urnQEAuAUXLlyQ//u//9POAMqMQQ1V9evXN3r16qWdAQebPn26mKbJd7pdpqCgwHzrrbe0MwAA5fDGG29IYWEhX7thCwxqqONwMnjTvn37ZOPGjdoZ8LElS5bI2bNntTMAAOVw+vRpWbZsmXYGUCYMaqgbPHiw1KhRQzsDDsbhZO7Do/4AYG+ZmZnaCUCZMKihLjAw0BgzZox2Bhxszpw5cunSJR4dc4mCggLz448/1s4AANyGpUuXyrVr1/jaDctjUMMSeOwb3nT16lWZN2+edgZ8ZOPGjVJQUKCdAQC4DVevXpXPPvtMOwO4KQY1LKFNmzbGvffeq50BB+Oxb/dYv369dgIAoAKsXbtWOwG4KQY1LIO71PCmzz//XLZt28ajYy6wY8cO7QQAQAXYuXOndgJwUwxqWMbo0aMlLCxMOwMOlpaWpp0AH9i3b592AgCgAvDnOeyAQQ3LCA0NNYYNG6adAQebOXOmFBQUcJfa4Q4fPqydAACoAIcOHdJOAG6KQQ1L4bFveNOFCxdk4cKF2hnwoqKiIjM/P187AwBQAfLy8qS4uJhvhMPSGNSwlC5duhitWrXSzoCDcTiZs+Xm5monAAAqUF5ennYCcEMMalhOQkKCdgIcbPXq1fLNN9/w3W6HKi4u1k4AAFSgwsJC7QTghhjUsJz4+HgJCgrSzoBDmaYp6enp2hnwktDQUO0EAEAFCg8P104AbohBDcupXr26MWDAAO0MOFhaWpqUlJRwl9qBQkJCDH9/f+0MAEAFCAgIkODgYEO7A7gRBjUsicPJ4E0nT56U5cuXa2fAS+rUqaOdAACoAHXr1tVOAG6KQQ1Leuihh6RBgwbaGXAwDidzrubNm2snAAAqAH+eww4Y1LAkj8djxMXFaWfAwRYvXiynTp3isW8HatGihXYCAKACMKhhBwxqWFZiYqJ4PPwWhXcUFxdLZmamdga8oEuXLtoJAIAK8MADD2gnADfFWoFlNWrUyOjVq5d2BhwsJSVFTNPkLrXD9OrVSwyDM2wAwM4Mw5AePXpoZwA3xaCGpXE4Gbxp//798umnn2pnoILVrFnTaNeunXYGAOA2dOzYUWrUqMF3R2F5DGpY2pAhQ6R69eraGXAwDidzpjFjxmgnAABuw9ixY7UTgDJhUMPSAgMDDV4Yw5vmzZsnly5d4rFvh4mJiZGAgADtDABAOQQGBsrIkSO1M4AyYVDD8saPH6+dAAe7evWqzJkzRzsDFaxWrVpGTEyMdgYAoBxiY2OlZs2aPO4NW2BQw/LatGljdOrUSTsDDsZj3870X//1X7xTAADYjJ+fnzz77LPaGUCZ8UoDtsDhZPCmLVu2yLZt23js22GaN29uxMfHa2cAAG5BUlKSNG3alLvTsA0GNWwhJiZGQkNDtTPgYKmpqdoJ8IJXX32Vgw0BwCYiIyPlT3/6k3YGcEsY1LCF0NBQY9iwYdoZcLDMzEy5evUqd6kdJjIy0nj99de1MwAAZfDmm29K9erVuTsNW2FQwzZ47BvedOnSJVm4cKF2BrwgLi7OiI2N1c4AANxAYmKijBkzhjEN22FQwzYeeOABo2XLltoZcDAOJ3Out99+W6Kjo7UzAADX0bZtW3nrrbe0M4ByYVDDVhISErQT4GBr1qyRgwcP8ti3A4WGhhqffPKJNG3aVDsFAPAvmjRpIkuXLpWQkBDuTsOWGNSwlbi4OAkICNDOgEOZpinp6enaGfCSmjVrGh999JE0aNBAOwUAICKNGjWSFStWSO3atRnTsC0GNWylZs2axsCBA7Uz4GApKSlSXFzMXWqHatq0qbF582a5++67tVMAwNVat24tGzZskDvuuIMxDVtjUMN2OJwM3pSdnS3Lly/XzoAX1alTx1i7dq0MHjxYOwUAXGn48OGyceNGqVevHmMatseghu08/PDDPLIJr+JwMuerUqWK8d5778lf//pXCQkJ0c4BAFeoXLmyvP322zJv3jwjPDycMQ1HYFDDdjweD2+BA69asmSJnDp1ise+Hc4wDOMXv/iFsX//fhk3bpx2DgA42oABA2TXrl3ys5/9jCENR2FQw5YSExPF4+G3L7yjuLhYMjIytDPgI3Xr1jUyMjKMDRs2yIABA8QweK0HABWlS5cusmrVKlm8eLHRsGFD/oCF47BIYEuNGzc2evbsqZ0BB0tNTRXTNLlL7SIPPPCAsXjxYuOrr76SJ598UmrVqqWdBAC2VLt2bXnqqadk27Zt8umnnxq9evViSMOxDF4vwq7effddMyYmRjsDDrZu3Trp1q0bLwJcqqSkxPzss89kzZo1sn79etm1a5ecPHlSOwsALKdevXrSqlUr6datm/Tq1Us6deokfn5+fP10qA4dOphbt27VzrCEqKgoBjXsq7Cw0Kxbt66cO3dOOwUOFRsbKzNmzOAFAb6Tm5trHj16VPLy8iQvL08uXryonQQAPle1alUJDQ2V0NBQadSokYSGhvK10kUY1N9jUMP2fvnLX5p//etftTPgUJUqVZKsrCypUqUKLxQAAACEQf2voqKi+Blq2Nv48eO1E+BgV69elXfffVc7AwAAABbFoIat3XXXXUbHjh21M+BgvCc1AAAAfgyDGraXlJSknQAH27p1q3z11Vf8bAwAAAB+gEEN24uJiZHQ0FDtDDhYamqqdgIAAAAsiEEN2wsLCzOGDh2qnQEHy8zMlPz8fO5SAwAA4N8wqOEIPPYNb8rJyZGFCxdqZwAAAMBiGNRwhK5duxotW7bUzoCDcTgZAAAA/hODGo4RHx+vnQAHW7t2rRw8eJDHvgEAAPAdBjUcIy4uTgICArQz4FCmaUpaWpp2BgAAACyEQQ3HqFWrljFgwADtDDhYamqqFBUVcZcaAAAAIsKghsNwOBm8KTs7W5YvX66dAQAAAItgUMNR+vXrJ/Xr19fOgINxOBkAAAC+xaCGo3g8HiMuLk47Aw720UcfSVZWFo99AwAAgEEN50lMTBSPh9/a8I7i4mLJyMjQzgAAAIAFsDrgOI0bNzZ69uypnQEHmzZtmpimyV1qAAAAl2NQw5E4nAzedOjQIVm/fr12BgAAAJQxqOFIQ4YMkerVq2tnwME4nAwAAAAMajhSUFCQMXr0aO0MONiCBQvk4sWLPPYNAADgYgxqONaECRO0E+BgV69elXfffVc7AwAAAIoY1HCsu+66y+jQoYN2BhxsypQp2gkAAABQxKCGo3E4Gbxp+/bt8tVXX/HYNwAAgEsxqOFoMTExEhISop0BB+NwMgAAAPdiUMPRwsPDjeHDh2tnwMFmzpwp+fn53KUGAABwIQY1HI/HvuFNOTk58v7772tnAAAAQAGDGo7XtWtXo2XLltoZcDAe+wYAAHAnBjVcIT4+XjsBDrZu3To5cOAAj30DAAC4DIMarhAXFycBAQHaGXAo0zQlNTVVOwMAAAA+xqCGK9SqVct45JFHtDPgYOnp6VJUVMRdagAAABdhUMM1OJwM3pSdnS1Lly7VzgAAAIAPMajhGv369ZP69etrZ8DBOJwMAADAXRjUcA0/Pz8jNjZWOwMOtmzZMsnKyuKxbwAAAJdgUMNVkpKSxOPhtz28o7i4WGbMmKGdAQAAAB9hWcBVGjdubPTo0UM7Aw42ffp0MU2Tu9QAAAAuwKCG63A4Gbzp0KFDsnbtWu0MAAAA+ACDGq4zZMgQqVatmnYGHIzDyQAAANyBQQ3XCQ4ONmJiYrQz4GDvvfeeXLx4kce+AQAAHI5BDVeaMGGCdgIcrKCgQGbNmqWdAQAAAC9jUMOVoqOjjfbt22tnwMGmTZumnQAAAAAvY1DDtTicDN60fft22bp1K499AwAAOBiDGq4VExMjISEh2hlwMA4nAwAAcDYGNVwrIiLCGDZsmHYGHGz27NmSn5/PXWoAAACHYlDD1XjsG96Uk5MjCxYs0M4AAACAlzCo4WrdunUzWrRooZ0BB+OxbwAAAOdiUMP14uPjtRPgYOvXr5e9e/fy2DcAAIADMajhevHx8RIQEKCdAQdLT0/XTgAAAIAXMKjherVq1TL69++vnQEHS09Pl6KiIu5SAwAAOAyDGhAOJ4N3nT59Wj766CPtDAAAAFQwBjUgIv369ZOoqCjtDDgYh5MBAAA4D4MaEBF/f3+Dw8ngTcuWLZPjx4/z2DcAAICDMKiBfxo/frwYhqGdAYcqKSmRjIwM7QwAAABUIAY18E+NGzc2evTooZ0BB0tJSZHS0lLuUgMAADgEgxr4FxxOBm86fPiwrF27VjsDAAAAFYRBDfyLoUOHStWqVbUz4GAcTgYAAOAcDGrgXwQHBxsxMTHaGXCw999/Xy5cuMBj3wAAAA7AoAb+Q3JysnYCHKygoEBmzZqlnQEAAIAKwKAG/kN0dLTRrl077Qw42LRp07QTAAAAUAEY1MB1cDgZvGnHjh2yZcsWHvsGAACwOQY1cB1jxoyRkJAQ7Qw4GIeTAQAA2B+DGriOiIgIY+jQodoZcLDZs2dLfn4+d6kBAABsjEEN/Age+4Y3Xb58WebPn6+dAQAAgNvAoAZ+RPfu3Y0WLVpoZ8DBeOwbAADA3hjUwA3ExcVpJ8DBNmzYIHv27OGxbwAAAJtiUAM3kJCQIAEBAdoZcLD09HTtBAAAAJQTgxq4gVq1ahn9+/fXzoCDzZgxQ4qKirhLDQAAYEMMauAmOJwM3nT69GlZsmSJdgYAAADKgUEN3ES/fv0kKipKOwMOxuFkAAAA9sSgBm7C39/f4HAyeNOyZcvk+PHjPPYNAABgMwxqoAzGjx8vhmFoZ8ChSktLZcaMGdoZAAAAuEUMaqAMmjRpYnTv3l07Aw6WmpoqpaWl3KUGAACwEQY1UEYcTgZvOnz4sKxZs0Y7AwAAALeAQQ2U0bBhw6Rq1araGXAwDicDAACwFwY1UEbBwcFGTEyMdgYc7L333pNz587x2DcAAIBNMKiBW5CcnKydAAcrLCyU2bNna2cAAACgjBjUwC2Ijo422rVrp50BB5s+fbp2AgAAAMqIQQ3cIg4ngzft2LFDvvjiCx77BgAAsAEGNXCLxowZIyEhIdoZcDAOJwMAALAHBjVwiyIiIowhQ4ZoZ8DBZs2aJXl5edylBgAAsDgGNVAOPPYNb8rLy5MFCxZoZwAAAOAmGNRAOXTv3l2aNm2qnQEH47FvAAAA62NQA+VgGIaRkJCgnQEH+/TTT2XPnj089g0AAGBhDGqgnBISEiQgIEA7Aw6WlpamnQAAAIAbYFAD5VS7dm2jX79+2hlwsLS0NLl27Rp3qQEAACyKQQ3cBg4ngzedO3dOPvroI+0MAAAA/AgGNXAb+vfvL1FRUdoZcDAOJwMAALAuBjVwG/z9/Y3Y2FjtDDjY8uXL5dixYzz2DQAAYEEMauA2TZgwQQzD0M6AQ5WWlsqMGTO0MwAAAHAdDGrgNjVp0sTo1q2bdgYcLDU1VUpLS7lLDQAAYDEMaqACcDgZvOnIkSOyatUq7QwAAAD8BwY1UAGGDRsmVatW1c6Ag3E4GQAAgPUwqIEKUKlSJWP06NHaGXCwhQsXytmzZ3nsGwAAwEIY1EAF4bFveFNhYaHMnj1bOwMAAAD/gkENVJB27doZbdu21c6Ag02fPl07AQAAAP+CQQ1UIO5Sw5t27twpn332GY99AwAAWASDGqhAY8eOlZCQEO0MOBiHkwEAAFgHgxqoQBEREcbgwYO1M+Bg7777ruTm5nKXGgAAwAIY1EAF47FveFNeXp7Mnz9fOwMAAADCoAYqXI8ePeTOO+/UzoCD8dg3AACANTCogQpmGIaRkJCgnQEH27hxo+zevZvHvgEAAJQxqAEvSExMFH9/f+0MOFhqaqp2AgAAgOsxqAEvqF27ttGvXz/tDDjYjBkz5Nq1a9ylBgAAUMSgBryEw8ngTefOnZPFixdrZwAAALgagxrwkkceeUTq1KmjnQEHS0tL004AAABwNQY14CX+/v5GbGysdgYcbMWKFXL69Gke+wYAAFDCoAa8KCkpSQzD0M6AQxUXF/Oe1AAAAIoY1IAXNW3a1Ojatat2Bhxs4cKF2gkAAACuxaAGvIzDyeBNGzZskEuXLvHYNwAAgAIGNeBlw4cPlypVqmhnwKGKiopk5cqV2hkAAACuxKAGvKxSpUrG6NGjtTPgYBs2bNBOAAAAcCUGNeADPPYNb2JQAwAA6GBQAz7Qvn17o23bttoZcKjt27dLfn4+P0cNAADgYwxqwEcSExO1E+BQJSUlsmvXLu0MAAAA12FQAz4yZswYqVSpknYGHOrrr7/WTgAAAHAdBjXgI1WrVjWGDBminQGHOnTokHYCAACA6zCoAR/icDJ4S1ZWlnYCAACA6zCoAR/q0aOH3HnnndoZcKBTp05pJwAAALgOgxrwIcMwjISEBO0MOBCDGgAAwPcY1ICPJSYmir+/v3YGHIZBDQAA4HsMasDHateubTz88MPaGXCY8+fPS3FxMe9FDQAA4EMMakABh5OhopmmKaWlpdoZAAAArsKgBhQMGDBA6tSpo50BhzEMQzsBAADAVRjUgAJ/f38jNjZWOwMAAADAbWBQA0oSExO5o4gKxe8nAAAA32JQA0qaNWtmdO3aVTsDDsKgBgAA8C0GNaCIw8lQUfz8/MTj4Y90AAAAX+LVF6Bo+PDhUqVKFe0MOECtWrXE4BY1AACAT/lrBwBuVqlSJWPUqFHmO++8o50Cm6tbt652Ahzm4sWL5tGjR+XKlSty5coVycnJ0U4CYBFVq1aVypUrS+XKlaVRo0YSHh7ON3ThWgxqQFlSUpIwqHG7oqKitBNgY4WFheamTZtk9erVsn79etm1a5ecPXtWOwuATdStW9ds3bq1dO/eXXr16iUdO3YUPz8/RjZcgUENKOvQoYNxzz33mNu2bdNOgY0xqFEeW7ZsMdPT0+Xdd9+VCxcuaOcAsKmTJ0/KyZMnZcWKFSIiUqdOHRk7dqwZHx8vrVq1YljD0fgZasACEhMTtRNgcwxq3IpPP/3UHDhwoNmxY0d5++23GdMAKtSpU6fktddek9atW0vfvn3Nzz77zNRuAryFQQ1YwNixYyU4OFg7AzbWsGFD7QTYwKFDh8z+/fubXbt2lSVLlmjnAHCBlStXyn333ScDBw40T5w4wbCG4zCoAQuoWrWqMWTIEO0M2Fj79u21E2Bhpmmab7zxhtmmTRtZtmyZdg4AF1qyZIncddddkpmZyaiGozCoAYvgPalRXiEhIdK8eXPtDFjUxYsXzUGDBskzzzwjV69e1c4B4GKXLl2S2NhYmTBhgnn16lWGNRyBQQ1YRM+ePeXOO+/UzoANtW3bltNUcV2nTp0yu3fvLosWLdJOAYDvTJ8+XXr06CHnzp1jVMP2GNSARRiGYcTHx2tnwIZ43BvXs3//fvO+++6THTt2aKcAwA98/vnn0rNnT8nOzmZUw9YY1ICFxMfHi5+fn3YGbIZBjf+UlZVlPvTQQ3Ls2DHtFAD4UTt37pS+ffvKpUuXGNWwLQY1YCF169Y1+vXrp50Bm7n//vu1E2Ahly9fNh9++GE5cuSIdgoA3NTOnTtl6NChUlRUxKiGLTGoAYvhPalxK1q0aCFNmzbl56fxnZ/97Gc85g3AVlavXi2/+93vtDOAcmFQAxYzcOBAqVOnjnYGbOKRRx7RToCFpKammrNmzdLOAIBb9tprr8nHH3/MXWrYDoMasBh/f39j3Lhx2hmwCQY1vnX69GnzmWee0c4AgHIpLS2V5ORkuXLlCqMatsKgBiwoKSlJDIOneHFjERER8sADD2hnwCJ+/etfy6VLl7QzAKDcjh07Jq+88op2BnBLGNSABTVr1sxgKOFmHn74YQkICOA7L5Dt27ebM2fO1M4AgNv2+uuvy6lTp7hLDdtgUAMWlZSUpJ0Aixs+fLh2AizilVdeEdPk9ScA+ysoKJC//OUv2hlAmRl8AQas6erVq2ZUVBSPcOK6atWqJcePH+cONeTYsWNmkyZNpKSkRDsFACpEWFiYnDx5UsLCwvgaZ0EdOnQwt27dqp1hCVFRUdyhBqyqUqVKxsiRI7UzYFFxcXGMaYiIyMyZMxnTABwlNzdXFi5cqJ0BlAmDGrAwHvvG9RiGwe8NfIefnQbgRPzZBrtgUAMW1rFjR+Puu+/WzoDFdO/eXZo1a8bdacjBgwfNPXv2aGcAQIVbs2aN5Obm8rOpsDwGNWBxP/nJT7QTYDHjx4/XToBFrFmzRjsBALyiuLhYPv30U+0M4KYY1IDFjR07VsLDw7UzYBF169bldG98Z8OGDdoJAOA169ev104AbopBDVhcaGioMW7cOO0MWMSTTz4pgYGBPO4NERHZtWuXdgIAeM3u3bu1E4CbYlADNvD444+Lx8P/XN2uSpUqkpycrJ0BizBN0zxw4IB2BgB4zb59+7QTgJviFTpgAy1atDAGDx6snQFlTzzxhISHh3N3GiIicuHCBcnNzdXOAACvOXr0qHYCcFMMasAmfvvb34phsKXcKjIyUp555hntDFgIYxqA0xUUFEhhYSEnfcPSGNSATdxzzz3GQw89pJ0BJc899xx3p/FvGNQA3IA/62B1DGrARv77v/+bn6V2oYYNG8rjjz+unQEAAID/wCtzwEbatm1rjBo1SjsDPvb6669LpUqVuDuNfxMWFqadAABex591sDoGNWAzf/zjHyUoKEg7Az7Sq1cvGTZsGGMaP8CLTABOFxwczFtFwvIY1IDNNGnSxPj1r3+tnQEfCAoKkrfeeks7AxZVrVo1RjUAR2vYsKF2AnBTDGrAhp5//nlp3Lixdga87De/+Y20atWK78zjugzDMJo2baqdAQBe07x5c+0E4KYY1IANVapUyfjrX/+qnQEvio6OlkmTJmlnwOLatGmjnQAAXtO6dWvtBOCmGNSATQ0YMMAYO3asdga8IDAwUNLS0iQgIIC707ihrl27aicAgNd069ZNOwG4KQY1YGNvvfWW1KtXTzsDFezll1+Wdu3aMaZxU7169dJOAACvCAgIkAceeEA7A7gpBjVgY1WqVDGmTJkihsH2coqHH35YnnrqKe0M2ESTJk0MHokE4ES9evWS0NBQXuDA8hjUgM3179/feOaZZ7QzUAHq168vM2bMEIPvkOAWjBs3TjsBACocf7bBLhjUgAO8/PLL0qVLF+0M3Ibg4GB57733pGbNmoxp3JKxY8dKQECAdgYAVJiIiAgZNGiQdgZQJgxqwAH8/f2N2bNnS61atbRTUE7/+7//Kx07dmRM45bVrVvXiImJ0c4AgArzi1/8QipXrszXRNgCgxpwiAYNGhjvv/++BAUFaafgFj377LOSkJDACweU26RJk8Tj4Us6APsLDQ2VX/7yl9oZQJnx1RdwkM6dOxvTpk3TzsAtGDFihLz88svaGbC5Fi1aGBMmTNDOAIDb9vzzz0v16tX5JjNsg0ENOMy4ceOMP/zhD9oZKIMePXpIRkaGeDweXjjgtr388stSs2ZN7QwAKLemTZvK008/rZ0B3BIGNeBAv/vd7wy+IFnbvffeK4sWLZKgoCDGNCpE1apVjb/97W/aGQBQLv7+/pKWlsbXRdgOgxpwqNdff11iY2O1M3Ad7dq1k+XLl0tYWBgvGlChhg8fbvz0pz/VzgCAW/bHP/5RunTpwtdF2A6DGnAowzCM1NRUiYuL007Bv+jQoYOsWLFCqlSpwosGeMUbb7whXbt21c4AgDIbNmyYPPvss9oZQLkwqAEH8/PzM9LS0uRnP/uZdgpEpFu3brJq1SqJjIxkTMNrgoODjcWLF8s999yjnQIAN9W9e3fJzMzkPBHYFoMacDjDMIy//e1v8utf/1o7xdUGDBggy5cvl/DwcF4wwOsiIiKMZcuWSXR0tHYKAPyoHj16yKJFiyQ4OJivjbAtBjXgAoZhGK+++qrx1ltviZ+fn3aO6yQnJ8vChQulUqVKvGCAz9SuXdtYv369dO/eXTsFAH5g2LBhfKMZjsCgBlzk8ccfN9577z0JCwvTTnEFPz8/+etf/ypTpkwx/P39ecEAn4uIiDBWrlwpL7zwgng8fMkHoM/f319eeOEFmTt3Lid6wxH46gq4zGOPPWZs3rxZmjZtqp3iaDVq1JBly5bJL37xC14sQJW/v7/x4osvGh988IHUrVtXOweAizVv3lzWrl0rL774osHPTMMpGNSAC7Vq1cr4/PPPZdCgQdopjtS5c2f58ssvpW/fvrxYgGUMHDjQ2LNnjzzzzDMSGBionQPARUJDQ+VPf/qTbN++nbfGguMwqAGXqlKlirFw4ULj7bfflkqVKmnnOILH45Fnn31W1q5dK/Xq1eMFAywnLCzMeP31141jx47Jc889JyEhIdpJABwsLCxMnnjiCTlw4IA8//zzRmBgIF8b4TiGaZraDQCU7dy504yLi5Mvv/xSO8W2GjduLDNmzJCuXbvyYgG2cenSJXP+/PmSmZkpGzdulJKSEu0kADYXEBAgvXv3lrFjx8qgQYOkcuXKfF10mA4dOphbt27VzrCEqKgoBjWAfyguLjZff/11+f3vfy8FBQXaObbh8XhkwoQJ8uqrr3JSKWzt0qVL5rp162TDhg2ye/du2b9/vxw7dkyKioq00wBYVFBQkDRq1EiaN28urVu3lm7duknXrl0Z0Q7HoP4egxrAD+zfv9/8xS9+IStWrNBOsbzo6Gh555135P777+eFAxzr2rVrZl5enuTk5GinALCIKlWqSFhYmAQEBPD1z4UY1N9jUAP4UR9++KH59NNPy6FDh7RTLKdatWry29/+Vn7xi18Ib4cFAADchEH9vaioKA4lA3B9jz32mLF3716ZMmWKREVFaedYQkBAgCQnJ8vevXvlqaee4r2lAQAAXI5BDeBHBQQEGMnJycaBAwdk8uTJUqtWLe0kFYGBgZKcnCz79++XKVOmGDVq1GBIAwAAgEEN4OZCQkKMZ5991jhy5IhMmTJFmjZtqp3kq49bnnjiCfnmm29kypQpRqNGjRjSAAAA+A6DGkCZBQcHG8nJycbevXvlk08+keHDh4u/v792VoVr0qSJvPLKK3Ls2DF58803Dd5TGgAAANfDoWQAbsvRo0fNGTNmyKxZs2T//v3aOeUWEhIijz76qIwdO1b69esnHo+HEQ0AAPAfOJTse5zyDaBCffHFF+bcuXPlww8/lIMHD2rn3FRISIj07dtXhg4dKoMGDZKwsDBGNAAAwA0wqL/HoAbgNXv27DEXL14sq1evlk8//VSuXLminSQiIi1btpQePXrII488Ir169ZJKlSrZakTn5uaajz/+uMyYMcNW3QAAwBkY1N9jUAPwiaKiIvPzzz+Xzz77TLZs2SJbt26VAwcOiLf//ImIiJC2bdtKu3bt5N5775Xu3btLrVq1bDtE9+/fbw4ZMkR27dolZ8+elerVq9v2YwEAAPbEoP5eVFSUOO80IQCWExAQYHTp0kW6dOny3V+7cuWKuW/fPtm/f7/s27dPjh49KtnZ2XL8+HE5e/asXL58Wa5evXrD/254eLjUqFFDateuLTVr1pSGDRvKnXfeKXfeeac0bdpUGjduLIZhOGJ0Ll682Bw3bpzk5OSIiMjRo0elevXq2lkAAACuxqAGoKJy5cpGu3btpF27dj/6zxQVFZl5eXk/+OtBQUESEhLiiKF8M6Zpmq+++qo8//zzUlpa+t1fP3r0qLRv3147DwAAwNUY1AAsKyAgwKhatap2hprjx4+bCQkJsmrVqh/8vaNHj2rnAQAAuB7vQw0AFjR//nzznnvuue6YFmFQAwAAWAF3qAHAQs6cOWP+5Cc/kYULF97wn2NQAwAA6GNQA4BFfPTRR+aECRPk1KlTN/1nGdQAAAD6eOQbAJSdOHHCHDFihDlgwIAyjWkRBjUAAIAVMKgBQElRUZH55ptvmq1atZL58+ff0r974cIFyc3N9e4beQMAAOCGGNQA4GOmaZrz5883W7ZsKU8++aTk5uaW679z7Ngx7Q8FAADA1RjUAOAjpmmaS5YsMdu2bSsjRoyQb7755rb+e0eOHNH+kAAAAFyNQ8kAwMtKS0vNjz76SP74xz/KF198UWH/XX6OGgAAQBeDGgC85NKlS2Z6erq8/fbbcvDgwQr/7zOoAQAAdDGoAaCCbdq0yUxNTZXZs2dLfn6+134dBjUAAIAuBjUAVIA9e/aY7777rsyePfu2fza6rBjUAAAAuhjUAFAOxcXF5t///ndZvHixLFq0SA4cOODzBgY1AACALgY1AJRBYWGh+dVXX8n69etlzZo1smHDBsnLy1Ntys7OlmvXrplBQUGG9ucHAADAjRjUAPAfsrKyzH379sn+/ftl586d8vnnn8u2bduksLBQO+3fmKYpx44dk6ZNm2qnAAAAuBKDGoCrFBYWmmfPnpXs7Gw5ffq0nDlzRo4fPy779u2Tb0f05cuXtTPL7OjRowxqAAAAJQxqAK7wm9/8xpwyZYqcP39eO6VC8XPUAAAAejzaAQDgC7/+9a+lcuXK2hkV7tixY9oJAAAArsUPcnefAAAUJklEQVSgBuAKVapUMWbOnCl+fn7aKRWKO9QAAAB6GNQAXKNr167GpEmTtDMq1JEjR7QTAAAAXItBDcBVXnzxRencubN2RoXhDjUAAIAeBjUAV/H39zfmzJkjVatW1U6pECdPnpSSkhJTuwMAAMCNGNQAXKd+/frGlClTtDMqRFFRkWRlZWlnAAAAuBKDGoArDR8+3IiLi9POqBA89g0AAKCDQQ3Atd5++21p3ry5dsZtY1ADAADoYFADcK3KlSsbs2bNksDAQO2U28KgBgAA0MGgBuBq7du3N/74xz9qZ9wWBjUAAIAOBjUA1/vVr34lffv21c4oNwY1AACADgY1ANfzeDxGZmam1KpVSzulXBjUAAAAOhjUACAitWrVMtLS0sQwDO2UW3b06FExTZP3ogYAAPAxBjUA/FO/fv2Mxx9/XDvjll29elXOnj2rnQEAAOA6DGoA+Bevvfaa3HPPPdoZt4zHvgEAAHyPQQ0A/yIoKMiYNWuWhISEaKfcEgY1AACA7zGoAeA/tGrVynjjjTe0M24JgxoAAMD3GNQAcB0TJ040Ro4cqZ1RZgxqAAAA32NQA8CPeOedd6RBgwbaGWXCoAYAAPA9BjUA/IgqVaoYM2fOFD8/P+2Um2JQAwAA+B6DGgBuoGvXrsakSZO0M26KQQ0AAOB7DGoAuIkXX3xROnfurJ1xQ5cuXZKcnBxTuwMAAMBNGNQAcBP+/v7GnDlzpGrVqtopN3Ts2DHtBAAAAFdhUANAGdSvX9+YMmWKdsYN8dg3AACAbzGoAaCMhg8fbsTFxWln/KgjR45oJwAAALgKgxoAbsHbb78tzZs31864Lu5QAwAA+BaDGgBuQeXKlY1Zs2ZJYGCgdsoPMKgBAAB8i0ENALeoffv2xh//+EftjB9gUAMAAPgWgxoAyuFXv/qV9O3bVzvj3zCoAQAAfItBDQDl4PF4jMzMTKlVq5Z2ynfOnDkjV69e5b2oAQAAfIRBDQDlVKtWLSMtLU0Mw9BOERER0zTl+PHj2hkAAACuwaAGgNvQr18/4/HHH9fO+A6PfQMAAPgOgxoAbtNrr70m99xzj3aGiDCoAQAAfIlBDQC3KSgoyJg1a5aEhIRopzCoAQAAfIhBDQAVoFWrVsYbb7yhnSEnTpzQTgAAAHANBjUAVJCJEycaI0eOVG04d+6c9qcBAADANRjUAFCB3nnnHWnQoIHar3/+/HntTwEAAIBrMKgBoAJVqVLFyMjIED8/P5Vf/8KFC9qfAgAAANdgUANABevevbsxadIklV/bKu+JDQAA4AYMagDwghdffFE6d+7s8183ICBA+0MHAABwDQY1AHiBv7+/MXPmTImIiPDprxsYGKj9oQMAALgGgxoAvKRx48bGtGnTfPprNmrUSPvDBgAAcA0GNQB40fDhw424uDif/XpNmzbV/pABAABcg0ENAF72t7/9zWdD95577tH+cAEAAFyDQQ0AXhYaGmrMmzdPQkNDvfrrBAYGysMPP6z94QIAALgGgxoAfOCee+4xZs+e7dX3p37wwQclIiKC980C/n97dxubZX3+cfi8ah+giqDQKjqGRelM6+gcRLcVB25BQISYIWFm0WkicVt9miNzT2q2TOeWuDGymAUTJpD5RnFxZrEgKYruIYDbxFDa6phgrBaIQFtGpQ3X/8U/GthACrS97vY+jsREEOu3Jr74eP5KAWCACGqAATJ37txkyZIl/fKxkySJBx98MOtPEQAgrwhqgAF0xx13JI8++miff9ybb745pkyZ4joNADCABDXAALv33nuTJUuW9Nnz7yuvvDIee+yxrD8tAIC8I6gBMnD33Xcnf/zjH2PkyJGn9XE+97nPxXPPPRelpaWu0wAAA0xQA2Tk2muvTTZt2hTTp08/6b+3sLAwfvCDH8TLL78cZWVlYhoAIAOCGiBDEydOTBoaGmLlypVx6aWXnvDXDx8+POrq6qKlpSUeeuihpLCwUEwDAGQkSdM06w0ARESapumGDRvimWeeiddffz0aGxvj0KFDcf7558dll10WM2bMiBtuuCHOOeccEQ0AZGLKlCnpq6++mvWMnHDBBRdEYdYjAPh/SZIk06ZNi2nTpmU9BQCAXvDkGwAAgF75z3/+k/WEnFFUVCSoAQAA6J329vasJ+SMkpISQQ0AAEDvdHR0ZD0hZxQXFwtqAAAATixN07SzszPrGTnDhRoAAIBe2bdvXxw+fDjrGTnDhRoAAIBeeeONN7KekFOGDRsmqAEAADixbdu2ZT0hp5x77rmCGgAAgBNrbm7OekJOGT16tKAGAADgxJqamrKekFNcqAEAAOiVjRs3Zj0hp5SVlQlqAAAAPl5jY2P6zjvvZD0jp3jyDQAAwAk1NDRkPSHnuFADAABwQuvWrct6Qs656KKLIknTNOsdAAAA5KiDBw+m559/frS3t2c9JWckSRKdnZ0u1AAAABzfs88+K6b/S3l5eZSWliaCGgAAgONauXJl1hNyTkVFRUSECzUAAADH1tbWlr7wwgtZz8g5ghoAAICP9cQTT0RPT0/WM3JOZWVlRAhqAAAAjqGrqytdunRp1jNy0qRJkyJCUAMAAHAMy5Yti9bW1qxn5KQPg9q3zQIAAOAohw4dSidOnBg7d+7MekrOOfPMM6O9vT0KCgr8Lt8AAAAcbdmyZWL6OKqrq6OgoCCJ8OQbAACAI+zatSt94IEHsp6Rsz587h0hqAEAADjCd7/73di7d2/WM3LW5z//+Y/+3NdQAwAAEBERr7zySvrFL34xdOLxNTc3R2VlZRIhqAEAAIiIAwcOpFOmTImmpqasp+SssrKyaGtriyRJfA01AAAA/6+urk5Mn0Btbe1HMR0hqAEAAPLe7373u3TFihVZz8h5tbW1R/1YUAMAAOSxrVu3pnfccUfWMwaFadOmHfVjX0MNAACQp1pbW9Pa2tp46623sp6S88rKyuK999776HtQR7hQAwAA5KX29vZ0zpw5YrqXZs2adVRMRwhqAACAvNPV1ZXOnTs3/vnPf2Y9ZdCYNWvW//ycJ98AAAB5pLOzM50/f36sXbs26ymDRkFBQbS1tcWYMWOOulAXZj0MAACAgbFnz550zpw5sXHjxqynDCpXXnnl/8R0hKAGAADIC62tremsWbPi9ddfz3rKoLNgwYJj/rwn3wAAAEPcSy+9lN54443x7rvvZj1l0EmSJHbs2BHjxo37nwu135QMAABgiErTNP31r3+dzpgxQ0yfotra2mPGdIQn3wAAAEPSrl270ltuuSWef/75rKcMasd77h3hyTcAAMCQcvjw4fTxxx+P73//+7F3796s5wxqZ5xxRuzcuTMuuOACF2oAAIChbMuWLek3vvGN+Otf/5r1lCHhmmuuOW5MR/gaagAAgEGvpaUl/frXv55OnjxZTPeh22677WP/uiffAAAAg9T27dvTn//857F8+fLo6enJes6Qct5558Xbb78dRUVFx71Qe/INAAAwiHR1daXPPfdcrFy5Murr64V0P7n11ls/NqYjXKgBAABy3oEDB9INGzbE6tWr46mnnor29vasJw1pSZJEc3NzTJw48WOD2oUaAAAgx+zZsyfdunVrbNiwIdatWxd/+9vf4tChQ1nPyhuzZ88+YUxHCGoYED09PWlra2u8//77ceDAgThw4EDs378/61kAAGSop6cnOjo6Yu/evdHZ2RltbW3R1NQU27Ztiz179mQ9L6995zvf6dWv8+Qb+lhPT0+6adOmWL9+fWzevDmampriX//6l/+jCAAAg8BnP/vZePXVV094nY5woYY+0d3dnT7//POxatWqWLNmTXR0dGQ9CQAAOAWLFy/u9a91oYbT8O6776a//OUvY8WKFbF79+6s5wAAAKdh/Pjx8eabb0ZhYaELNfSXt99+O33kkUdi+fLl0dXVlfUcAACgD3zve9/rdUxHuFDDSenu7k4fe+yxuP/++z3rBgCAIWT8+PHR0tISxcXFvQ5qF2ropU2bNqW33HJLNDY2Zj0FAADoYw888MBJxXSECzX0yrJly9I777zT79QNAABD0CWXXBLbtm07qefeES7U8LEOHjyY3nTTTbF69eqspwAAAP3kwQcfPOmYjnChhuPat29fOm/evHj55ZezngIAAPSTyy+/PDZv3hwFBQUnHdQu1HAMu3btSmfMmBFbtmzJegoAANBPkiSJpUuXnlJMR0QUZP0JQK7p6OhIr732WjENAABD3Fe/+tWYOnXqKcV0hCffcJTu7u507ty5sWbNmqynAAAA/Wj48OGxbdu2GD9+/CkHtQs1HOHuu+8W0wAAkAfuu+++04rpCBdq+MjTTz+dLliwIOsZAABAP6usrIzXXnsthg0bJqjhdL311lvpZz7zmdi/f3/WUwAAgH5UUFAQL774Ylx11VWnFdMRnnxDRETcddddYhoAAPLA7bff3icxHeFCDVFfX5/Onj076xkAAEA/Gzt2bDQ2NsaoUaP6JKhdqMlr3d3daV1dXdYzAACAfpYkSTz++ON9FtMRgpo89/vf/z62b9+e9QwAAKCf1dXVxZw5c/ospiM8+SaPHT58OJ00aVJs3bo16ykAAEA/qqqqis2bN8fw4cP7NKhdqMlbf/rTn8Q0AAAMcSUlJfHkk0/2eUxHCGry2IoVK7KeAAAA9LNHHnkkampq+jymIzz5Jk/t3bs3HTt2bHzwwQdZTwEAAPrJ9ddfH88880wkSdIvQe1CTV5avXq1mAYAgCGsqqoqVq1a1W8xHSGoyVPr1q3LegIAANBPRowYEU899VScddZZ/RbTEYKaPJSmafriiy9mPQMAAOgHSZLE8uXLo6qqql9jOkJQk4eampqira0t6xkAAEA/+MlPfhI33HBDv8d0hKAmD23ZsiXrCQAAQD+49dZb40c/+tGAxHSEoCYPNTc3Zz0BAADoY9OnT4/f/va3A/rPFNTkHUENAABDS1VVVfzhD3+I4uLiAbtORwhq8lBra2vWEwAAgD5y0UUXRX19fYwaNWpAYzpCUJOHOjo6sp4AAAD0gfLy8qivr49x48YNeExHCGrykKAGAIDBb8yYMdHQ0BCf+tSnMonpCEFNHjp48GDWEwAAgNMwcuTIqK+vj+rq6sxiOkJQk4dKS0uzngAAAJyic845J9auXRuTJ0/ONKYjIgqzHgAD7ayzzsp6AgAAcArKy8tj7dq1UVNTk3lMRwhq8pCgBgCAwWfs2LHxwgsvZP7M+0iCmrxz4YUXZj0BAAA4CRMmTIh169ZFRUVFzsR0hK+hJg9VVlZmPQEAAOilK664Iv7yl7/kXExHCGrykKAGAIDB4frrr4/169fHeeedl3MxHSGoyUOXXXZZ1hMAAIATuOeee2L16tVRWlqakzEdEZGkaZr1BhhQaZqm5eXlsWfPnqynAAAA/6WoqCiWLFkS3/rWt3I2pD/kQk3eSZIkmTZtWtYzAACA/1JWVhZr1qwZFDEdIajJU1/+8pezngAAABxh6tSp8dprr8XVV189KGI6wpNv8tSuXbvST3ziE9Hd3Z31FAAAyHt33nlnPProo1FUVDRoYjrChZo8VV5ensycOTPrGQAAkNfGjBkTzz77bCxdujQZbDEdIajJYzfffHPWEwAAIG9dc801sWXLlpg3b96gC+kPefJN3urp6UkrKyvj3//+d9ZTAAAgb5SUlMTDDz8c3/72tyNJkkEb0xEu1OSxwsLCZPHixVnPAACAvPGFL3wh/v73v8e9996bDPaYjnChJs91dXWlF198cbS2tmY9BQAAhqwRI0bEz372s/jmN78ZBQUFgz6kP+RCTV4bNmxY8otf/CLrGQAAMGRdd911sXXr1qirq0uGUkxHuFBDRER86UtfStevX5/1DAAAGDIuueSSePjhh2PBggVDKqKPJKghIhobG9PJkydHV1dX1lMAAGBQO/vss+P++++Pu+66K4qLi4dsTEd48g0REVFVVZX86le/ynoGAAAMWoWFhbFo0aJoaWmJxYsXJ0M9piNcqOEoX/va19Inn3wy6xkAADBoFBQUxPz58+OnP/1pVFZWDvmIPpKghiO0t7en06dPj3/84x9ZTwEAgJyWJEl85StfiR//+MdRXV2dVyH90b8DQQ1He++999La2trYvn171lMAACDnFBUVxcKFC2Px4sVRU1OTlyH9IUENx/DGG2+kV199dbzzzjtZTwEAgJwwYsSIWLRoUdxzzz0xbty4vA7pDwlqOI4dO3akM2fOjObm5qynAABAZiorK2PRokWxaNGiGDlypJA+gqCGj7F79+70uuuui40bN2Y9BQAABkxJSUnMnz8/brvttpg+fXokSSKkj0FQwwl88MEH6eLFi+M3v/lN1lMAAKBfXXHFFXHjjTfGTTfdFKNHjxbRJyCooZeefvrp9Pbbb4/3338/6ykAANBnampqYuHChbFw4cKYMGGCiD4JghpOwu7du9P77rsvnnjiifDfDgAAg1FRUVHU1tbG7NmzY968eXHppZeK6FMkqOEU/PnPf05/+MMfxksvvZT1FAAAOKFx48bFzJkzY9asWTFjxow4++yzRXQfENRwGl555ZX0oYceirVr18bhw4ezngMAAFFQUBDV1dUxderUqK2tjauuuio++clPCuh+IKihD+zcuTNdtWpVrFq1yrfZAgBgwAwfPjyqq6ujpqYmJk2aFJ/+9Kfj8ssvj1GjRgnoASCooY+9+eabaUNDQzQ0NMTGjRtjx44drtcAAJySwsLCGD16dFx44YVRUVEREyZMiIqKiqioqIiLL744JkyYEGeccYZ4zoighn7W1dWVtrS0xPbt22Pfvn3R0dERnZ2dsX///qynAQCQkdLS0igpKYni4uI488wzI0mSGDVqVJSUlMSYMWM++uPcc88Vyzns/wB+TOa2WCNH5QAAACV0RVh0ZGF0ZTpjcmVhdGUAMjAxNy0wNi0xMlQwMzozNDozNiswODowMIdSND8AAAAldEVYdGRhdGU6bW9kaWZ5ADIwMTYtMDQtMTZUMTU6NDM6MTQrMDg6MDBiFYQwAAAAVHRFWHRzdmc6YmFzZS11cmkAZmlsZTovLy9ob21lL2RiL3N2Z19pbmZvL3N2Zy85NS85Zi85NTlmYzc0MzE2OTI5N2E2NTZhZDY4OTk5NzUwNjYwYy5zdmeQvZQXAAAAAElFTkSuQmCC;" vertex="1" parent="1">
          <mxGeometry x="615.42" y="257.33" width="24.58" height="22.67" as="geometry" />
        </mxCell>
        <mxCell id="YsVByBDXMGtculNdtcNv-67" style="rounded=0;orthogonalLoop=1;jettySize=auto;html=1;exitX=0.5;exitY=1;exitDx=0;exitDy=0;entryX=0.75;entryY=0;entryDx=0;entryDy=0;strokeColor=#808080;" edge="1" parent="1" source="YsVByBDXMGtculNdtcNv-66" target="YsVByBDXMGtculNdtcNv-51">
          <mxGeometry relative="1" as="geometry" />
        </mxCell>
        <mxCell id="YsVByBDXMGtculNdtcNv-66" value="Multi-Tenant Application" style="rounded=0;whiteSpace=wrap;html=1;fontStyle=0;strokeColor=#808080;" vertex="1" parent="1">
          <mxGeometry x="630" y="300" width="120" height="60" as="geometry" />
        </mxCell>
        <mxCell id="YsVByBDXMGtculNdtcNv-52" value="" style="sketch=0;pointerEvents=1;shadow=0;dashed=0;html=1;strokeColor=none;fillColor=#808080;labelPosition=center;verticalLabelPosition=bottom;verticalAlign=top;outlineConnect=0;align=center;shape=mxgraph.office.security.lock_with_key_security;" vertex="1" parent="1">
          <mxGeometry x="327" y="523.5" width="17" height="18" as="geometry" />
        </mxCell>
      </root>
    </mxGraphModel>
  </diagram>
</mxfile>
